<?xml version="1.0" encoding="utf-8"?><svg viewBox="0 0 484 311" xmlns="http://www.w3.org/2000/svg" xmlns:xlink="http://www.w3.org/1999/xlink"><style>:root>svg{display:none}:root>svg:target{display:block}</style><svg fill="none" viewBox="0 0 464 311" id="advantage-1" xmlns="http://www.w3.org/2000/svg"><path d="M47.015 89.077 156 26.155l108.985 62.922v125.846L156 277.845 47.015 214.923V89.077z" stroke="#EEEEF7" stroke-width="2"/><path d="M85.12 111.077 156 70.155l70.88 40.922v81.846L156 233.845l-70.88-40.922v-81.846z" stroke="#EEEEF7" stroke-width="2"/><path d="m98.413 119.015 57.95-47.723 81.717 32.102 5.851 98.009-87.585 52.065-64.27-67.19 6.337-67.263z" stroke="#0088F0" stroke-width="4"/><path d="m72.521 104.392 82.841-45.755 45.878 68.329L231.442 196h-75.168l-52.484-14.662-31.269-76.946z" stroke="#EF2A82" stroke-width="4"/><path d="M131.885 138.077 156 124.155l24.115 13.922v27.846L156 179.845l-24.115-13.922v-27.846z" stroke="#EEEEF7" stroke-width="2"/><path d="M396.508 85.252h2.676c1.682-.026 3.004-.469 3.966-1.329.963-.86 1.444-2.021 1.444-3.484 0-3.286-1.636-4.929-4.909-4.929-1.54 0-2.772.443-3.696 1.328-.912.873-1.367 2.035-1.367 3.485h-3.562c0-2.22.809-4.062 2.426-5.525 1.63-1.476 3.696-2.214 6.199-2.214 2.644 0 4.717.7 6.218 2.098 1.502 1.4 2.253 3.344 2.253 5.834 0 1.219-.398 2.4-1.194 3.542-.783 1.142-1.854 1.996-3.215 2.56 1.54.488 2.728 1.297 3.562 2.426.847 1.13 1.271 2.51 1.271 4.14 0 2.515-.822 4.511-2.465 5.987-1.643 1.476-3.78 2.214-6.411 2.214s-4.774-.712-6.43-2.137c-1.643-1.425-2.464-3.305-2.464-5.64h3.581c0 1.475.481 2.656 1.444 3.542.962.885 2.252 1.328 3.869 1.328 1.72 0 3.036-.45 3.947-1.348.911-.898 1.367-2.188 1.367-3.87 0-1.63-.501-2.88-1.502-3.754-1.001-.872-2.445-1.322-4.332-1.347h-2.676v-2.907zm31.998 6.334h3.889v2.907h-3.889V101h-3.581v-6.507H412.16v-2.099l12.553-19.425h3.793v18.617zm-12.303 0h8.722V77.84l-.424.77-8.298 12.976zm19.099-13.227c0-1.681.532-3.067 1.598-4.158 1.078-1.091 2.457-1.636 4.139-1.636 1.707 0 3.087.551 4.139 1.655 1.065 1.091 1.598 2.51 1.598 4.255v1.367c0 1.694-.539 3.08-1.617 4.158-1.066 1.066-2.426 1.598-4.082 1.598-1.668 0-3.048-.532-4.139-1.598-1.091-1.078-1.636-2.509-1.636-4.293v-1.348zm2.656 1.483c0 1 .283 1.829.848 2.483.564.642 1.322.963 2.271.963.912 0 1.643-.314 2.195-.943.565-.63.847-1.49.847-2.58v-1.406c0-1-.276-1.829-.828-2.483-.552-.655-1.302-.982-2.252-.982-.95 0-1.701.327-2.253.982-.552.654-.828 1.508-.828 2.56v1.406zm10.993 14.285c0-1.681.533-3.061 1.598-4.14 1.079-1.09 2.458-1.636 4.14-1.636 1.681 0 3.061.54 4.139 1.618 1.078 1.078 1.617 2.509 1.617 4.293v1.367c0 1.681-.539 3.067-1.617 4.158-1.065 1.078-2.432 1.617-4.101 1.617-1.668 0-3.048-.532-4.139-1.598-1.091-1.078-1.637-2.509-1.637-4.293v-1.386zm2.657 1.502c0 1.014.283 1.848.847 2.502.565.642 1.322.963 2.272.963.924 0 1.662-.314 2.214-.943.552-.642.828-1.508.828-2.6v-1.424c0-1.014-.282-1.842-.847-2.484-.552-.641-1.296-.962-2.233-.962-.912 0-1.656.32-2.234.962-.564.63-.847 1.483-.847 2.561v1.425zm-9.722 3.253-2.022-1.27 13.689-21.91 2.021 1.271-13.688 21.91z" fill="#EF2A82"/><path d="M389.8 127.157c0-.931.181-1.769.545-2.513.369-.745.879-1.319 1.529-1.723.656-.404 1.403-.607 2.241-.607 1.295 0 2.341.449 3.138 1.345.803.897 1.204 2.089 1.204 3.577v.115c0 .925-.179 1.757-.536 2.496a4.017 4.017 0 0 1-1.521 1.714c-.656.41-1.412.615-2.267.615-1.289 0-2.335-.448-3.138-1.345-.797-.896-1.195-2.083-1.195-3.56v-.114zm1.635.194c0 1.054.243 1.901.729 2.54.492.638 1.148.958 1.969.958.826 0 1.482-.323 1.969-.967.486-.651.729-1.559.729-2.725 0-1.043-.249-1.886-.747-2.531-.492-.65-1.148-.976-1.969-.976-.803 0-1.45.32-1.942.958-.492.639-.738 1.553-.738 2.743zm17.094 0c0 1.447-.331 2.613-.993 3.498-.662.884-1.558 1.327-2.689 1.327-1.155 0-2.063-.366-2.725-1.099v4.579h-1.626V122.49h1.485l.08 1.055c.662-.82 1.582-1.231 2.759-1.231 1.143 0 2.045.431 2.707 1.292.668.862 1.002 2.06 1.002 3.595v.15zm-1.626-.185c0-1.072-.228-1.919-.685-2.54-.457-.621-1.084-.932-1.881-.932-.984 0-1.723.437-2.215 1.31v4.544c.486.867 1.231 1.301 2.232 1.301.78 0 1.398-.308 1.855-.923.463-.621.694-1.541.694-2.76zm5.907-6.978v2.302h1.775v1.257h-1.775v5.898c0 .38.079.667.237.861.158.187.428.281.808.281.188 0 .446-.035.774-.105V132a4.725 4.725 0 0 1-1.248.176c-.727 0-1.275-.22-1.644-.659-.369-.44-.553-1.064-.553-1.872v-5.898h-1.732v-1.257h1.732v-2.302h1.626zM418.259 132h-1.626v-9.51h1.626V132zm-1.758-12.032a.98.98 0 0 1 .237-.668c.164-.182.405-.273.721-.273.316 0 .557.091.721.273a.959.959 0 0 1 .246.668.93.93 0 0 1-.246.659c-.164.176-.405.264-.721.264-.316 0-.557-.088-.721-.264a.95.95 0 0 1-.237-.659zm3.937 7.189c0-.931.182-1.769.545-2.513.37-.745.879-1.319 1.53-1.723.656-.404 1.403-.607 2.241-.607 1.295 0 2.341.449 3.138 1.345.802.897 1.204 2.089 1.204 3.577v.115c0 .925-.179 1.757-.536 2.496a4.017 4.017 0 0 1-1.521 1.714c-.656.41-1.412.615-2.268.615-1.289 0-2.334-.448-3.137-1.345-.797-.896-1.196-2.083-1.196-3.56v-.114zm1.635.194c0 1.054.243 1.901.73 2.54.492.638 1.148.958 1.968.958.827 0 1.483-.323 1.969-.967.487-.651.73-1.559.73-2.725 0-1.043-.249-1.886-.747-2.531-.493-.65-1.149-.976-1.969-.976-.803 0-1.45.32-1.942.958-.493.639-.739 1.553-.739 2.743zm10.6-4.861.053 1.196c.726-.915 1.675-1.372 2.847-1.372 2.01 0 3.024 1.134 3.041 3.402V132h-1.626v-6.293c-.006-.686-.164-1.192-.474-1.52-.305-.329-.783-.493-1.433-.493-.527 0-.99.141-1.389.422a2.862 2.862 0 0 0-.931 1.108V132h-1.626v-9.51h1.538zm18.035 9.51h-1.635v-10.837l-3.278 1.204v-1.476l4.658-1.749h.255V132z" fill="#8794BA"/><path d="M409.696 213H391.33v-2.561l9.703-10.781c1.437-1.63 2.425-2.952 2.964-3.966.552-1.027.828-2.085.828-3.176 0-1.464-.442-2.664-1.328-3.601-.886-.936-2.066-1.405-3.542-1.405-1.772 0-3.151.507-4.14 1.521-.975 1.001-1.463 2.4-1.463 4.197h-3.562c0-2.58.828-4.666 2.484-6.257 1.669-1.592 3.895-2.387 6.681-2.387 2.605 0 4.665.686 6.179 2.06 1.515 1.36 2.272 3.176 2.272 5.448 0 2.76-1.758 6.045-5.275 9.857l-7.508 8.144h14.073V213zm17.423-12.321a8.676 8.676 0 0 1-2.676 2.137c-1.026.539-2.156.808-3.388.808-1.617 0-3.029-.398-4.236-1.193-1.193-.796-2.117-1.913-2.772-3.35-.654-1.451-.982-3.049-.982-4.794 0-1.874.353-3.562 1.059-5.064.719-1.501 1.733-2.65 3.042-3.446 1.309-.795 2.837-1.193 4.582-1.193 2.772 0 4.954 1.039 6.546 3.119 1.604 2.066 2.406 4.89 2.406 8.471v1.039c0 5.455-1.078 9.44-3.234 11.956-2.156 2.503-5.41 3.786-9.761 3.85h-.693v-3.003h.751c2.939-.051 5.198-.815 6.777-2.291 1.578-1.489 2.438-3.838 2.579-7.046zm-5.486 0c1.193 0 2.291-.366 3.292-1.098 1.014-.731 1.752-1.636 2.214-2.714v-1.425c0-2.336-.507-4.236-1.521-5.699-1.014-1.463-2.298-2.194-3.851-2.194-1.566 0-2.823.603-3.773 1.809-.95 1.194-1.425 2.773-1.425 4.736 0 1.913.456 3.491 1.367 4.736.924 1.232 2.156 1.849 3.697 1.849zm13.669-10.32c0-1.681.532-3.067 1.598-4.158 1.078-1.091 2.457-1.637 4.139-1.637 1.707 0 3.087.552 4.139 1.656 1.065 1.091 1.598 2.509 1.598 4.255v1.367c0 1.694-.539 3.08-1.617 4.158-1.066 1.066-2.426 1.598-4.082 1.598-1.668 0-3.048-.532-4.139-1.598-1.091-1.078-1.636-2.509-1.636-4.293v-1.348zm2.656 1.483c0 1.001.283 1.829.848 2.483.564.642 1.322.963 2.271.963.912 0 1.643-.315 2.195-.943.565-.629.847-1.489.847-2.58v-1.406c0-1.001-.276-1.829-.828-2.483-.552-.655-1.302-.982-2.252-.982-.95 0-1.701.327-2.253.982-.552.654-.828 1.508-.828 2.56v1.406zm10.993 14.285c0-1.681.533-3.061 1.598-4.139 1.079-1.091 2.458-1.637 4.14-1.637 1.681 0 3.061.539 4.139 1.617 1.078 1.079 1.617 2.51 1.617 4.294v1.367c0 1.681-.539 3.067-1.617 4.158-1.065 1.078-2.432 1.617-4.101 1.617-1.668 0-3.048-.532-4.139-1.598-1.091-1.078-1.637-2.509-1.637-4.293v-1.386zm2.657 1.502c0 1.014.283 1.848.847 2.502.565.642 1.322.963 2.272.963.924 0 1.662-.314 2.214-.943.552-.642.828-1.508.828-2.599v-1.425c0-1.014-.282-1.842-.847-2.484-.552-.641-1.296-.962-2.233-.962-.912 0-1.656.321-2.234.962-.564.629-.847 1.483-.847 2.561v1.425zm-9.722 3.253-2.022-1.27 13.689-21.909 2.021 1.27-13.688 21.909z" fill="#0088F0"/><path d="M389.8 239.157c0-.931.181-1.769.545-2.513.369-.745.879-1.319 1.529-1.723.656-.404 1.403-.607 2.241-.607 1.295 0 2.341.449 3.138 1.345.803.897 1.204 2.089 1.204 3.577v.115c0 .925-.179 1.757-.536 2.496a4.017 4.017 0 0 1-1.521 1.714c-.656.41-1.412.615-2.267.615-1.289 0-2.335-.448-3.138-1.345-.797-.896-1.195-2.083-1.195-3.56v-.114zm1.635.194c0 1.054.243 1.901.729 2.54.492.638 1.148.958 1.969.958.826 0 1.482-.323 1.969-.967.486-.651.729-1.559.729-2.725 0-1.043-.249-1.886-.747-2.531-.492-.65-1.148-.976-1.969-.976-.803 0-1.45.32-1.942.958-.492.639-.738 1.553-.738 2.743zm17.094 0c0 1.447-.331 2.613-.993 3.498-.662.884-1.558 1.327-2.689 1.327-1.155 0-2.063-.366-2.725-1.099v4.579h-1.626V234.49h1.485l.08 1.055c.662-.82 1.582-1.231 2.759-1.231 1.143 0 2.045.431 2.707 1.292.668.862 1.002 2.06 1.002 3.595v.15zm-1.626-.185c0-1.072-.228-1.919-.685-2.54-.457-.621-1.084-.932-1.881-.932-.984 0-1.723.437-2.215 1.31v4.544c.486.867 1.231 1.301 2.232 1.301.78 0 1.398-.308 1.855-.923.463-.621.694-1.541.694-2.76zm5.907-6.978v2.302h1.775v1.257h-1.775v5.898c0 .38.079.667.237.861.158.187.428.281.808.281.188 0 .446-.035.774-.105V244a4.725 4.725 0 0 1-1.248.176c-.727 0-1.275-.22-1.644-.659-.369-.44-.553-1.064-.553-1.872v-5.898h-1.732v-1.257h1.732v-2.302h1.626zM418.259 244h-1.626v-9.51h1.626V244zm-1.758-12.032a.98.98 0 0 1 .237-.668c.164-.182.405-.273.721-.273.316 0 .557.091.721.273a.959.959 0 0 1 .246.668.93.93 0 0 1-.246.659c-.164.176-.405.264-.721.264-.316 0-.557-.088-.721-.264a.95.95 0 0 1-.237-.659zm3.937 7.189c0-.931.182-1.769.545-2.513.37-.745.879-1.319 1.53-1.723.656-.404 1.403-.607 2.241-.607 1.295 0 2.341.449 3.138 1.345.802.897 1.204 2.089 1.204 3.577v.115c0 .925-.179 1.757-.536 2.496a4.017 4.017 0 0 1-1.521 1.714c-.656.41-1.412.615-2.268.615-1.289 0-2.334-.448-3.137-1.345-.797-.896-1.196-2.083-1.196-3.56v-.114zm1.635.194c0 1.054.243 1.901.73 2.54.492.638 1.148.958 1.968.958.827 0 1.483-.323 1.969-.967.487-.651.73-1.559.73-2.725 0-1.043-.249-1.886-.747-2.531-.493-.65-1.149-.976-1.969-.976-.803 0-1.45.32-1.942.958-.493.639-.739 1.553-.739 2.743zm10.6-4.861.053 1.196c.726-.915 1.675-1.372 2.847-1.372 2.01 0 3.024 1.134 3.041 3.402V244h-1.626v-6.293c-.006-.686-.164-1.192-.474-1.52-.305-.329-.783-.493-1.433-.493-.527 0-.99.141-1.389.422a2.862 2.862 0 0 0-.931 1.108V244h-1.626v-9.51h1.538zm21.076 9.51h-8.385v-1.169l4.43-4.922c.656-.744 1.107-1.347 1.353-1.81a3.03 3.03 0 0 0 .378-1.451c0-.668-.202-1.215-.606-1.643-.404-.428-.943-.642-1.617-.642-.809 0-1.439.232-1.89.695-.445.457-.668 1.095-.668 1.916h-1.626c0-1.178.378-2.13 1.134-2.857.762-.726 1.778-1.09 3.05-1.09 1.189 0 2.13.314 2.821.941.691.621 1.037 1.45 1.037 2.487 0 1.26-.803 2.76-2.408 4.5l-3.428 3.718h6.425V244zM145.637 13h-1.09V5.775l-2.186.803v-.984l3.106-1.166h.17V13zm8.349-6.305c0 .426-.113.805-.34 1.137a2.264 2.264 0 0 1-.908.78c.446.19.797.47 1.055.837.262.367.393.783.393 1.248 0 .739-.25 1.326-.75 1.764-.497.437-1.151.656-1.963.656-.821 0-1.479-.219-1.975-.656-.492-.441-.738-1.03-.738-1.764 0-.46.125-.877.375-1.248a2.368 2.368 0 0 1 1.049-.844 2.238 2.238 0 0 1-.897-.779 2.007 2.007 0 0 1-.328-1.13c0-.72.23-1.29.691-1.712.461-.421 1.069-.632 1.823-.632.75 0 1.355.21 1.816.632.465.422.697.993.697 1.711zm-.884 3.979c0-.477-.153-.865-.457-1.166-.301-.301-.696-.451-1.184-.451s-.881.148-1.178.445c-.293.297-.439.688-.439 1.172s.142.865.427 1.142c.29.278.69.416 1.202.416.507 0 .906-.138 1.195-.416.289-.28.434-.662.434-1.142zm-1.629-5.432c-.426 0-.772.133-1.037.399-.262.261-.393.619-.393 1.072 0 .433.129.785.387 1.055.261.265.609.398 1.043.398.433 0 .779-.133 1.037-.398.261-.27.392-.622.392-1.055 0-.434-.134-.787-.404-1.06-.269-.274-.611-.41-1.025-.41zm6.445 4.576h-2.859v-.884h2.859v.884zM164.457 13h-5.59v-.78l2.953-3.28c.438-.497.739-.899.903-1.208.168-.312.252-.634.252-.966 0-.446-.135-.81-.405-1.096-.269-.285-.629-.428-1.078-.428-.539 0-.959.154-1.26.463-.296.305-.445.73-.445 1.277h-1.084c0-.785.252-1.42.756-1.904.508-.484 1.186-.726 2.033-.726.793 0 1.42.209 1.881.627.461.414.691.966.691 1.658 0 .84-.535 1.84-1.605 3l-2.285 2.478h4.283V13zm5.725-2.865h1.183v.885h-1.183V13h-1.09v-1.98h-3.885v-.64l3.82-5.911h1.155v5.666zm-3.744 0h2.654V5.95l-.129.235-2.525 3.949zM288.664 91h-5.59v-.78l2.953-3.28c.438-.497.739-.899.903-1.208.168-.312.252-.634.252-.966 0-.446-.135-.81-.405-1.096-.269-.285-.629-.428-1.078-.428-.539 0-.959.154-1.26.463-.296.305-.445.73-.445 1.277h-1.084c0-.785.252-1.42.756-1.904.508-.484 1.186-.726 2.033-.726.793 0 1.42.209 1.881.626.461.415.691.967.691 1.659 0 .84-.535 1.84-1.605 3l-2.285 2.478h4.283V91zm1.647-4.277.433-4.254h4.371v1.002h-3.451l-.258 2.326c.418-.246.893-.37 1.424-.37.777 0 1.395.258 1.852.774.457.512.685 1.205.685 2.08 0 .88-.238 1.572-.715 2.08-.472.504-1.134.756-1.986.756-.754 0-1.369-.209-1.846-.627-.476-.418-.748-.996-.814-1.734h1.025c.067.488.24.857.522 1.107.281.246.652.37 1.113.37.504 0 .898-.172 1.184-.516.289-.344.433-.819.433-1.424 0-.57-.156-1.027-.469-1.371-.308-.348-.72-.522-1.236-.522-.473 0-.844.104-1.113.31l-.287.235-.867-.222zm8.607 1.095h-2.859v-.884h2.859v.884zm2.525-1.611h.815c.512-.008.914-.142 1.207-.404.293-.262.439-.615.439-1.06 0-1-.498-1.5-1.494-1.5-.469 0-.844.134-1.125.404-.277.265-.416.619-.416 1.06h-1.084c0-.676.246-1.236.738-1.682.497-.449 1.125-.673 1.887-.673.805 0 1.436.212 1.893.638.457.426.685 1.018.685 1.776 0 .37-.121.73-.363 1.078a2.152 2.152 0 0 1-.979.779c.469.148.831.395 1.084.738.258.344.387.764.387 1.26 0 .766-.25 1.373-.75 1.822-.5.45-1.15.674-1.951.674-.801 0-1.453-.217-1.957-.65-.5-.434-.75-1.006-.75-1.717h1.09c0 .45.146.809.439 1.078.293.27.686.404 1.178.404.523 0 .924-.136 1.201-.41.278-.273.416-.666.416-1.178 0-.496-.152-.876-.457-1.142-.305-.266-.744-.402-1.318-.41h-.815v-.885zm9.739 1.928h1.183v.884h-1.183V91h-1.09v-1.98h-3.885v-.64l3.82-5.911h1.155v5.666zm-3.744 0h2.654V83.95l-.129.235-2.525 3.949zM284.65 217.207h.815c.512-.008.914-.143 1.207-.404.293-.262.439-.615.439-1.061 0-1-.498-1.5-1.494-1.5-.469 0-.844.135-1.125.404-.277.266-.416.62-.416 1.061h-1.084c0-.676.246-1.236.738-1.682.497-.449 1.125-.673 1.887-.673.805 0 1.436.212 1.893.638.457.426.685 1.018.685 1.776 0 .371-.121.73-.363 1.078a2.16 2.16 0 0 1-.978.779c.468.148.83.395 1.084.738.257.344.386.764.386 1.26 0 .766-.25 1.373-.75 1.822-.5.45-1.15.674-1.951.674-.801 0-1.453-.217-1.957-.65-.5-.434-.75-1.006-.75-1.717h1.09c0 .449.146.809.439 1.078.293.27.686.404 1.178.404.523 0 .924-.136 1.201-.41.278-.273.416-.666.416-1.177 0-.497-.152-.877-.457-1.143-.304-.266-.744-.402-1.318-.41h-.815v-.885zm5.661.516.433-4.254h4.371v1.002h-3.451l-.258 2.326a2.755 2.755 0 0 1 1.424-.369c.777 0 1.395.258 1.852.773.457.512.685 1.205.685 2.08 0 .879-.238 1.573-.715 2.08-.472.504-1.134.756-1.986.756-.754 0-1.369-.209-1.846-.627-.476-.418-.748-.996-.814-1.734h1.025c.067.488.24.857.522 1.107.281.246.652.369 1.113.369.504 0 .898-.171 1.184-.515.289-.344.433-.819.433-1.424 0-.57-.156-1.027-.469-1.371-.308-.348-.72-.522-1.236-.522-.473 0-.844.104-1.113.311l-.287.234-.867-.222zm8.607 1.095h-2.859v-.884h2.859v.884zm5.525.317h1.184v.885h-1.184V222h-1.089v-1.98h-3.885v-.639l3.82-5.912h1.154v5.666zm-3.744 0h2.655v-4.184l-.129.235-2.526 3.949zm10.483 0h1.183v.885h-1.183V222h-1.09v-1.98h-3.885v-.639l3.82-5.912h1.155v5.666zm-3.744 0h2.654v-4.184l-.129.235-2.525 3.949zm-160.788 85h1.184v.885h-1.184V307h-1.089v-1.98h-3.885v-.639l3.82-5.912h1.154v5.666zm-3.744 0h2.655v-4.184l-.129.235-2.526 3.949zm6.405-1.412.433-4.254h4.371v1.002h-3.451l-.258 2.326a2.755 2.755 0 0 1 1.424-.369c.777 0 1.395.258 1.852.773.457.512.685 1.205.685 2.08 0 .879-.238 1.573-.715 2.08-.472.504-1.134.756-1.986.756-.754 0-1.369-.209-1.846-.627-.476-.418-.748-.996-.814-1.734h1.025c.067.488.24.857.522 1.107.281.246.652.369 1.113.369.504 0 .898-.171 1.184-.515.289-.344.433-.819.433-1.424 0-.57-.156-1.027-.469-1.371-.308-.348-.72-.522-1.236-.522-.473 0-.844.104-1.113.311l-.287.234-.867-.222zm8.607 1.095h-2.859v-.884h2.859v.884zm1.447-1.095.434-4.254h4.371v1.002h-3.451l-.258 2.326a2.755 2.755 0 0 1 1.424-.369c.777 0 1.394.258 1.851.773.457.512.686 1.205.686 2.08 0 .879-.238 1.573-.715 2.08-.473.504-1.135.756-1.986.756-.754 0-1.369-.209-1.846-.627-.477-.418-.748-.996-.814-1.734h1.025c.066.488.24.857.521 1.107.282.246.653.369 1.114.369.504 0 .898-.171 1.183-.515.289-.344.434-.819.434-1.424 0-.57-.156-1.027-.469-1.371-.308-.348-.721-.522-1.236-.522-.473 0-.844.104-1.113.311l-.288.234-.867-.222zm10.817 1.412h1.183v.885h-1.183V307h-1.09v-1.98h-3.885v-.639l3.82-5.912h1.155v5.666zm-3.744 0h2.654v-4.184l-.129.235-2.525 3.949zM1.572 217.723l.434-4.254h4.371v1.002H2.926l-.258 2.326a2.754 2.754 0 0 1 1.424-.369c.777 0 1.394.258 1.851.773.457.512.686 1.205.686 2.08 0 .879-.238 1.573-.715 2.08-.473.504-1.135.756-1.986.756-.754 0-1.37-.209-1.846-.627-.477-.418-.748-.996-.814-1.734h1.025c.066.488.24.857.521 1.107.282.246.653.369 1.114.369.504 0 .898-.171 1.183-.515.29-.344.434-.819.434-1.424 0-.57-.156-1.027-.469-1.371-.308-.348-.72-.522-1.236-.522-.473 0-.844.104-1.113.311l-.288.234-.867-.222zm6.739 0 .433-4.254h4.371v1.002h-3.45l-.259 2.326a2.754 2.754 0 0 1 1.424-.369c.777 0 1.395.258 1.852.773.457.512.685 1.205.685 2.08 0 .879-.238 1.573-.715 2.08-.472.504-1.134.756-1.986.756-.754 0-1.37-.209-1.846-.627-.476-.418-.748-.996-.814-1.734H9.03c.067.488.24.857.522 1.107.281.246.652.369 1.113.369.504 0 .899-.171 1.184-.515.289-.344.433-.819.433-1.424 0-.57-.156-1.027-.468-1.371-.31-.348-.721-.522-1.237-.522-.473 0-.844.104-1.113.311l-.287.234-.867-.222zm8.607 1.095h-2.86v-.884h2.86v.884zm5.203-5.355v.92h-.2c-.843.015-1.515.265-2.015.75-.5.484-.789 1.166-.867 2.045.45-.516 1.063-.774 1.84-.774.742 0 1.334.262 1.775.785.446.524.668 1.2.668 2.028 0 .879-.24 1.582-.72 2.109-.477.528-1.118.791-1.922.791-.817 0-1.479-.312-1.987-.937-.508-.629-.761-1.438-.761-2.426v-.416c0-1.57.334-2.77 1.002-3.598.671-.832 1.67-1.258 2.994-1.277h.193zm-1.424 3.844c-.37 0-.713.111-1.025.334-.313.222-.53.502-.65.838v.398c0 .703.158 1.269.474 1.699.317.43.711.645 1.184.645.488 0 .87-.18 1.148-.539.281-.36.422-.83.422-1.412 0-.586-.143-1.059-.428-1.418a1.35 1.35 0 0 0-1.125-.545zm8.485 1.828h1.183v.885h-1.183V222h-1.09v-1.98h-3.885v-.639l3.82-5.912h1.155v5.666zm-3.744 0h2.654v-4.184l-.13.235-2.524 3.949zM10.32 82.463v.92h-.199c-.844.015-1.516.265-2.016.75-.5.484-.789 1.166-.867 2.045.45-.516 1.063-.774 1.84-.774.742 0 1.334.262 1.776.785.445.524.668 1.2.668 2.028 0 .879-.24 1.582-.721 2.11-.477.526-1.117.79-1.922.79-.816 0-1.479-.312-1.986-.937-.508-.63-.762-1.438-.762-2.426v-.416c0-1.57.334-2.77 1.002-3.598.672-.832 1.67-1.258 2.994-1.277h.193zm-1.424 3.844a1.73 1.73 0 0 0-1.025.334 1.74 1.74 0 0 0-.65.837v.399c0 .703.158 1.27.474 1.7.317.429.711.644 1.184.644.488 0 .871-.18 1.148-.54.282-.359.422-.83.422-1.412 0-.585-.142-1.058-.428-1.417a1.351 1.351 0 0 0-1.125-.545zm4.407.416.433-4.254h4.371v1.002h-3.45l-.259 2.326c.418-.246.893-.37 1.424-.37.778 0 1.395.258 1.852.774.457.512.685 1.205.685 2.08 0 .88-.238 1.572-.715 2.08-.472.504-1.134.756-1.986.756-.754 0-1.369-.209-1.845-.627-.477-.418-.748-.996-.815-1.734h1.025c.067.488.24.857.522 1.107.281.246.652.37 1.113.37.504 0 .899-.172 1.184-.516.289-.344.433-.819.433-1.424 0-.57-.156-1.027-.468-1.371-.309-.348-.721-.522-1.237-.522-.472 0-.843.104-1.113.31l-.287.235-.867-.222zm9.457-.3h2.379v1.026h-2.38v2.695h-1.09V87.45h-2.378v-1.025h2.379v-2.49h1.09v2.49z" fill="#8794BA"/></svg><svg fill="none" viewBox="0 0 484 271" id="advantage-2" xmlns="http://www.w3.org/2000/svg"><path fill="#EEEEF7" d="M42 0h1v271h-1zm63 0h1v271h-1zm63 0h1v271h-1zm63 0h1v271h-1zm63 0h1v271h-1zm63 0h1v271h-1zm63 0h1v271h-1zm63 0h1v271h-1z"/><path d="m1.938 20.723.433-4.254h4.371v1.002H3.291l-.258 2.326c.418-.246.893-.37 1.424-.37.777 0 1.395.259 1.852.774.457.512.685 1.205.685 2.08 0 .88-.238 1.573-.715 2.08-.472.504-1.134.756-1.986.756-.754 0-1.37-.209-1.846-.627-.476-.418-.748-.996-.814-1.734h1.025c.067.488.24.857.522 1.107.28.246.652.37 1.113.37.504 0 .898-.172 1.184-.516.289-.344.433-.819.433-1.424 0-.57-.156-1.027-.469-1.371-.308-.348-.72-.522-1.236-.522-.473 0-.844.104-1.113.31l-.287.235-.868-.222zm10.816 1.412h1.184v.884h-1.184V25h-1.09v-1.98H7.78v-.64l3.82-5.911h1.155v5.666zm-3.744 0h2.654V17.95l-.129.235-2.525 3.949zm8.273-.317h-2.86v-.884h2.86v.884zm5.203-5.355v.92h-.199c-.844.015-1.515.265-2.015.75-.5.484-.79 1.166-.868 2.045.45-.516 1.063-.774 1.84-.774.742 0 1.334.262 1.776.785.445.524.668 1.2.668 2.028 0 .879-.24 1.582-.721 2.11-.477.526-1.117.79-1.922.79-.817 0-1.479-.312-1.986-.937-.508-.63-.762-1.438-.762-2.426v-.416c0-1.57.334-2.77 1.002-3.598.672-.832 1.67-1.258 2.994-1.277h.193zm-1.424 3.844a1.73 1.73 0 0 0-1.025.334 1.74 1.74 0 0 0-.65.838v.398c0 .703.158 1.27.474 1.7.317.429.711.644 1.184.644.488 0 .871-.18 1.148-.54.282-.359.422-.83.422-1.412 0-.585-.142-1.058-.427-1.417a1.351 1.351 0 0 0-1.125-.545zm4.407.416.433-4.254h4.371v1.002h-3.45l-.259 2.326c.418-.246.893-.37 1.424-.37.778 0 1.395.259 1.852.774.457.512.685 1.205.685 2.08 0 .88-.238 1.573-.714 2.08-.473.504-1.135.756-1.987.756-.754 0-1.369-.209-1.846-.627-.476-.418-.748-.996-.814-1.734h1.025c.067.488.24.857.522 1.107.281.246.652.37 1.113.37.504 0 .899-.172 1.184-.516.289-.344.433-.819.433-1.424 0-.57-.156-1.027-.468-1.371-.309-.348-.721-.522-1.237-.522-.472 0-.843.104-1.113.31l-.287.235-.867-.222zM6.016 78.135h1.183v.884H6.016V81h-1.09v-1.98H1.04v-.64l3.82-5.911h1.155v5.666zm-3.745 0h2.655V73.95l-.13.235-2.525 3.949zm6.405-1.412.433-4.254h4.371v1.002h-3.45l-.259 2.326c.418-.246.893-.37 1.424-.37.778 0 1.395.258 1.852.774.457.512.685 1.205.685 2.08 0 .88-.238 1.572-.714 2.08-.473.504-1.135.756-1.987.756-.754 0-1.369-.209-1.845-.627-.477-.418-.748-.996-.815-1.734h1.025c.067.488.24.857.522 1.107.281.246.652.37 1.113.37.504 0 .899-.172 1.184-.516.289-.344.433-.819.433-1.424 0-.57-.156-1.027-.468-1.371-.309-.348-.721-.522-1.237-.522-.472 0-.843.104-1.113.31l-.287.235-.867-.222zm8.607 1.095h-2.86v-.884h2.86v.884zm1.447-1.095.434-4.254h4.371v1.002h-3.451l-.258 2.326c.418-.246.893-.37 1.424-.37.777 0 1.395.258 1.852.774.457.512.685 1.205.685 2.08 0 .88-.238 1.572-.715 2.08-.472.504-1.134.756-1.986.756-.754 0-1.37-.209-1.846-.627-.476-.418-.748-.996-.814-1.734h1.025c.067.488.24.857.522 1.107.28.246.652.37 1.113.37.504 0 .898-.172 1.184-.516.289-.344.433-.819.433-1.424 0-.57-.156-1.027-.469-1.371-.308-.348-.72-.522-1.236-.522-.473 0-.844.104-1.113.31l-.287.235-.867-.222zm10.817 1.412h1.183v.884h-1.183V81h-1.09v-1.98h-3.885v-.64l3.82-5.911h1.155v5.666zm-3.744 0h2.654V73.95l-.129.235-2.525 3.949zM3.016 132.207h.814c.512-.008.914-.143 1.207-.404.293-.262.44-.615.44-1.061 0-1-.498-1.5-1.495-1.5-.468 0-.843.135-1.125.404-.277.266-.416.62-.416 1.061H1.357c0-.676.247-1.236.739-1.682.496-.449 1.125-.673 1.886-.673.805 0 1.436.212 1.893.638.457.426.686 1.018.686 1.776 0 .371-.122.73-.364 1.078a2.162 2.162 0 0 1-.978.779c.468.148.83.395 1.084.738.258.344.386.764.386 1.26 0 .766-.25 1.373-.75 1.822-.5.45-1.15.674-1.95.674-.801 0-1.454-.217-1.958-.65-.5-.434-.75-1.006-.75-1.717h1.09c0 .449.147.809.44 1.078.293.27.685.404 1.177.404.524 0 .924-.136 1.201-.41.278-.273.416-.666.416-1.177 0-.497-.152-.877-.457-1.143-.304-.266-.744-.402-1.318-.41h-.814v-.885zm5.66.516.433-4.254h4.371v1.002h-3.45l-.259 2.326a2.754 2.754 0 0 1 1.424-.369c.778 0 1.395.258 1.852.773.457.512.685 1.205.685 2.08 0 .879-.238 1.573-.714 2.08-.473.504-1.135.756-1.987.756-.754 0-1.369-.209-1.845-.627-.477-.418-.748-.996-.815-1.734h1.025c.067.488.24.857.522 1.107.281.246.652.369 1.113.369.504 0 .899-.171 1.184-.515.289-.344.433-.819.433-1.424 0-.57-.156-1.027-.468-1.371-.309-.348-.721-.522-1.237-.522-.472 0-.843.104-1.113.311l-.287.234-.867-.222zm8.607 1.095h-2.86v-.884h2.86v.884zm5.526.317h1.183v.885H22.81V137h-1.09v-1.98h-3.885v-.639l3.82-5.912h1.155v5.666zm-3.745 0h2.655v-4.184l-.13.235-2.524 3.949zm10.483 0h1.183v.885h-1.183V137h-1.09v-1.98h-3.885v-.639l3.82-5.912h1.155v5.666zm-3.744 0h2.654v-4.184l-.129.235-2.525 3.949zM7.03 193H1.44v-.779l2.953-3.282c.437-.496.738-.898.902-1.207.168-.312.252-.634.252-.966 0-.446-.135-.811-.404-1.096-.27-.285-.63-.428-1.079-.428-.539 0-.959.154-1.26.463-.296.305-.445.731-.445 1.277H1.275c0-.785.252-1.42.756-1.904.508-.484 1.186-.726 2.033-.726.793 0 1.42.209 1.881.627.461.414.692.966.692 1.658 0 .84-.535 1.84-1.606 3l-2.285 2.478H7.03V193zm1.646-4.277.433-4.254h4.371v1.002h-3.45l-.259 2.326a2.754 2.754 0 0 1 1.424-.369c.778 0 1.395.258 1.852.773.457.512.685 1.205.685 2.08 0 .879-.238 1.573-.714 2.08-.473.504-1.135.756-1.987.756-.754 0-1.369-.209-1.845-.627-.477-.418-.748-.996-.815-1.734h1.025c.067.488.24.857.522 1.107.281.246.652.369 1.113.369.504 0 .899-.171 1.184-.515.289-.344.433-.819.433-1.424 0-.57-.156-1.027-.468-1.371-.309-.348-.721-.522-1.237-.522-.472 0-.843.104-1.113.311l-.287.234-.867-.222zm8.607 1.095h-2.86v-.884h2.86v.884zm2.526-1.611h.814c.512-.008.914-.143 1.207-.404.293-.262.44-.615.44-1.061 0-1-.498-1.5-1.495-1.5-.468 0-.843.135-1.125.404-.277.266-.416.62-.416 1.061H18.15c0-.676.247-1.236.739-1.682.496-.449 1.125-.673 1.886-.673.805 0 1.436.212 1.893.638.457.426.686 1.018.686 1.776 0 .371-.122.73-.364 1.078a2.161 2.161 0 0 1-.978.779c.468.148.83.395 1.084.738.258.344.386.764.386 1.26 0 .766-.25 1.373-.75 1.822-.5.45-1.15.674-1.95.674-.802 0-1.454-.217-1.958-.65-.5-.434-.75-1.006-.75-1.717h1.09c0 .449.146.809.44 1.078.293.27.685.404 1.177.404.524 0 .924-.136 1.201-.41.278-.273.416-.666.416-1.177 0-.497-.152-.877-.457-1.143-.304-.266-.744-.402-1.318-.41h-.814v-.885zm9.738 1.928h1.183v.885h-1.183V193h-1.09v-1.98h-3.885v-.639l3.82-5.912h1.155v5.666zm-3.744 0h2.654v-4.184l-.129.235-2.525 3.949zM5.002 249h-1.09v-7.225l-2.185.803v-.984l3.105-1.166h.17V249zm8.35-6.305c0 .426-.114.805-.34 1.137a2.266 2.266 0 0 1-.909.779 2.43 2.43 0 0 1 1.055.838c.262.367.393.783.393 1.248 0 .739-.25 1.326-.75 1.764-.496.437-1.15.656-1.963.656-.82 0-1.479-.219-1.975-.656-.492-.441-.738-1.029-.738-1.764 0-.461.125-.877.375-1.248a2.376 2.376 0 0 1 1.049-.844 2.232 2.232 0 0 1-.897-.779 2.01 2.01 0 0 1-.328-1.131c0-.718.23-1.289.692-1.711.46-.422 1.068-.632 1.822-.632.75 0 1.355.21 1.816.632.465.422.698.993.698 1.711zm-.885 3.979c0-.477-.152-.865-.457-1.166-.301-.301-.695-.451-1.184-.451-.488 0-.88.148-1.178.445-.293.297-.439.687-.439 1.172 0 .484.143.865.428 1.142.289.278.69.416 1.2.416.509 0 .907-.138 1.196-.416.29-.281.434-.662.434-1.142zm-1.63-5.432c-.425 0-.77.133-1.036.399-.262.261-.393.619-.393 1.072 0 .433.13.785.387 1.055.262.265.61.398 1.043.398.434 0 .78-.133 1.037-.398.262-.27.393-.622.393-1.055 0-.434-.135-.787-.405-1.061-.27-.273-.611-.41-1.025-.41zm6.446 4.576h-2.86v-.884h2.86v.884zm6.54 3.182h-5.59v-.779l2.953-3.282c.437-.496.738-.898.902-1.207.168-.312.252-.634.252-.966 0-.446-.135-.811-.404-1.096-.27-.285-.63-.428-1.079-.428-.539 0-.959.154-1.26.463-.296.305-.445.731-.445 1.277h-1.084c0-.785.252-1.42.756-1.904.508-.484 1.186-.726 2.033-.726.793 0 1.42.209 1.881.627.461.414.692.966.692 1.658 0 .84-.535 1.84-1.606 3l-2.285 2.478h4.283V249zm5.724-2.865h1.183v.885h-1.183V249h-1.09v-1.98h-3.885v-.639l3.82-5.912h1.155v5.666zm-3.744 0h2.654v-4.184l-.129.235-2.525 3.949z" fill="#8794BA"/><path d="M42 7h256.5a5.5 5.5 0 1 1 0 11H42V7zm0 57h169.5a5.5 5.5 0 1 1 0 11H42V64zm0 57h10.5a5.5 5.5 0 1 1 0 11H42v-11zm0 57h42.5a5.5 5.5 0 1 1 0 11H42v-11zm0 57h202.5a5.5 5.5 0 1 1 0 11H42v-11z" fill="#EF2A82"/><path d="M42 21h142.5a5.5 5.5 0 1 1 0 11H42V21zm0 57h202.5a5.5 5.5 0 1 1 0 11H42V78zm0 57h42.5a5.5 5.5 0 1 1 0 11H42v-11zm0 57h333.5a5.5 5.5 0 1 1 0 11H42v-11zm0 57h390.5a5.5 5.5 0 1 1 0 11H42v-11z" fill="#0088F0"/></svg><svg fill="none" viewBox="0 0 462 305" id="advantage-3" xmlns="http://www.w3.org/2000/svg"><path fill="#fff" d="M0 45h66v52H0zm66 0h66v52H66z"/><path d="M99.117 75h-1.09v-7.225l-2.186.803v-.984l3.106-1.166h.17V75z" fill="#172755"/><path fill="#fff" d="M132 45h66v52h-66z"/><path d="M167.144 75h-5.59v-.78l2.953-3.28c.438-.497.739-.899.903-1.208.168-.312.252-.634.252-.966 0-.446-.135-.811-.405-1.096-.269-.285-.629-.428-1.078-.428-.539 0-.959.154-1.26.463-.297.305-.445.73-.445 1.277h-1.084c0-.785.252-1.42.756-1.904.508-.484 1.185-.727 2.033-.727.793 0 1.42.21 1.881.627.461.415.691.967.691 1.659 0 .84-.535 1.84-1.605 3l-2.285 2.478h4.283V75z" fill="#172755"/><path fill="#fff" d="M198 45h66v52h-66z"/><path d="M229.13 70.207h.815c.511-.008.914-.143 1.207-.404.293-.262.439-.615.439-1.06 0-1-.498-1.5-1.494-1.5-.469 0-.844.134-1.125.404-.277.265-.416.619-.416 1.06h-1.084c0-.676.246-1.236.738-1.682.496-.449 1.125-.674 1.887-.674.805 0 1.436.213 1.893.64.457.425.685 1.017.685 1.775 0 .37-.121.73-.363 1.078a2.157 2.157 0 0 1-.979.779c.469.148.831.394 1.084.738.258.344.387.764.387 1.26 0 .766-.25 1.373-.75 1.822-.5.45-1.15.674-1.951.674-.801 0-1.453-.217-1.957-.65-.5-.434-.75-1.006-.75-1.717h1.09c0 .45.146.809.439 1.078.293.27.686.404 1.178.404.523 0 .924-.136 1.201-.41.277-.273.416-.666.416-1.178 0-.496-.152-.877-.457-1.142-.305-.266-.744-.402-1.318-.41h-.815v-.885z" fill="#172755"/><path fill="#fff" d="M264 45h66v52h-66z"/><path d="M298.13 72.135h1.184v.884h-1.184V75h-1.09v-1.98h-3.884v-.64l3.82-5.911h1.154v5.666zm-3.744 0h2.654V67.95l-.128.235-2.526 3.949z" fill="#172755"/><path fill="#fff" d="M330 45h66v52h-66z"/><path d="m360.052 70.723.434-4.254h4.371v1.002h-3.451l-.258 2.326c.418-.246.892-.37 1.424-.37.777 0 1.394.258 1.851.774.457.512.686 1.205.686 2.08 0 .88-.238 1.572-.715 2.08-.473.504-1.135.756-1.986.756-.754 0-1.369-.209-1.846-.627-.477-.418-.748-.996-.815-1.734h1.026c.066.488.24.857.521 1.107.282.246.653.37 1.114.37.504 0 .898-.172 1.183-.516.289-.344.434-.819.434-1.424 0-.57-.156-1.027-.469-1.371-.309-.348-.721-.522-1.236-.522-.473 0-.844.104-1.114.31l-.287.235-.867-.222z" fill="#172755"/><path fill="#fff" d="M396 45h66v52h-66z"/><path d="M429.808 66.463v.92h-.199c-.844.015-1.516.265-2.016.75-.5.484-.789 1.166-.867 2.045.449-.516 1.063-.774 1.84-.774.742 0 1.334.262 1.775.785.446.524.668 1.2.668 2.028 0 .879-.24 1.582-.72 2.11-.477.526-1.118.79-1.922.79-.817 0-1.479-.312-1.987-.937-.508-.63-.761-1.438-.761-2.426v-.416c0-1.57.334-2.77 1.002-3.598.671-.832 1.669-1.258 2.994-1.277h.193zm-1.424 3.844c-.371 0-.713.11-1.025.334a1.744 1.744 0 0 0-.651.837v.399c0 .703.159 1.27.475 1.7.316.429.711.644 1.184.644.488 0 .871-.18 1.148-.54.281-.359.422-.83.422-1.412 0-.585-.143-1.058-.428-1.418a1.35 1.35 0 0 0-1.125-.544z" fill="#172755"/><path fill="#fff" d="M0 97h66v52H0z"/><path d="M35.062 119.078 31.529 127h-1.137l3.521-7.641h-4.617v-.89h5.766v.609z" fill="#172755"/><path fill="#fff" d="M66 97h66v52H66z"/><circle cx="98.5" cy="122.5" r="19.5" fill="#0088F0"/><path d="M100.728 120.695c0 .426-.113.805-.34 1.137a2.268 2.268 0 0 1-.908.779c.445.192.797.471 1.055.838.261.367.392.783.392 1.248 0 .739-.25 1.326-.75 1.764-.496.437-1.15.656-1.963.656-.82 0-1.478-.219-1.974-.656-.492-.441-.739-1.029-.739-1.764 0-.461.125-.877.375-1.248a2.376 2.376 0 0 1 1.05-.844 2.232 2.232 0 0 1-.897-.779 2.01 2.01 0 0 1-.328-1.131c0-.718.23-1.289.691-1.711.461-.422 1.068-.632 1.822-.632.75 0 1.356.21 1.817.632.465.422.697.993.697 1.711zm-.885 3.979c0-.477-.152-.865-.457-1.166-.3-.301-.695-.451-1.183-.451-.489 0-.881.148-1.178.445-.293.297-.44.687-.44 1.172 0 .484.143.865.428 1.142.29.278.69.416 1.201.416.508 0 .907-.138 1.196-.416.289-.281.433-.662.433-1.142zm-1.629-5.432c-.425 0-.771.133-1.037.399-.262.261-.392.619-.392 1.072 0 .433.129.785.386 1.055.262.265.61.398 1.043.398.434 0 .78-.133 1.037-.398.262-.27.393-.622.393-1.055 0-.434-.135-.787-.404-1.061-.27-.273-.612-.41-1.026-.41z" fill="#EEEEF7"/><path fill="#fff" d="M132 97h66v52h-66z"/><circle cx="164.5" cy="122.5" r="19.5" fill="#0088F0"/><path d="M165.708 123.25c-.226.27-.498.486-.814.65a2.185 2.185 0 0 1-1.031.246c-.492 0-.922-.121-1.289-.363a2.366 2.366 0 0 1-.844-1.019 3.512 3.512 0 0 1-.299-1.459c0-.571.108-1.084.322-1.541.219-.457.528-.807.926-1.049.399-.242.863-.363 1.395-.363.843 0 1.507.316 1.992.949.488.629.732 1.488.732 2.578v.316c0 1.66-.328 2.873-.984 3.639-.656.762-1.647 1.152-2.971 1.172h-.211v-.914h.229c.894-.016 1.582-.248 2.062-.697.481-.454.742-1.168.785-2.145zm-1.669 0c.363 0 .697-.111 1.001-.334.309-.223.534-.498.674-.826v-.434c0-.711-.154-1.289-.463-1.734-.308-.445-.699-.668-1.171-.668-.477 0-.86.183-1.149.551-.289.363-.434.843-.434 1.441 0 .582.139 1.063.417 1.441.281.375.656.563 1.125.563z" fill="#EEEEF7"/><path fill="#fff" d="M198 97h66v52h-66z"/><circle cx="230.5" cy="122.5" r="19.5" fill="#0088F0"/><path d="M227.247 127h-1.089v-7.225l-2.186.803v-.984l3.106-1.166h.169V127zm8.526-3.639c0 1.27-.217 2.213-.651 2.83-.433.618-1.111.926-2.033.926-.91 0-1.584-.301-2.021-.902-.438-.606-.664-1.508-.68-2.707v-1.447c0-1.254.217-2.186.651-2.795.433-.61 1.113-.914 2.039-.914.918 0 1.593.294 2.027.884.434.586.656 1.492.668 2.719v1.406zm-1.084-1.482c0-.918-.129-1.586-.387-2.004-.258-.422-.666-.633-1.224-.633-.555 0-.959.209-1.213.627-.254.418-.385 1.061-.393 1.928v1.734c0 .922.133 1.604.399 2.045.269.438.675.656 1.218.656.535 0 .932-.207 1.19-.621.261-.414.398-1.066.41-1.957v-1.775z" fill="#EEEEF7"/><path fill="#fff" d="M264 97h66v52h-66z"/><path d="M293.247 127h-1.089v-7.225l-2.186.803v-.984l3.106-1.166h.169V127zm6.739 0h-1.09v-7.225l-2.186.803v-.984l3.106-1.166h.17V127z" fill="#172755"/><path fill="#fff" d="M330 97h66v52h-66z"/><path d="M359.247 127h-1.089v-7.225l-2.186.803v-.984l3.106-1.166h.169V127zm8.766 0h-5.59v-.779l2.953-3.282c.438-.496.739-.898.903-1.207.168-.312.252-.634.252-.966 0-.446-.135-.811-.405-1.096-.269-.285-.629-.428-1.078-.428-.539 0-.959.154-1.259.463-.297.305-.446.731-.446 1.277h-1.084c0-.785.252-1.42.756-1.904.508-.484 1.186-.726 2.033-.726.793 0 1.42.209 1.881.626.461.415.692.967.692 1.659 0 .84-.536 1.84-1.606 3l-2.285 2.478h4.283V127z" fill="#172755"/><path fill="#fff" d="M396 97h66v52h-66z"/><path d="M425.247 127h-1.089v-7.225l-2.186.803v-.984l3.106-1.166h.169V127zm4.752-4.793h.815c.512-.008.914-.143 1.207-.404.293-.262.439-.616.439-1.061 0-1-.498-1.5-1.494-1.5-.469 0-.844.135-1.125.404-.277.266-.416.62-.416 1.061h-1.084c0-.676.246-1.236.739-1.682.496-.449 1.125-.673 1.886-.673.805 0 1.436.212 1.893.638.457.426.685 1.018.685 1.776 0 .371-.121.73-.363 1.078a2.16 2.16 0 0 1-.978.779c.468.148.83.395 1.084.738.257.344.386.764.386 1.26 0 .766-.25 1.373-.75 1.822-.5.45-1.15.674-1.951.674-.801 0-1.453-.217-1.957-.65-.5-.434-.75-1.006-.75-1.717h1.09c0 .449.146.809.439 1.078.293.27.686.404 1.178.404.524 0 .924-.136 1.201-.41.278-.273.416-.666.416-1.177 0-.497-.152-.877-.457-1.143-.304-.266-.744-.402-1.318-.41h-.815v-.885z" fill="#172755"/><path fill="#fff" d="M0 149h66v52H0z"/><path d="M29.247 179h-1.09v-7.225l-2.185.803v-.984l3.106-1.166h.17V179zM37 176.135h1.184v.885H37V179h-1.09v-1.98h-3.884v-.639l3.82-5.912H37v5.666zm-3.744 0h2.655v-4.184l-.13.235-2.525 3.949z" fill="#172755"/><path fill="#fff" d="M66 149h66v52H66z"/><path d="M95.248 179h-1.09v-7.225l-2.186.803v-.984l3.106-1.166h.17V179zm3.673-4.277.434-4.254h4.371v1.002h-3.451l-.258 2.326a2.755 2.755 0 0 1 1.424-.369c.777 0 1.394.258 1.851.773.457.512.686 1.205.686 2.08 0 .879-.238 1.572-.715 2.08-.473.504-1.135.756-1.986.756-.754 0-1.37-.209-1.846-.627-.477-.418-.748-.996-.814-1.734h1.025c.066.488.24.857.522 1.107.281.246.652.369 1.113.369.504 0 .898-.171 1.183-.515.289-.344.434-.819.434-1.424 0-.57-.156-1.027-.469-1.371-.308-.348-.72-.522-1.236-.522-.473 0-.844.104-1.113.311l-.287.234-.868-.222z" fill="#172755"/><path fill="#fff" d="M132 149h66v52h-66z"/><path d="M161.247 179h-1.089v-7.225l-2.186.803v-.984l3.106-1.166h.169V179zm7.43-8.537v.92h-.199c-.844.015-1.516.265-2.016.75-.5.484-.789 1.166-.867 2.045.449-.516 1.063-.774 1.84-.774.742 0 1.334.262 1.775.785.446.524.668 1.2.668 2.028 0 .879-.24 1.582-.72 2.109-.477.527-1.118.791-1.922.791-.817 0-1.479-.312-1.987-.937-.507-.629-.761-1.438-.761-2.426v-.416c0-1.57.334-2.77 1.002-3.598.672-.832 1.67-1.258 2.994-1.277h.193zm-1.424 3.844c-.371 0-.713.111-1.025.334a1.735 1.735 0 0 0-.65.837v.399c0 .703.158 1.269.474 1.699.317.43.711.645 1.184.645.488 0 .871-.18 1.148-.539.281-.36.422-.83.422-1.412 0-.586-.142-1.059-.428-1.418a1.349 1.349 0 0 0-1.125-.545z" fill="#172755"/><path fill="#fff" d="M198 149h66v52h-66z"/><path d="M227.247 179h-1.089v-7.225l-2.186.803v-.984l3.106-1.166h.169V179zm8.684-7.922L232.398 179h-1.137l3.522-7.641h-4.618v-.89h5.766v.609z" fill="#172755"/><path fill="#fff" d="M264 149h66v52h-66z"/><circle cx="296.5" cy="174.5" r="19.5" fill="#EF2A82"/><path d="M293.247 179h-1.089v-7.225l-2.186.803v-.984l3.106-1.166h.169V179zm8.35-6.305c0 .426-.113.805-.34 1.137a2.26 2.26 0 0 1-.908.779c.445.192.797.471 1.055.838.261.367.392.783.392 1.248 0 .739-.25 1.326-.75 1.764-.496.437-1.15.656-1.963.656-.82 0-1.478-.219-1.974-.656-.492-.441-.738-1.029-.738-1.764 0-.461.125-.877.375-1.248a2.37 2.37 0 0 1 1.048-.844 2.231 2.231 0 0 1-.896-.779 2.007 2.007 0 0 1-.328-1.131c0-.718.23-1.289.691-1.711.461-.422 1.069-.632 1.822-.632.75 0 1.356.21 1.817.632.465.422.697.993.697 1.711zm-.885 3.979c0-.477-.152-.865-.457-1.166-.3-.301-.695-.451-1.183-.451-.489 0-.881.148-1.178.445-.293.297-.439.687-.439 1.172 0 .484.142.865.427 1.142.289.278.69.416 1.201.416.508 0 .907-.138 1.196-.416.289-.281.433-.662.433-1.142zm-1.629-5.432c-.425 0-.771.133-1.037.399-.261.261-.392.619-.392 1.072 0 .433.129.785.386 1.055.262.265.61.398 1.043.398.434 0 .78-.133 1.038-.398.261-.27.392-.622.392-1.055 0-.434-.135-.787-.404-1.061-.27-.273-.612-.41-1.026-.41z" fill="#EEEEF7"/><path fill="#fff" d="M330 149h66v52h-66z"/><path d="M359.247 179h-1.089v-7.225l-2.186.803v-.984l3.106-1.166h.169V179zm7.331-3.75c-.227.27-.498.486-.815.65a2.183 2.183 0 0 1-1.031.246c-.492 0-.922-.121-1.289-.363a2.373 2.373 0 0 1-.844-1.019 3.512 3.512 0 0 1-.299-1.459c0-.571.108-1.084.322-1.541.219-.457.528-.807.926-1.049.399-.242.864-.363 1.395-.363.844 0 1.508.316 1.992.949.488.629.732 1.488.732 2.578v.316c0 1.66-.328 2.873-.984 3.639-.656.762-1.646 1.152-2.971 1.172h-.211v-.914h.229c.894-.016 1.582-.248 2.062-.697.481-.454.743-1.168.786-2.145zm-1.67 0a1.66 1.66 0 0 0 1.002-.334c.308-.223.533-.498.673-.826v-.434c0-.711-.154-1.289-.462-1.734-.309-.445-.7-.668-1.172-.668-.477 0-.86.183-1.149.551-.289.363-.433.843-.433 1.441 0 .582.138 1.063.416 1.441.281.375.656.563 1.125.563z" fill="#172755"/><path fill="#fff" d="M396 149h66v52h-66z"/><path d="M427.275 179h-5.59v-.779l2.953-3.282c.438-.496.738-.898.902-1.207.168-.312.252-.634.252-.966 0-.446-.134-.811-.404-1.096-.269-.285-.629-.428-1.078-.428-.539 0-.959.154-1.26.463-.297.305-.445.731-.445 1.277h-1.084c0-.785.252-1.42.756-1.904.508-.484 1.185-.726 2.033-.726.793 0 1.42.209 1.881.626.461.415.691.967.691 1.659 0 .84-.535 1.84-1.605 3l-2.285 2.478h4.283V179zm6.498-3.639c0 1.27-.217 2.213-.651 2.83-.433.618-1.111.926-2.033.926-.91 0-1.584-.301-2.021-.902-.438-.606-.664-1.508-.68-2.707v-1.447c0-1.254.217-2.186.651-2.795.433-.61 1.113-.914 2.039-.914.918 0 1.593.294 2.027.884.434.586.656 1.492.668 2.719v1.406zm-1.084-1.482c0-.918-.129-1.586-.387-2.004-.258-.422-.666-.633-1.224-.633-.555 0-.959.209-1.213.627-.254.418-.385 1.061-.393 1.928v1.734c0 .922.133 1.604.399 2.045.269.438.675.656 1.218.656.535 0 .932-.207 1.19-.621.261-.414.398-1.066.41-1.957v-1.775z" fill="#172755"/><path fill="#fff" d="M0 201h66v52H0z"/><path d="M31.275 231h-5.59v-.779l2.953-3.282c.438-.496.738-.898.902-1.207.168-.312.252-.634.252-.966 0-.446-.134-.811-.404-1.096-.27-.285-.629-.428-1.078-.428-.54 0-.959.154-1.26.463-.297.305-.445.731-.445 1.277H25.52c0-.785.252-1.42.756-1.904.508-.484 1.185-.726 2.033-.726.793 0 1.42.209 1.88.626.462.415.692.967.692 1.659 0 .84-.535 1.84-1.605 3l-2.285 2.478h4.283V231zm4.71 0h-1.09v-7.225l-2.185.803v-.984l3.106-1.166h.17V231z" fill="#172755"/><path fill="#fff" d="M66 201h66v52H66z"/><path d="M97.275 231h-5.59v-.779l2.953-3.282c.438-.496.738-.898.902-1.207.168-.312.252-.634.252-.966 0-.446-.134-.811-.404-1.096-.27-.285-.629-.428-1.078-.428-.54 0-.959.154-1.26.463-.297.305-.445.731-.445 1.277H91.52c0-.785.252-1.42.756-1.904.508-.484 1.185-.726 2.033-.726.793 0 1.42.209 1.88.626.462.415.692.967.692 1.659 0 .84-.535 1.84-1.605 3l-2.285 2.478h4.283V231zm6.738 0h-5.59v-.779l2.953-3.282c.438-.496.739-.898.903-1.207.168-.312.252-.634.252-.966 0-.446-.135-.811-.405-1.096-.269-.285-.629-.428-1.078-.428-.539 0-.959.154-1.26.463-.296.305-.445.731-.445 1.277H98.26c0-.785.252-1.42.756-1.904.508-.484 1.186-.726 2.033-.726.793 0 1.42.209 1.881.626.461.415.692.967.692 1.659 0 .84-.536 1.84-1.606 3l-2.285 2.478h4.283V231z" fill="#172755"/><path fill="#fff" d="M132 201h66v52h-66z"/><path d="M163.275 231h-5.59v-.779l2.953-3.282c.438-.496.738-.898.902-1.207.168-.312.252-.634.252-.966 0-.446-.134-.811-.404-1.096-.269-.285-.629-.428-1.078-.428-.539 0-.959.154-1.26.463-.297.305-.445.731-.445 1.277h-1.084c0-.785.252-1.42.756-1.904.508-.484 1.185-.726 2.033-.726.793 0 1.42.209 1.881.626.461.415.691.967.691 1.659 0 .84-.535 1.84-1.605 3l-2.285 2.478h4.283V231zm2.724-4.793h.815c.512-.008.914-.143 1.207-.404.293-.262.439-.616.439-1.061 0-1-.498-1.5-1.494-1.5-.469 0-.844.135-1.125.404-.277.266-.416.62-.416 1.061h-1.084c0-.676.246-1.236.739-1.682.496-.449 1.125-.673 1.886-.673.805 0 1.436.212 1.893.638.457.426.685 1.018.685 1.776 0 .371-.121.73-.363 1.078a2.16 2.16 0 0 1-.978.779c.468.148.83.395 1.084.738.257.344.386.764.386 1.26 0 .766-.25 1.373-.75 1.822-.5.45-1.15.674-1.951.674-.801 0-1.453-.217-1.957-.65-.5-.434-.75-1.006-.75-1.717h1.09c0 .449.146.809.439 1.078.293.27.686.404 1.178.404.524 0 .924-.136 1.201-.41.278-.273.416-.666.416-1.177 0-.497-.152-.877-.457-1.143-.304-.266-.744-.402-1.318-.41h-.815v-.885z" fill="#172755"/><path fill="#fff" d="M198 201h66v52h-66z"/><path d="M229.275 231h-5.59v-.779l2.953-3.282c.438-.496.738-.898.902-1.207.168-.312.252-.634.252-.966 0-.446-.134-.811-.404-1.096-.269-.285-.629-.428-1.078-.428-.539 0-.959.154-1.26.463-.297.305-.445.731-.445 1.277h-1.084c0-.785.252-1.42.756-1.904.508-.484 1.185-.726 2.033-.726.793 0 1.42.209 1.881.626.461.415.691.967.691 1.659 0 .84-.535 1.84-1.605 3l-2.285 2.478h4.283V231zm5.724-2.865h1.184v.885h-1.184V231h-1.089v-1.98h-3.885v-.639l3.82-5.912h1.154v5.666zm-3.744 0h2.655v-4.184l-.129.235-2.526 3.949z" fill="#172755"/><path fill="#fff" d="M264 201h66v52h-66z"/><path d="M295.275 231h-5.59v-.779l2.953-3.282c.438-.496.738-.898.902-1.207.168-.312.252-.634.252-.966 0-.446-.134-.811-.404-1.096-.269-.285-.629-.428-1.078-.428-.539 0-.959.154-1.26.463-.297.305-.445.731-.445 1.277h-1.084c0-.785.252-1.42.756-1.904.508-.484 1.185-.726 2.033-.726.793 0 1.42.209 1.881.626.461.415.691.967.691 1.659 0 .84-.535 1.84-1.605 3l-2.285 2.478h4.283V231zm1.646-4.277.434-4.254h4.371v1.002h-3.451l-.258 2.326a2.755 2.755 0 0 1 1.424-.369c.777 0 1.394.258 1.851.773.457.512.686 1.205.686 2.08 0 .879-.238 1.572-.715 2.08-.473.504-1.135.756-1.986.756-.754 0-1.369-.209-1.846-.627-.476-.418-.748-.996-.814-1.734h1.025c.066.488.24.857.522 1.107.281.246.652.369 1.113.369.504 0 .898-.171 1.183-.515.289-.344.434-.819.434-1.424 0-.57-.156-1.027-.469-1.371-.308-.348-.72-.522-1.236-.522-.473 0-.844.104-1.113.311l-.287.234-.868-.222z" fill="#172755"/><path fill="#fff" d="M330 201h66v52h-66z"/><path d="M361.275 231h-5.59v-.779l2.953-3.282c.438-.496.738-.898.902-1.207.168-.312.252-.634.252-.966 0-.446-.134-.811-.404-1.096-.269-.285-.629-.428-1.078-.428-.539 0-.959.154-1.26.463-.297.305-.445.731-.445 1.277h-1.084c0-.785.252-1.42.756-1.904.508-.484 1.185-.726 2.033-.726.793 0 1.42.209 1.881.626.461.415.691.967.691 1.659 0 .84-.535 1.84-1.605 3l-2.285 2.478h4.283V231zm5.402-8.537v.92h-.199c-.844.015-1.516.265-2.016.75-.5.484-.789 1.166-.867 2.045.449-.516 1.063-.774 1.84-.774.742 0 1.334.262 1.775.785.446.524.668 1.2.668 2.028 0 .879-.24 1.582-.72 2.109-.477.527-1.118.791-1.922.791-.817 0-1.479-.312-1.987-.937-.507-.629-.761-1.438-.761-2.426v-.416c0-1.57.334-2.77 1.002-3.598.672-.832 1.67-1.258 2.994-1.277h.193zm-1.424 3.844c-.371 0-.713.111-1.025.334a1.735 1.735 0 0 0-.65.837v.399c0 .703.158 1.269.474 1.699.317.43.711.645 1.184.645.488 0 .871-.18 1.148-.539.281-.36.422-.83.422-1.412 0-.586-.142-1.059-.428-1.418a1.349 1.349 0 0 0-1.125-.545z" fill="#172755"/><path fill="#fff" d="M396 201h66v52h-66z"/><path d="M427.275 231h-5.59v-.779l2.953-3.282c.438-.496.738-.898.902-1.207.168-.312.252-.634.252-.966 0-.446-.134-.811-.404-1.096-.269-.285-.629-.428-1.078-.428-.539 0-.959.154-1.26.463-.297.305-.445.731-.445 1.277h-1.084c0-.785.252-1.42.756-1.904.508-.484 1.185-.726 2.033-.726.793 0 1.42.209 1.881.626.461.415.691.967.691 1.659 0 .84-.535 1.84-1.605 3l-2.285 2.478h4.283V231zm6.656-7.922L430.398 231h-1.137l3.522-7.641h-4.618v-.89h5.766v.609z" fill="#172755"/><path fill="#fff" d="M0 253h66v52H0z"/><path d="M31.275 283h-5.59v-.779l2.953-3.282c.438-.496.738-.898.902-1.207.168-.312.252-.634.252-.966 0-.446-.134-.811-.404-1.096-.27-.285-.629-.428-1.078-.428-.54 0-.959.154-1.26.463-.297.305-.445.731-.445 1.277H25.52c0-.785.252-1.42.756-1.904.508-.484 1.185-.726 2.033-.726.793 0 1.42.209 1.88.627.462.414.692.966.692 1.658 0 .84-.535 1.84-1.605 3l-2.285 2.478h4.283V283zm6.322-6.305c0 .426-.113.805-.34 1.137a2.267 2.267 0 0 1-.908.779 2.43 2.43 0 0 1 1.055.838c.261.367.392.783.392 1.248 0 .739-.25 1.326-.75 1.764-.496.437-1.15.656-1.963.656-.82 0-1.478-.219-1.974-.656-.492-.441-.739-1.029-.739-1.764 0-.461.126-.877.376-1.248a2.376 2.376 0 0 1 1.048-.844 2.231 2.231 0 0 1-.896-.779 2.009 2.009 0 0 1-.328-1.131c0-.718.23-1.289.691-1.711.461-.422 1.069-.632 1.822-.632.75 0 1.356.21 1.817.632.465.422.697.993.697 1.711zm-.885 3.979c0-.477-.152-.865-.457-1.166-.3-.301-.695-.451-1.183-.451-.489 0-.881.148-1.178.445-.293.297-.44.687-.44 1.172 0 .484.143.865.428 1.142.29.278.69.416 1.201.416.508 0 .907-.138 1.196-.416.289-.281.433-.662.433-1.142zm-1.629-5.432c-.425 0-.771.133-1.037.399-.261.261-.392.619-.392 1.072 0 .433.129.785.386 1.055.262.265.61.398 1.043.398.434 0 .78-.133 1.038-.398.261-.27.392-.622.392-1.055 0-.434-.135-.787-.404-1.061-.27-.273-.611-.41-1.026-.41z" fill="#172755"/><path fill="#fff" d="M66 253h66v52H66z"/><path d="M97.275 283h-5.59v-.779l2.953-3.282c.438-.496.738-.898.902-1.207.168-.312.252-.634.252-.966 0-.446-.134-.811-.404-1.096-.27-.285-.629-.428-1.078-.428-.54 0-.959.154-1.26.463-.297.305-.445.731-.445 1.277H91.52c0-.785.252-1.42.756-1.904.508-.484 1.185-.726 2.033-.726.793 0 1.42.209 1.88.627.462.414.692.966.692 1.658 0 .84-.535 1.84-1.605 3l-2.285 2.478h4.283V283zm5.303-3.75c-.227.27-.498.486-.815.65a2.183 2.183 0 0 1-1.031.246c-.492 0-.922-.121-1.29-.363a2.372 2.372 0 0 1-.843-1.019 3.507 3.507 0 0 1-.299-1.459c0-.571.108-1.084.323-1.541.218-.457.527-.807.925-1.049.399-.242.864-.363 1.395-.363.844 0 1.508.316 1.992.949.488.629.732 1.488.732 2.578v.316c0 1.66-.328 2.873-.984 3.639-.656.762-1.646 1.152-2.97 1.172H99.5v-.914h.229c.894-.016 1.582-.248 2.062-.697.481-.454.743-1.168.786-2.145zm-1.67 0a1.66 1.66 0 0 0 1.002-.334c.308-.223.533-.498.673-.826v-.434c0-.711-.154-1.289-.462-1.734-.309-.445-.7-.668-1.172-.668-.477 0-.86.184-1.149.551-.289.363-.433.843-.433 1.441 0 .582.138 1.063.416 1.442a1.34 1.34 0 0 0 1.125.562z" fill="#172755"/><path fill="#fff" d="M132 253h66v52h-66z"/><path d="M159.261 278.207h.815c.511-.008.914-.143 1.207-.404.293-.262.439-.615.439-1.061 0-1-.498-1.5-1.494-1.5-.469 0-.844.135-1.125.404-.277.266-.416.62-.416 1.061h-1.084c0-.676.246-1.236.738-1.682.496-.449 1.125-.673 1.887-.673.805 0 1.436.212 1.893.638.457.426.685 1.018.685 1.776 0 .371-.121.73-.363 1.078a2.162 2.162 0 0 1-.979.779c.469.148.83.395 1.084.738.258.344.387.764.387 1.26 0 .766-.25 1.373-.75 1.822-.5.45-1.15.674-1.951.674-.801 0-1.453-.217-1.957-.65-.5-.434-.75-1.006-.75-1.717h1.09c0 .449.146.809.439 1.078.293.27.686.404 1.178.404.523 0 .924-.136 1.201-.41.277-.273.416-.666.416-1.177 0-.497-.152-.877-.457-1.143-.305-.266-.744-.402-1.318-.41h-.815v-.885zm10.512 1.154c0 1.27-.217 2.213-.651 2.83-.433.618-1.111.926-2.033.926-.91 0-1.584-.301-2.021-.902-.438-.606-.664-1.508-.68-2.707v-1.447c0-1.254.217-2.186.651-2.795.433-.61 1.113-.914 2.039-.914.918 0 1.593.294 2.027.884.434.586.656 1.493.668 2.719v1.406zm-1.084-1.482c0-.918-.129-1.586-.387-2.004-.258-.422-.666-.633-1.224-.633-.555 0-.959.209-1.213.627-.254.418-.385 1.061-.393 1.928v1.734c0 .922.133 1.604.399 2.045.269.438.675.656 1.218.656.535 0 .932-.207 1.19-.621.261-.414.398-1.066.41-1.957v-1.775z" fill="#172755"/><path fill="#fff" d="M198 253h66v52h-66z"/><path d="M225.261 278.207h.815c.511-.008.914-.143 1.207-.404.293-.262.439-.615.439-1.061 0-1-.498-1.5-1.494-1.5-.469 0-.844.135-1.125.404-.277.266-.416.62-.416 1.061h-1.084c0-.676.246-1.236.738-1.682.496-.449 1.125-.673 1.887-.673.805 0 1.436.212 1.893.638.457.426.685 1.018.685 1.776 0 .371-.121.73-.363 1.078a2.162 2.162 0 0 1-.979.779c.469.148.83.395 1.084.738.258.344.387.764.387 1.26 0 .766-.25 1.373-.75 1.822-.5.45-1.15.674-1.951.674-.801 0-1.453-.217-1.957-.65-.5-.434-.75-1.006-.75-1.717h1.09c0 .449.146.809.439 1.078.293.27.686.404 1.178.404.523 0 .924-.136 1.201-.41.277-.273.416-.666.416-1.177 0-.497-.152-.877-.457-1.143-.305-.266-.744-.402-1.318-.41h-.815v-.885zm8.725 4.793h-1.09v-7.225l-2.186.803v-.984l3.106-1.166h.17V283z" fill="#172755"/><path fill="#fff" d="M264 253h66v52h-66zm66 0h66v52h-66zm66 0h66v52h-66z"/><path d="m19.803 4.469 2.789 6.96 2.789-6.96h1.459V13h-1.125V9.678l.105-3.586L23.02 13h-.862l-2.795-6.89.112 3.568V13H18.35V4.469h1.453zm15.586 4.54c0 .837-.141 1.567-.422 2.192-.282.621-.68 1.096-1.195 1.424-.516.328-1.118.492-1.805.492-.672 0-1.268-.164-1.787-.492-.52-.332-.924-.803-1.213-1.412-.285-.613-.432-1.322-.44-2.127V8.47c0-.82.143-1.545.428-2.174.285-.629.688-1.11 1.207-1.442.524-.335 1.121-.503 1.793-.503.684 0 1.285.166 1.805.498.523.328.925.806 1.207 1.435.281.625.422 1.354.422 2.186v.539zm-1.12-.55c0-1.012-.203-1.787-.609-2.326-.406-.543-.974-.815-1.705-.815-.71 0-1.271.272-1.682.815-.406.539-.615 1.289-.627 2.25v.627c0 .98.206 1.752.616 2.314.414.559.982.838 1.705.838.726 0 1.289-.264 1.687-.79.399-.532.604-1.292.615-2.28v-.633zM43.633 13h-1.131l-4.295-6.574V13h-1.13V4.469h1.13l4.307 6.603V4.47h1.119V13zm49.371-7.605h-2.742V13h-1.12V5.395h-2.736v-.926h6.598v.926zm7.271-.926v5.8c-.004.805-.257 1.463-.761 1.975-.5.512-1.18.799-2.04.861l-.298.012c-.934 0-1.678-.252-2.233-.756-.554-.504-.836-1.197-.843-2.08V4.47h1.113v5.777c0 .617.17 1.098.51 1.441.34.34.824.51 1.453.51.636 0 1.123-.17 1.459-.51.34-.34.51-.818.51-1.435V4.469h1.13zm6.598 4.588h-3.697v3.023h4.295V13h-5.42V4.469h5.361v.926h-4.236v2.742h3.697v.92zm46.283 1.253.164 1.125.241-1.013 1.687-5.953h.949l1.647 5.953.234 1.031.182-1.148 1.324-5.836h1.131L158.646 13h-1.025l-1.758-6.217-.134-.65-.135.65L153.771 13h-1.025l-2.062-8.531h1.125l1.347 5.841zm13.635-1.253h-3.697v3.023h4.295V13h-5.42V4.469h5.361v.926h-4.236v2.742h3.697v.92zM168.789 13V4.469h2.408c.742 0 1.399.164 1.969.492.57.328 1.01.795 1.318 1.4.313.606.471 1.301.475 2.086v.545c0 .805-.156 1.51-.469 2.115a3.251 3.251 0 0 1-1.33 1.395c-.574.324-1.244.49-2.01.498h-2.361zm1.125-7.605v6.685h1.184c.867 0 1.541-.27 2.021-.809.485-.539.727-1.306.727-2.302V8.47c0-.97-.229-1.721-.686-2.256-.453-.54-1.098-.813-1.933-.82h-1.313zm54.223 0h-2.742V13h-1.12V5.395h-2.736v-.926h6.598v.926zM231.959 13h-1.131V9.057h-4.301V13h-1.125V4.469h1.125v3.668h4.301V4.469h1.131V13zm8.004-8.531v5.8c-.004.805-.258 1.463-.762 1.975-.5.512-1.18.799-2.039.861l-.299.012c-.933 0-1.677-.252-2.232-.756-.555-.504-.836-1.197-.844-2.08V4.47h1.113v5.777c0 .617.17 1.098.51 1.441.34.34.824.51 1.453.51.637 0 1.123-.17 1.459-.51.34-.34.51-.818.51-1.435V4.469h1.131zm52.084 4.763h-3.58V13h-1.125V4.469h5.285v.926h-4.16v2.918h3.58v.92zm5.057.317H295.1V13h-1.131V4.469h2.824c.961 0 1.699.218 2.215.656.519.438.779 1.074.779 1.91 0 .531-.144.994-.433 1.389-.286.394-.684.69-1.196.885l2.004 3.62V13h-1.207l-1.851-3.451zm-2.004-.92h1.728c.559 0 1.002-.145 1.33-.434.332-.289.498-.675.498-1.16 0-.527-.158-.931-.474-1.213-.313-.281-.766-.424-1.36-.427H295.1v3.234zM302.576 13h-1.125V4.469h1.125V13zm51.252-3.803c-.965-.277-1.668-.617-2.109-1.02a1.966 1.966 0 0 1-.657-1.5c0-.671.268-1.226.803-1.663.539-.442 1.239-.662 2.098-.662.586 0 1.107.113 1.564.34.461.226.817.538 1.067.937.254.398.381.834.381 1.307h-1.131c0-.516-.164-.92-.492-1.213-.329-.297-.791-.446-1.389-.446-.555 0-.988.123-1.301.37-.308.242-.463.58-.463 1.013 0 .348.147.643.44.885.297.238.799.457 1.506.656.71.2 1.265.42 1.664.662.402.239.699.518.89.838.196.32.293.697.293 1.131 0 .691-.269 1.246-.808 1.664-.539.414-1.26.621-2.163.621a4.04 4.04 0 0 1-1.64-.334c-.508-.226-.901-.535-1.178-.926a2.266 2.266 0 0 1-.41-1.33h1.131c0 .516.189.924.568 1.225.383.297.893.445 1.529.445.594 0 1.049-.12 1.366-.363.316-.242.474-.572.474-.99 0-.418-.146-.74-.439-.967-.293-.23-.824-.457-1.594-.68zm9.322 1.576h-3.574L358.773 13h-1.16l3.258-8.531h.984L365.119 13h-1.154l-.815-2.227zm-3.234-.925h2.9l-1.453-3.99-1.447 3.99zM371.4 5.395h-2.742V13h-1.119V5.395h-2.736v-.926h6.597v.926zm47.373 3.802c-.964-.277-1.668-.617-2.109-1.02a1.968 1.968 0 0 1-.656-1.5c0-.671.267-1.226.803-1.663.539-.442 1.238-.662 2.097-.662.586 0 1.108.113 1.565.34.461.226.816.538 1.066.937.254.398.381.834.381 1.307h-1.131c0-.516-.164-.92-.492-1.213-.328-.297-.791-.446-1.389-.446-.554 0-.988.123-1.301.37-.308.242-.462.58-.462 1.013 0 .348.146.643.439.885.297.238.799.457 1.506.656.711.2 1.265.42 1.664.662.402.239.699.518.891.838.195.32.293.697.293 1.131 0 .691-.27 1.246-.809 1.664-.539.414-1.26.621-2.162.621a4.042 4.042 0 0 1-1.641-.334c-.508-.226-.9-.535-1.178-.926a2.266 2.266 0 0 1-.41-1.33h1.131c0 .516.19.924.569 1.225.382.297.892.445 1.529.445.594 0 1.049-.12 1.365-.363.316-.242.475-.572.475-.99 0-.418-.147-.74-.44-.967-.293-.23-.824-.457-1.594-.68zm10.618-4.728v5.8c-.004.805-.258 1.463-.762 1.975-.5.512-1.18.799-2.039.861l-.299.012c-.934 0-1.678-.252-2.232-.756-.555-.504-.836-1.197-.844-2.08V4.47h1.113v5.777c0 .617.17 1.098.51 1.441.34.34.824.51 1.453.51.637 0 1.123-.17 1.459-.51.34-.34.51-.818.51-1.435V4.469h1.131zM437.723 13h-1.131l-4.295-6.574V13h-1.131V4.469h1.131l4.307 6.603V4.47h1.119V13z" fill="#8794BA"/></svg><svg fill="currentColor" viewBox="0 0 61 60" id="computer" xmlns="http://www.w3.org/2000/svg"><g clip-path="url(#da)" fill="#EF2A82"><path d="M33.87 41h-6a1 1 0 0 0 0 2h6a1 1 0 0 0 0-2zm23-40H4.872A4.006 4.006 0 0 0 .87 5.001V38a1 1 0 0 0 1 1h58a1 1 0 0 0 1-1V5.001a4.006 4.006 0 0 0-4-4.001zm2 36h-56V5.001C2.87 3.897 3.77 3 4.873 3H56.87c1.103 0 2 .897 2 2.001V37z"/><path d="M59.87 37h-58a1 1 0 0 0-1 1v4.999a4.006 4.006 0 0 0 4.002 4H56.87a4.006 4.006 0 0 0 4-4V38a1 1 0 0 0-1-1zm-1 5.999a2.003 2.003 0 0 1-2 2.001H4.872a2.003 2.003 0 0 1-2.001-2.001V39h56v3.999z"/><path d="M55.87 5h-50a1 1 0 0 0-1 1v32a1 1 0 0 0 1 1h50a1 1 0 0 0 1-1V6a1 1 0 0 0-1-1zm-1 32h-48V7h48v30zm-11 16h-26c-1.653 0-3 1.346-3 3s1.347 3 3 3h26c1.655 0 3-1.346 3-3s-1.345-3-3-3zm0 4h-26a1.001 1.001 0 0 1 0-2h26a1.001 1.001 0 0 1 0 2z"/><path d="M41.87 53c-3.317 0-5-2.355-5-7a1 1 0 0 0-1-1h-10a1 1 0 0 0-1 1c0 4.645-1.681 7-5 7a1 1 0 0 0 0 2h22a1 1 0 0 0 0-2zm-17.128 0c1.23-1.364 1.956-3.395 2.101-6h8.055c.145 2.605.87 4.636 2.102 6H24.742zm23.913-22.536L46.24 28.05l1.343-1.343a1.001 1.001 0 0 0-.42-1.665l-10-3a.998.998 0 0 0-1.244 1.245l3 10a.999.999 0 0 0 1.665.42l1.414-1.415 2.413 2.415a.998.998 0 0 0 1.415 0l2.827-2.83a.999.999 0 0 0 0-1.413zm-3.535 2.122-2.198-2.199a1.304 1.304 0 0 0-1.846-.001l-.722.722-1.985-6.617 6.617 1.985-.774.774c-.214.214-.33.498-.33.8 0 .303.117.589.332.801l2.32 2.32-1.414 1.415zM42.87 9h-28a1 1 0 0 0-1 1v5a1 1 0 0 0 1 1h28a1 1 0 0 0 1-1v-5a1 1 0 0 0-1-1zm-1 5h-26v-3h26v3zm-15 6h-8a1 1 0 0 0-1 1v4a1 1 0 0 0 1 1h8a1 1 0 0 0 1-1v-4a1 1 0 0 0-1-1zm-1 4h-6v-2h6v2z"/><path d="M42.87 9h-28a1 1 0 0 0-1 1v19a1 1 0 0 0 1 1h23.807a1 1 0 0 0 .958-1.288l-1.266-4.221 4.215 1.265a.997.997 0 0 0 1.287-.958V10a1 1 0 0 0-1-1zm-1 14.454-4.706-1.412a.998.998 0 0 0-1.245 1.246L37.333 28H15.87V11h26v12.454z"/></g><defs><clipPath id="da"><path transform="translate(.87)" d="M0 0h60v60H0z"/></clipPath></defs></svg><svg fill="none" viewBox="0 0 277 60" id="logo" xmlns="http://www.w3.org/2000/svg"><path d="M54.763 13.06C49.357 5.172 40.282 0 30 0 13.431 0 0 13.431 0 30c0 2.41.284 4.755.821 7l15.277-15.277a3.75 3.75 0 0 1 5.304 0L33.75 34.072l21.013-21.013z" fill="#8794BA"/><path d="M58.328 20.1 36.402 42.027a3.75 3.75 0 0 1-5.304 0L18.75 29.678 3.801 44.627C8.933 53.799 18.742 60 30 60c16.569 0 30-13.431 30-30 0-3.469-.589-6.8-1.672-9.9zm35.885 17.484h-7.81L85.04 42h-6.09l8.67-23.639h5.358L101.713 42h-6.12l-1.38-4.416zm-6.446-4.4h5.082l-2.55-8.199-2.532 8.2zM123.193 42h-5.667l-8.377-14.71V42h-5.699V18.361h5.699l8.361 14.71V18.36h5.683V42zm17.323-4.416h-7.809L131.343 42h-6.088l8.669-23.639h5.358L148.016 42h-6.12l-1.38-4.416zm-6.446-4.4h5.082l-2.549-8.199-2.533 8.2zm21.382 4.433h9.92V42h-15.618V18.361h5.698v19.256zm16.43-8.995 4.352-10.26h6.153l-7.615 15.147V42h-5.779v-8.491l-7.599-15.148h6.121l4.367 10.261zm31.075-5.861h-7.095V42h-5.699V22.761h-6.965v-4.4h19.759v4.4zM211.448 42h-5.682V18.361h5.682V42zm23.087-8.004c-.076 1.645-.52 3.1-1.332 4.367-.811 1.256-1.953 2.23-3.425 2.923-1.461.692-3.134 1.039-5.017 1.039-3.106 0-5.553-1.012-7.338-3.036-1.786-2.024-2.679-4.882-2.679-8.573v-1.169c0-2.316.4-4.34 1.201-6.072.812-1.742 1.975-3.084 3.491-4.026 1.515-.952 3.269-1.429 5.26-1.429 2.868 0 5.174.758 6.916 2.273 1.743 1.505 2.733 3.583 2.971 6.235h-5.682c-.043-1.44-.406-2.473-1.088-3.101-.682-.628-1.721-.942-3.117-.942-1.418 0-2.457.53-3.117 1.591-.66 1.06-1.007 2.755-1.039 5.082v1.672c0 2.522.314 4.324.941 5.407.639 1.082 1.732 1.623 3.28 1.623 1.31 0 2.311-.309 3.004-.925.692-.617 1.06-1.597 1.104-2.939h5.666zm14.887 1.721c0-.834-.297-1.483-.892-1.948-.585-.466-1.619-.947-3.101-1.445-1.483-.498-2.695-.98-3.637-1.445-3.063-1.505-4.595-3.572-4.595-6.202 0-1.31.379-2.462 1.137-3.458.768-1.007 1.851-1.786 3.247-2.338 1.396-.563 2.965-.844 4.708-.844 1.699 0 3.22.303 4.562.909 1.353.606 2.403 1.472 3.15 2.598.747 1.114 1.12 2.392 1.12 3.831h-5.682c0-.963-.298-1.71-.893-2.24-.585-.53-1.38-.796-2.387-.796-1.017 0-1.824.227-2.419.682-.584.444-.877 1.012-.877 1.705 0 .606.325 1.158.975 1.656.649.487 1.791.995 3.425 1.526 1.635.52 2.977 1.082 4.027 1.688 2.554 1.472 3.831 3.502 3.831 6.088 0 2.068-.779 3.691-2.338 4.871-1.558 1.18-3.696 1.77-6.413 1.77-1.916 0-3.653-.341-5.211-1.023-1.548-.693-2.717-1.635-3.507-2.825-.779-1.201-1.169-2.581-1.169-4.14h5.715c0 1.266.324 2.202.974 2.809.66.595 1.726.893 3.198.893.942 0 1.683-.2 2.224-.601.552-.411.828-.985.828-1.721z" fill="#8794BA"/></svg><svg fill="none" viewBox="0 0 277 60" id="logo-header" xmlns="http://www.w3.org/2000/svg"><path d="M54.763 13.06C49.357 5.172 40.282 0 30 0 13.431 0 0 13.431 0 30c0 2.41.284 4.755.821 7l15.277-15.277a3.75 3.75 0 0 1 5.304 0L33.75 34.072l21.013-21.013z" fill="#EF2A82"/><path d="M58.328 20.1 36.402 42.027a3.75 3.75 0 0 1-5.304 0L18.75 29.678 3.801 44.627C8.933 53.799 18.742 60 30 60c16.569 0 30-13.431 30-30 0-3.469-.589-6.8-1.672-9.9z" fill="#EF2A82"/><path d="M94.213 37.584h-7.81L85.04 42h-6.09l8.67-23.639h5.358L101.713 42h-6.12l-1.38-4.416zm-6.446-4.4h5.082l-2.55-8.199-2.532 8.2zM123.193 42h-5.667l-8.377-14.71V42h-5.699V18.361h5.699l8.361 14.71V18.36h5.683V42zm17.323-4.416h-7.809L131.343 42h-6.088l8.669-23.639h5.358L148.016 42h-6.12l-1.38-4.416zm-6.446-4.4h5.082l-2.549-8.199-2.533 8.2zm21.382 4.433h9.92V42h-15.618V18.361h5.698v19.256zm16.43-8.995 4.352-10.26h6.153l-7.615 15.147V42h-5.779v-8.491l-7.599-15.148h6.121l4.367 10.261zm31.075-5.861h-7.095V42h-5.699V22.761h-6.965v-4.4h19.759v4.4zM211.448 42h-5.682V18.361h5.682V42zm23.087-8.004c-.076 1.645-.52 3.1-1.332 4.367-.811 1.256-1.953 2.23-3.425 2.923-1.461.692-3.134 1.039-5.017 1.039-3.106 0-5.553-1.012-7.338-3.036-1.786-2.024-2.679-4.882-2.679-8.573v-1.169c0-2.316.4-4.34 1.201-6.072.812-1.742 1.975-3.084 3.491-4.026 1.515-.952 3.269-1.429 5.26-1.429 2.868 0 5.174.758 6.916 2.273 1.743 1.505 2.733 3.583 2.971 6.235h-5.682c-.043-1.44-.406-2.473-1.088-3.101-.682-.628-1.721-.942-3.117-.942-1.418 0-2.457.53-3.117 1.591-.66 1.06-1.007 2.755-1.039 5.082v1.672c0 2.522.314 4.324.941 5.407.639 1.082 1.732 1.623 3.28 1.623 1.31 0 2.311-.309 3.004-.925.692-.617 1.06-1.597 1.104-2.939h5.666zm14.887 1.721c0-.834-.297-1.483-.892-1.948-.585-.466-1.619-.947-3.101-1.445-1.483-.498-2.695-.98-3.637-1.445-3.063-1.505-4.595-3.572-4.595-6.202 0-1.31.379-2.462 1.137-3.458.768-1.007 1.851-1.786 3.247-2.338 1.396-.563 2.965-.844 4.708-.844 1.699 0 3.22.303 4.562.909 1.353.606 2.403 1.472 3.15 2.598.747 1.114 1.12 2.392 1.12 3.831h-5.682c0-.963-.298-1.71-.893-2.24-.585-.53-1.38-.796-2.387-.796-1.017 0-1.824.227-2.419.682-.584.444-.877 1.012-.877 1.705 0 .606.325 1.158.975 1.656.649.487 1.791.995 3.425 1.526 1.635.52 2.977 1.082 4.027 1.688 2.554 1.472 3.831 3.502 3.831 6.088 0 2.068-.779 3.691-2.338 4.871-1.558 1.18-3.696 1.77-6.413 1.77-1.916 0-3.653-.341-5.211-1.023-1.548-.693-2.717-1.635-3.507-2.825-.779-1.201-1.169-2.581-1.169-4.14h5.715c0 1.266.324 2.202.974 2.809.66.595 1.726.893 3.198.893.942 0 1.683-.2 2.224-.601.552-.411.828-.985.828-1.721z" fill="#fff"/></svg><svg fill="currentColor" viewBox="0 0 61 60" id="planning" xmlns="http://www.w3.org/2000/svg"><g clip-path="url(#ga)" fill="#EF2A82"><path d="M48.118 6.71a28.709 28.709 0 0 0-17.207-5.675c-5.693 0-11.349 1.638-15.558 4.45v-4.45a1.035 1.035 0 0 0-2.069 0v6.507a1.033 1.033 0 0 0 1.696.796c3.945-3.277 9.9-5.235 15.93-5.235a26.66 26.66 0 0 1 15.977 5.271 1.032 1.032 0 0 0 1.447-.216c.34-.46.244-1.107-.216-1.447zm11.718 5.704h-6.508a1.033 1.033 0 0 0-.794 1.697c3.277 3.944 5.234 9.9 5.234 15.93 0 5.797-1.822 11.32-5.27 15.976a1.034 1.034 0 1 0 1.662 1.231 28.71 28.71 0 0 0 5.676-17.208c0-5.692-1.639-11.349-4.45-15.557h4.45a1.035 1.035 0 0 0 0-2.07zM47.863 51.522a1.034 1.034 0 0 0-1.1.141c-3.946 3.277-9.902 5.235-15.932 5.235a26.655 26.655 0 0 1-15.976-5.271 1.034 1.034 0 1 0-1.232 1.662 28.71 28.71 0 0 0 17.207 5.677c5.693 0 11.349-1.639 15.558-4.45v4.45a1.035 1.035 0 0 0 2.069 0v-6.508c0-.402-.232-.767-.594-.936zM9.209 45.89c-3.278-3.945-5.235-9.9-5.235-15.93a26.66 26.66 0 0 1 5.27-15.976 1.034 1.034 0 1 0-1.663-1.232A28.71 28.71 0 0 0 1.905 29.96c0 5.692 1.639 11.348 4.45 15.557h-4.45a1.035 1.035 0 0 0 0 2.07h6.508a1.034 1.034 0 0 0 .796-1.696zm22.696-26.237a1.034 1.034 0 0 0-1.034-1.032h-.002a1.034 1.034 0 0 0-1.033 1.036l.025 10.345a1.034 1.034 0 0 0 1.034 1.032h.003a1.034 1.034 0 0 0 1.032-1.036l-.025-10.345z"/><path d="M30.895 28.965h-6.231a1.035 1.035 0 0 0 0 2.07h6.231a1.035 1.035 0 0 0 0-2.07z"/><path d="M30.87 8.276C18.893 8.276 9.147 18.02 9.147 30s9.746 21.724 21.725 21.724c11.979 0 21.724-9.745 21.724-21.724 0-11.98-9.745-21.724-21.724-21.724zm0 41.38c-10.838 0-19.655-8.818-19.655-19.656s8.817-19.655 19.656-19.655c10.838 0 19.655 8.817 19.655 19.655 0 10.838-8.817 19.655-19.655 19.655z"/><path d="M16.388 28.965h-2.069a1.035 1.035 0 0 0 0 2.07h2.069a1.035 1.035 0 0 0 0-2.07zm31.034 0h-2.069a1.035 1.035 0 0 0 0 2.07h2.07a1.035 1.035 0 0 0 0-2.07zM30.87 43.448c-.57 0-1.034.464-1.034 1.035v2.069a1.035 1.035 0 0 0 2.07 0v-2.07c0-.57-.464-1.034-1.035-1.034zm0-31.034c-.57 0-1.034.463-1.034 1.034v2.07a1.035 1.035 0 0 0 2.07 0v-2.07c0-.57-.464-1.034-1.035-1.034zm-9.613 27.2a1.033 1.033 0 0 0-1.463 0l-1.359 1.358a1.035 1.035 0 0 0 1.463 1.462l1.36-1.358a1.035 1.035 0 0 0 0-1.462zm22.048-22.048a1.033 1.033 0 0 0-1.463 0l-1.358 1.358a1.033 1.033 0 1 0 1.463 1.463l1.358-1.359a1.033 1.033 0 0 0 0-1.462zm0 23.406-1.358-1.359a1.033 1.033 0 1 0-1.463 1.463l1.358 1.358a1.032 1.032 0 0 0 1.463 0 1.033 1.033 0 0 0 0-1.462zM21.257 18.924l-1.36-1.358a1.033 1.033 0 1 0-1.462 1.462l1.36 1.359a1.032 1.032 0 0 0 1.462 0 1.033 1.033 0 0 0 0-1.463z"/></g><defs><clipPath id="ga"><path transform="translate(.87)" d="M0 0h60v60H0z"/></clipPath></defs></svg><svg fill="currentColor" viewBox="0 0 61 60" id="speed" xmlns="http://www.w3.org/2000/svg"><g clip-path="url(#ha)" fill="#EF2A82"><path d="M19.934 23.391a.998.998 0 0 0-.824-.543l-8.412-.56a.982.982 0 0 0-.998.632l-6.065 15.5a.999.999 0 0 0 1.531 1.164l5.034-3.775 2.93.586a1 1 0 0 0 1.13-.624c1.575-4.122 3.47-7.956 5.63-11.393a1 1 0 0 0 .044-.986zM12.7 34.268l-2.546-.509a1.007 1.007 0 0 0-.796.181l-2.579 1.934 4.517-11.543 6.037.402c-1.74 2.945-3.293 6.142-4.633 9.535zm25.884 15.906-.561-8.413a1.001 1.001 0 0 0-1.53-.781c-3.438 2.16-7.27 4.055-11.393 5.63a.998.998 0 0 0-.624 1.129l.586 2.93-3.775 5.033a1 1 0 0 0 1.165 1.534l15.499-6.064a1 1 0 0 0 .633-.998zm-13.588 3.917 1.933-2.579a1 1 0 0 0 .18-.796l-.509-2.545a67.635 67.635 0 0 0 9.536-4.633l.403 6.036-11.543 4.517zM29.868 30h-6.737c-.363 0-.697.198-.874.515l-8.456 15.194a1 1 0 0 0 1.39 1.341l15.195-9.195a1 1 0 0 0 .482-.855v-6a1 1 0 0 0-1-1zm-1 6.437L17.382 43.39 23.718 32h5.15v4.436z"/><path d="M60.82.964a1.001 1.001 0 0 0-.914-.914c-.332-.026-33.26-2.325-47.513 35.006a1 1 0 0 0 .227 1.064l4.755 4.755c.223.223.535.325.848.283.31-.045.582-.233.735-.508L23.72 32h5.148v4.45l-8.702 5.493a1.003 1.003 0 0 0-.173 1.553l4.755 4.754a.999.999 0 0 0 1.064.227C63.146 34.223 60.848 1.295 60.82.964zm-5.245 17.74c-3.51 8.682-11.539 20.484-29.872 27.672l-3.41-3.41 8.11-5.119c.29-.184.465-.503.465-.846v-6a1 1 0 0 0-1-1H23.13a1 1 0 0 0-.876.518l-4.407 8.002-3.352-3.354C27.006 3.247 53.676 1.942 58.86 2.015c.037 2.332-.177 8.997-3.285 16.69zM18 44.164a.997.997 0 0 0-.903-.392 1 1 0 0 0-.392-.901c-1.507-1.14-3.453-1.52-5.34-1.041a6.726 6.726 0 0 0-4.493 3.75L.961 58.584a.998.998 0 0 0 1.324 1.324l13.006-5.912a6.723 6.723 0 0 0 3.748-4.492c.48-1.885.1-3.832-1.04-5.34zm-.899 4.85a4.737 4.737 0 0 1-2.637 3.163l-10.58 4.809 4.809-10.58a4.734 4.734 0 0 1 4.276-2.779c.623 0 1.232.134 1.787.392l-.952 1.685a1 1 0 0 0 1.362 1.363l1.685-.953c.41.882.503 1.901.25 2.9z"/><path d="M60.82.965a1.001 1.001 0 0 0-.914-.914c-.39-.031-9.66-.733-20.56 4.289a1 1 0 0 0-.29 1.614l15.86 15.86a1 1 0 0 0 1.615-.289c5.023-10.901 4.321-20.171 4.29-20.56zm-5.522 18.401L41.504 5.571c7.98-3.368 14.968-3.6 17.357-3.56.04 2.39-.185 9.357-3.563 17.355zm-10.267-3.527c-3.363-3.363-8.833-3.363-12.196 0-3.363 3.362-3.363 8.833 0 12.196a8.594 8.594 0 0 0 6.098 2.522 8.6 8.6 0 0 0 6.098-2.522c3.363-3.363 3.363-8.834 0-12.196zM43.617 26.62a6.632 6.632 0 0 1-9.368 0 6.632 6.632 0 0 1 0-9.368 6.605 6.605 0 0 1 4.684-1.937c1.696 0 3.392.646 4.684 1.937a6.632 6.632 0 0 1 0 9.368z"/><path d="M40.92 23.925a2.813 2.813 0 0 1-3.976 0 2.816 2.816 0 0 1 0-3.977 2.815 2.815 0 0 1 3.977 0 .999.999 0 1 0 1.413-1.414 4.817 4.817 0 0 0-6.804 0 4.817 4.817 0 0 0 0 6.805 4.798 4.798 0 0 0 3.403 1.407 4.792 4.792 0 0 0 3.401-1.407.999.999 0 1 0-1.413-1.414z"/></g><defs><clipPath id="ha"><path transform="translate(.87)" d="M0 0h60v60H0z"/></clipPath></defs></svg></svg>