<svg width="484" height="271" fill="none" xmlns="http://www.w3.org/2000/svg"><path fill="#EEEEF7" d="M42 0h1v271h-1zm63 0h1v271h-1zm63 0h1v271h-1zm63 0h1v271h-1zm63 0h1v271h-1zm63 0h1v271h-1zm63 0h1v271h-1zm63 0h1v271h-1z"/><path d="M1.938 20.723l.433-4.254h4.371v1.002H3.291l-.258 2.326c.418-.246.893-.37 1.424-.37.777 0 1.395.259 1.852.774.457.512.685 1.205.685 2.08 0 .88-.238 1.573-.715 2.08-.472.504-1.134.756-1.986.756-.754 0-1.37-.209-1.846-.627-.476-.418-.748-.996-.814-1.734h1.025c.067.488.24.857.522 1.107.28.246.652.37 1.113.37.504 0 .898-.172 1.184-.516.289-.344.433-.819.433-1.424 0-.57-.156-1.027-.469-1.371-.308-.348-.72-.522-1.236-.522-.473 0-.844.104-1.113.31l-.287.235-.868-.222zm10.816 1.412h1.184v.884h-1.184V25h-1.09v-1.98H7.78v-.64l3.82-5.911h1.155v5.666zm-3.744 0h2.654V17.95l-.129.235-2.525 3.949zm8.273-.317h-2.86v-.884h2.86v.884zm5.203-5.355v.92h-.199c-.844.015-1.515.265-2.015.75-.5.484-.79 1.166-.868 2.045.45-.516 1.063-.774 1.84-.774.742 0 1.334.262 1.776.785.445.524.668 1.2.668 2.028 0 .879-.24 1.582-.721 2.11-.477.526-1.117.79-1.922.79-.817 0-1.479-.312-1.986-.937-.508-.63-.762-1.438-.762-2.426v-.416c0-1.57.334-2.77 1.002-3.598.672-.832 1.67-1.258 2.994-1.277h.193zm-1.424 3.844a1.73 1.73 0 00-1.025.334 1.74 1.74 0 00-.65.838v.398c0 .703.158 1.27.474 1.7.317.429.711.644 1.184.644.488 0 .871-.18 1.148-.54.282-.359.422-.83.422-1.412 0-.585-.142-1.058-.427-1.417a1.351 1.351 0 00-1.125-.545zm4.407.416l.433-4.254h4.371v1.002h-3.45l-.259 2.326c.418-.246.893-.37 1.424-.37.778 0 1.395.259 1.852.774.457.512.685 1.205.685 2.08 0 .88-.238 1.573-.714 2.08-.473.504-1.135.756-1.987.756-.754 0-1.369-.209-1.846-.627-.476-.418-.748-.996-.814-1.734h1.025c.067.488.24.857.522 1.107.281.246.652.37 1.113.37.504 0 .899-.172 1.184-.516.289-.344.433-.819.433-1.424 0-.57-.156-1.027-.468-1.371-.309-.348-.721-.522-1.237-.522-.472 0-.843.104-1.113.31l-.287.235-.867-.222zM6.016 78.135h1.183v.884H6.016V81h-1.09v-1.98H1.04v-.64l3.82-5.911h1.155v5.666zm-3.745 0h2.655V73.95l-.13.235-2.525 3.949zm6.405-1.412l.433-4.254h4.371v1.002h-3.45l-.259 2.326c.418-.246.893-.37 1.424-.37.778 0 1.395.258 1.852.774.457.512.685 1.205.685 2.08 0 .88-.238 1.572-.714 2.08-.473.504-1.135.756-1.987.756-.754 0-1.369-.209-1.845-.627-.477-.418-.748-.996-.815-1.734h1.025c.067.488.24.857.522 1.107.281.246.652.37 1.113.37.504 0 .899-.172 1.184-.516.289-.344.433-.819.433-1.424 0-.57-.156-1.027-.468-1.371-.309-.348-.721-.522-1.237-.522-.472 0-.843.104-1.113.31l-.287.235-.867-.222zm8.607 1.095h-2.86v-.884h2.86v.884zm1.447-1.095l.434-4.254h4.371v1.002h-3.451l-.258 2.326c.418-.246.893-.37 1.424-.37.777 0 1.395.258 1.852.774.457.512.685 1.205.685 2.08 0 .88-.238 1.572-.715 2.08-.472.504-1.134.756-1.986.756-.754 0-1.37-.209-1.846-.627-.476-.418-.748-.996-.814-1.734h1.025c.067.488.24.857.522 1.107.28.246.652.37 1.113.37.504 0 .898-.172 1.184-.516.289-.344.433-.819.433-1.424 0-.57-.156-1.027-.469-1.371-.308-.348-.72-.522-1.236-.522-.473 0-.844.104-1.113.31l-.287.235-.867-.222zm10.817 1.412h1.183v.884h-1.183V81h-1.09v-1.98h-3.885v-.64l3.82-5.911h1.155v5.666zm-3.744 0h2.654V73.95l-.129.235-2.525 3.949zM3.016 132.207h.814c.512-.008.914-.143 1.207-.404.293-.262.44-.615.44-1.061 0-1-.498-1.5-1.495-1.5-.468 0-.843.135-1.125.404-.277.266-.416.62-.416 1.061H1.357c0-.676.247-1.236.739-1.682.496-.449 1.125-.673 1.886-.673.805 0 1.436.212 1.893.638.457.426.686 1.018.686 1.776 0 .371-.122.73-.364 1.078a2.162 2.162 0 01-.978.779c.468.148.83.395 1.084.738.258.344.386.764.386 1.26 0 .766-.25 1.373-.75 1.822-.5.45-1.15.674-1.95.674-.801 0-1.454-.217-1.958-.65-.5-.434-.75-1.006-.75-1.717h1.09c0 .449.147.809.44 1.078.293.27.685.404 1.177.404.524 0 .924-.136 1.201-.41.278-.273.416-.666.416-1.177 0-.497-.152-.877-.457-1.143-.304-.266-.744-.402-1.318-.41h-.814v-.885zm5.66.516l.433-4.254h4.371v1.002h-3.45l-.259 2.326a2.754 2.754 0 011.424-.369c.778 0 1.395.258 1.852.773.457.512.685 1.205.685 2.08 0 .879-.238 1.573-.714 2.08-.473.504-1.135.756-1.987.756-.754 0-1.369-.209-1.845-.627-.477-.418-.748-.996-.815-1.734h1.025c.067.488.24.857.522 1.107.281.246.652.369 1.113.369.504 0 .899-.171 1.184-.515.289-.344.433-.819.433-1.424 0-.57-.156-1.027-.468-1.371-.309-.348-.721-.522-1.237-.522-.472 0-.843.104-1.113.311l-.287.234-.867-.222zm8.607 1.095h-2.86v-.884h2.86v.884zm5.526.317h1.183v.885H22.81V137h-1.09v-1.98h-3.885v-.639l3.82-5.912h1.155v5.666zm-3.745 0h2.655v-4.184l-.13.235-2.524 3.949zm10.483 0h1.183v.885h-1.183V137h-1.09v-1.98h-3.885v-.639l3.82-5.912h1.155v5.666zm-3.744 0h2.654v-4.184l-.129.235-2.525 3.949zM7.03 193H1.44v-.779l2.953-3.282c.437-.496.738-.898.902-1.207.168-.312.252-.634.252-.966 0-.446-.135-.811-.404-1.096-.27-.285-.63-.428-1.079-.428-.539 0-.959.154-1.26.463-.296.305-.445.731-.445 1.277H1.275c0-.785.252-1.42.756-1.904.508-.484 1.186-.726 2.033-.726.793 0 1.42.209 1.881.627.461.414.692.966.692 1.658 0 .84-.535 1.84-1.606 3l-2.285 2.478H7.03V193zm1.646-4.277l.433-4.254h4.371v1.002h-3.45l-.259 2.326a2.754 2.754 0 011.424-.369c.778 0 1.395.258 1.852.773.457.512.685 1.205.685 2.08 0 .879-.238 1.573-.714 2.08-.473.504-1.135.756-1.987.756-.754 0-1.369-.209-1.845-.627-.477-.418-.748-.996-.815-1.734h1.025c.067.488.24.857.522 1.107.281.246.652.369 1.113.369.504 0 .899-.171 1.184-.515.289-.344.433-.819.433-1.424 0-.57-.156-1.027-.468-1.371-.309-.348-.721-.522-1.237-.522-.472 0-.843.104-1.113.311l-.287.234-.867-.222zm8.607 1.095h-2.86v-.884h2.86v.884zm2.526-1.611h.814c.512-.008.914-.143 1.207-.404.293-.262.44-.615.44-1.061 0-1-.498-1.5-1.495-1.5-.468 0-.843.135-1.125.404-.277.266-.416.62-.416 1.061H18.15c0-.676.247-1.236.739-1.682.496-.449 1.125-.673 1.886-.673.805 0 1.436.212 1.893.638.457.426.686 1.018.686 1.776 0 .371-.122.73-.364 1.078a2.161 2.161 0 01-.978.779c.468.148.83.395 1.084.738.258.344.386.764.386 1.26 0 .766-.25 1.373-.75 1.822-.5.45-1.15.674-1.95.674-.802 0-1.454-.217-1.958-.65-.5-.434-.75-1.006-.75-1.717h1.09c0 .449.146.809.44 1.078.293.27.685.404 1.177.404.524 0 .924-.136 1.201-.41.278-.273.416-.666.416-1.177 0-.497-.152-.877-.457-1.143-.304-.266-.744-.402-1.318-.41h-.814v-.885zm9.738 1.928h1.183v.885h-1.183V193h-1.09v-1.98h-3.885v-.639l3.82-5.912h1.155v5.666zm-3.744 0h2.654v-4.184l-.129.235-2.525 3.949zM5.002 249h-1.09v-7.225l-2.185.803v-.984l3.105-1.166h.17V249zm8.35-6.305c0 .426-.114.805-.34 1.137a2.266 2.266 0 01-.909.779 2.43 2.43 0 011.055.838c.262.367.393.783.393 1.248 0 .739-.25 1.326-.75 1.764-.496.437-1.15.656-1.963.656-.82 0-1.479-.219-1.975-.656-.492-.441-.738-1.029-.738-1.764 0-.461.125-.877.375-1.248a2.376 2.376 0 011.049-.844 2.232 2.232 0 01-.897-.779 2.01 2.01 0 01-.328-1.131c0-.718.23-1.289.692-1.711.46-.422 1.068-.632 1.822-.632.75 0 1.355.21 1.816.632.465.422.698.993.698 1.711zm-.885 3.979c0-.477-.152-.865-.457-1.166-.301-.301-.695-.451-1.184-.451-.488 0-.88.148-1.178.445-.293.297-.439.687-.439 1.172 0 .484.143.865.428 1.142.289.278.69.416 1.2.416.509 0 .907-.138 1.196-.416.29-.281.434-.662.434-1.142zm-1.63-5.432c-.425 0-.77.133-1.036.399-.262.261-.393.619-.393 1.072 0 .433.13.785.387 1.055.262.265.61.398 1.043.398.434 0 .78-.133 1.037-.398.262-.27.393-.622.393-1.055 0-.434-.135-.787-.405-1.061-.27-.273-.611-.41-1.025-.41zm6.446 4.576h-2.86v-.884h2.86v.884zm6.54 3.182h-5.59v-.779l2.953-3.282c.437-.496.738-.898.902-1.207.168-.312.252-.634.252-.966 0-.446-.135-.811-.404-1.096-.27-.285-.63-.428-1.079-.428-.539 0-.959.154-1.26.463-.296.305-.445.731-.445 1.277h-1.084c0-.785.252-1.42.756-1.904.508-.484 1.186-.726 2.033-.726.793 0 1.42.209 1.881.627.461.414.692.966.692 1.658 0 .84-.535 1.84-1.606 3l-2.285 2.478h4.283V249zm5.724-2.865h1.183v.885h-1.183V249h-1.09v-1.98h-3.885v-.639l3.82-5.912h1.155v5.666zm-3.744 0h2.654v-4.184l-.129.235-2.525 3.949z" fill="#8794BA"/><path d="M42 7h256.5a5.5 5.5 0 110 11H42V7zm0 57h169.5a5.5 5.5 0 110 11H42V64zm0 57h10.5a5.5 5.5 0 110 11H42v-11zm0 57h42.5a5.5 5.5 0 110 11H42v-11zm0 57h202.5a5.5 5.5 0 110 11H42v-11z" fill="#EF2A82"/><path d="M42 21h142.5a5.5 5.5 0 110 11H42V21zm0 57h202.5a5.5 5.5 0 110 11H42V78zm0 57h42.5a5.5 5.5 0 110 11H42v-11zm0 57h333.5a5.5 5.5 0 110 11H42v-11zm0 57h390.5a5.5 5.5 0 110 11H42v-11z" fill="#0088F0"/></svg>