<svg width="464" height="311" fill="none" xmlns="http://www.w3.org/2000/svg"><path d="M47.015 89.077L156 26.155l108.985 62.922v125.846L156 277.845 47.015 214.923V89.077z" stroke="#EEEEF7" stroke-width="2"/><path d="M85.12 111.077L156 70.155l70.88 40.922v81.846L156 233.845l-70.88-40.922v-81.846z" stroke="#EEEEF7" stroke-width="2"/><path d="M98.413 119.015l57.95-47.723 81.717 32.102 5.851 98.009-87.585 52.065-64.27-67.19 6.337-67.263z" stroke="#0088F0" stroke-width="4"/><path d="M72.521 104.392l82.841-45.755 45.878 68.329L231.442 196h-75.168l-52.484-14.662-31.269-76.946z" stroke="#EF2A82" stroke-width="4"/><path d="M131.885 138.077L156 124.155l24.115 13.922v27.846L156 179.845l-24.115-13.922v-27.846z" stroke="#EEEEF7" stroke-width="2"/><path d="M396.508 85.252h2.676c1.682-.026 3.004-.469 3.966-1.329.963-.86 1.444-2.021 1.444-3.484 0-3.286-1.636-4.929-4.909-4.929-1.54 0-2.772.443-3.696 1.328-.912.873-1.367 2.035-1.367 3.485h-3.562c0-2.22.809-4.062 2.426-5.525 1.63-1.476 3.696-2.214 6.199-2.214 2.644 0 4.717.7 6.218 2.098 1.502 1.4 2.253 3.344 2.253 5.834 0 1.219-.398 2.4-1.194 3.542-.783 1.142-1.854 1.996-3.215 2.56 1.54.488 2.728 1.297 3.562 2.426.847 1.13 1.271 2.51 1.271 4.14 0 2.515-.822 4.511-2.465 5.987-1.643 1.476-3.78 2.214-6.411 2.214s-4.774-.712-6.43-2.137c-1.643-1.425-2.464-3.305-2.464-5.64h3.581c0 1.475.481 2.656 1.444 3.542.962.885 2.252 1.328 3.869 1.328 1.72 0 3.036-.45 3.947-1.348.911-.898 1.367-2.188 1.367-3.87 0-1.63-.501-2.88-1.502-3.754-1.001-.872-2.445-1.322-4.332-1.347h-2.676v-2.907zm31.998 6.334h3.889v2.907h-3.889V101h-3.581v-6.507H412.16v-2.099l12.553-19.425h3.793v18.617zm-12.303 0h8.722V77.84l-.424.77-8.298 12.976zm19.099-13.227c0-1.681.532-3.067 1.598-4.158 1.078-1.091 2.457-1.636 4.139-1.636 1.707 0 3.087.551 4.139 1.655 1.065 1.091 1.598 2.51 1.598 4.255v1.367c0 1.694-.539 3.08-1.617 4.158-1.066 1.066-2.426 1.598-4.082 1.598-1.668 0-3.048-.532-4.139-1.598-1.091-1.078-1.636-2.509-1.636-4.293v-1.348zm2.656 1.483c0 1 .283 1.829.848 2.483.564.642 1.322.963 2.271.963.912 0 1.643-.314 2.195-.943.565-.63.847-1.49.847-2.58v-1.406c0-1-.276-1.829-.828-2.483-.552-.655-1.302-.982-2.252-.982-.95 0-1.701.327-2.253.982-.552.654-.828 1.508-.828 2.56v1.406zm10.993 14.285c0-1.681.533-3.061 1.598-4.14 1.079-1.09 2.458-1.636 4.14-1.636 1.681 0 3.061.54 4.139 1.618 1.078 1.078 1.617 2.509 1.617 4.293v1.367c0 1.681-.539 3.067-1.617 4.158-1.065 1.078-2.432 1.617-4.101 1.617-1.668 0-3.048-.532-4.139-1.598-1.091-1.078-1.637-2.509-1.637-4.293v-1.386zm2.657 1.502c0 1.014.283 1.848.847 2.502.565.642 1.322.963 2.272.963.924 0 1.662-.314 2.214-.943.552-.642.828-1.508.828-2.6v-1.424c0-1.014-.282-1.842-.847-2.484-.552-.641-1.296-.962-2.233-.962-.912 0-1.656.32-2.234.962-.564.63-.847 1.483-.847 2.561v1.425zm-9.722 3.253l-2.022-1.27 13.689-21.91 2.021 1.271-13.688 21.91z" fill="#EF2A82"/><path d="M389.8 127.157c0-.931.181-1.769.545-2.513.369-.745.879-1.319 1.529-1.723.656-.404 1.403-.607 2.241-.607 1.295 0 2.341.449 3.138 1.345.803.897 1.204 2.089 1.204 3.577v.115c0 .925-.179 1.757-.536 2.496a4.017 4.017 0 01-1.521 1.714c-.656.41-1.412.615-2.267.615-1.289 0-2.335-.448-3.138-1.345-.797-.896-1.195-2.083-1.195-3.56v-.114zm1.635.194c0 1.054.243 1.901.729 2.54.492.638 1.148.958 1.969.958.826 0 1.482-.323 1.969-.967.486-.651.729-1.559.729-2.725 0-1.043-.249-1.886-.747-2.531-.492-.65-1.148-.976-1.969-.976-.803 0-1.45.32-1.942.958-.492.639-.738 1.553-.738 2.743zm17.094 0c0 1.447-.331 2.613-.993 3.498-.662.884-1.558 1.327-2.689 1.327-1.155 0-2.063-.366-2.725-1.099v4.579h-1.626V122.49h1.485l.08 1.055c.662-.82 1.582-1.231 2.759-1.231 1.143 0 2.045.431 2.707 1.292.668.862 1.002 2.06 1.002 3.595v.15zm-1.626-.185c0-1.072-.228-1.919-.685-2.54-.457-.621-1.084-.932-1.881-.932-.984 0-1.723.437-2.215 1.31v4.544c.486.867 1.231 1.301 2.232 1.301.78 0 1.398-.308 1.855-.923.463-.621.694-1.541.694-2.76zm5.907-6.978v2.302h1.775v1.257h-1.775v5.898c0 .38.079.667.237.861.158.187.428.281.808.281.188 0 .446-.035.774-.105V132a4.725 4.725 0 01-1.248.176c-.727 0-1.275-.22-1.644-.659-.369-.44-.553-1.064-.553-1.872v-5.898h-1.732v-1.257h1.732v-2.302h1.626zM418.259 132h-1.626v-9.51h1.626V132zm-1.758-12.032a.98.98 0 01.237-.668c.164-.182.405-.273.721-.273.316 0 .557.091.721.273a.959.959 0 01.246.668.93.93 0 01-.246.659c-.164.176-.405.264-.721.264-.316 0-.557-.088-.721-.264a.95.95 0 01-.237-.659zm3.937 7.189c0-.931.182-1.769.545-2.513.37-.745.879-1.319 1.53-1.723.656-.404 1.403-.607 2.241-.607 1.295 0 2.341.449 3.138 1.345.802.897 1.204 2.089 1.204 3.577v.115c0 .925-.179 1.757-.536 2.496a4.017 4.017 0 01-1.521 1.714c-.656.41-1.412.615-2.268.615-1.289 0-2.334-.448-3.137-1.345-.797-.896-1.196-2.083-1.196-3.56v-.114zm1.635.194c0 1.054.243 1.901.73 2.54.492.638 1.148.958 1.968.958.827 0 1.483-.323 1.969-.967.487-.651.73-1.559.73-2.725 0-1.043-.249-1.886-.747-2.531-.493-.65-1.149-.976-1.969-.976-.803 0-1.45.32-1.942.958-.493.639-.739 1.553-.739 2.743zm10.6-4.861l.053 1.196c.726-.915 1.675-1.372 2.847-1.372 2.01 0 3.024 1.134 3.041 3.402V132h-1.626v-6.293c-.006-.686-.164-1.192-.474-1.52-.305-.329-.783-.493-1.433-.493-.527 0-.99.141-1.389.422a2.862 2.862 0 00-.931 1.108V132h-1.626v-9.51h1.538zm18.035 9.51h-1.635v-10.837l-3.278 1.204v-1.476l4.658-1.749h.255V132z" fill="#8794BA"/><path d="M409.696 213H391.33v-2.561l9.703-10.781c1.437-1.63 2.425-2.952 2.964-3.966.552-1.027.828-2.085.828-3.176 0-1.464-.442-2.664-1.328-3.601-.886-.936-2.066-1.405-3.542-1.405-1.772 0-3.151.507-4.14 1.521-.975 1.001-1.463 2.4-1.463 4.197h-3.562c0-2.58.828-4.666 2.484-6.257 1.669-1.592 3.895-2.387 6.681-2.387 2.605 0 4.665.686 6.179 2.06 1.515 1.36 2.272 3.176 2.272 5.448 0 2.76-1.758 6.045-5.275 9.857l-7.508 8.144h14.073V213zm17.423-12.321a8.676 8.676 0 01-2.676 2.137c-1.026.539-2.156.808-3.388.808-1.617 0-3.029-.398-4.236-1.193-1.193-.796-2.117-1.913-2.772-3.35-.654-1.451-.982-3.049-.982-4.794 0-1.874.353-3.562 1.059-5.064.719-1.501 1.733-2.65 3.042-3.446 1.309-.795 2.837-1.193 4.582-1.193 2.772 0 4.954 1.039 6.546 3.119 1.604 2.066 2.406 4.89 2.406 8.471v1.039c0 5.455-1.078 9.44-3.234 11.956-2.156 2.503-5.41 3.786-9.761 3.85h-.693v-3.003h.751c2.939-.051 5.198-.815 6.777-2.291 1.578-1.489 2.438-3.838 2.579-7.046zm-5.486 0c1.193 0 2.291-.366 3.292-1.098 1.014-.731 1.752-1.636 2.214-2.714v-1.425c0-2.336-.507-4.236-1.521-5.699-1.014-1.463-2.298-2.194-3.851-2.194-1.566 0-2.823.603-3.773 1.809-.95 1.194-1.425 2.773-1.425 4.736 0 1.913.456 3.491 1.367 4.736.924 1.232 2.156 1.849 3.697 1.849zm13.669-10.32c0-1.681.532-3.067 1.598-4.158 1.078-1.091 2.457-1.637 4.139-1.637 1.707 0 3.087.552 4.139 1.656 1.065 1.091 1.598 2.509 1.598 4.255v1.367c0 1.694-.539 3.08-1.617 4.158-1.066 1.066-2.426 1.598-4.082 1.598-1.668 0-3.048-.532-4.139-1.598-1.091-1.078-1.636-2.509-1.636-4.293v-1.348zm2.656 1.483c0 1.001.283 1.829.848 2.483.564.642 1.322.963 2.271.963.912 0 1.643-.315 2.195-.943.565-.629.847-1.489.847-2.58v-1.406c0-1.001-.276-1.829-.828-2.483-.552-.655-1.302-.982-2.252-.982-.95 0-1.701.327-2.253.982-.552.654-.828 1.508-.828 2.56v1.406zm10.993 14.285c0-1.681.533-3.061 1.598-4.139 1.079-1.091 2.458-1.637 4.14-1.637 1.681 0 3.061.539 4.139 1.617 1.078 1.079 1.617 2.51 1.617 4.294v1.367c0 1.681-.539 3.067-1.617 4.158-1.065 1.078-2.432 1.617-4.101 1.617-1.668 0-3.048-.532-4.139-1.598-1.091-1.078-1.637-2.509-1.637-4.293v-1.386zm2.657 1.502c0 1.014.283 1.848.847 2.502.565.642 1.322.963 2.272.963.924 0 1.662-.314 2.214-.943.552-.642.828-1.508.828-2.599v-1.425c0-1.014-.282-1.842-.847-2.484-.552-.641-1.296-.962-2.233-.962-.912 0-1.656.321-2.234.962-.564.629-.847 1.483-.847 2.561v1.425zm-9.722 3.253l-2.022-1.27 13.689-21.909 2.021 1.27-13.688 21.909z" fill="#0088F0"/><path d="M389.8 239.157c0-.931.181-1.769.545-2.513.369-.745.879-1.319 1.529-1.723.656-.404 1.403-.607 2.241-.607 1.295 0 2.341.449 3.138 1.345.803.897 1.204 2.089 1.204 3.577v.115c0 .925-.179 1.757-.536 2.496a4.017 4.017 0 01-1.521 1.714c-.656.41-1.412.615-2.267.615-1.289 0-2.335-.448-3.138-1.345-.797-.896-1.195-2.083-1.195-3.56v-.114zm1.635.194c0 1.054.243 1.901.729 2.54.492.638 1.148.958 1.969.958.826 0 1.482-.323 1.969-.967.486-.651.729-1.559.729-2.725 0-1.043-.249-1.886-.747-2.531-.492-.65-1.148-.976-1.969-.976-.803 0-1.45.32-1.942.958-.492.639-.738 1.553-.738 2.743zm17.094 0c0 1.447-.331 2.613-.993 3.498-.662.884-1.558 1.327-2.689 1.327-1.155 0-2.063-.366-2.725-1.099v4.579h-1.626V234.49h1.485l.08 1.055c.662-.82 1.582-1.231 2.759-1.231 1.143 0 2.045.431 2.707 1.292.668.862 1.002 2.06 1.002 3.595v.15zm-1.626-.185c0-1.072-.228-1.919-.685-2.54-.457-.621-1.084-.932-1.881-.932-.984 0-1.723.437-2.215 1.31v4.544c.486.867 1.231 1.301 2.232 1.301.78 0 1.398-.308 1.855-.923.463-.621.694-1.541.694-2.76zm5.907-6.978v2.302h1.775v1.257h-1.775v5.898c0 .38.079.667.237.861.158.187.428.281.808.281.188 0 .446-.035.774-.105V244a4.725 4.725 0 01-1.248.176c-.727 0-1.275-.22-1.644-.659-.369-.44-.553-1.064-.553-1.872v-5.898h-1.732v-1.257h1.732v-2.302h1.626zM418.259 244h-1.626v-9.51h1.626V244zm-1.758-12.032a.98.98 0 01.237-.668c.164-.182.405-.273.721-.273.316 0 .557.091.721.273a.959.959 0 01.246.668.93.93 0 01-.246.659c-.164.176-.405.264-.721.264-.316 0-.557-.088-.721-.264a.95.95 0 01-.237-.659zm3.937 7.189c0-.931.182-1.769.545-2.513.37-.745.879-1.319 1.53-1.723.656-.404 1.403-.607 2.241-.607 1.295 0 2.341.449 3.138 1.345.802.897 1.204 2.089 1.204 3.577v.115c0 .925-.179 1.757-.536 2.496a4.017 4.017 0 01-1.521 1.714c-.656.41-1.412.615-2.268.615-1.289 0-2.334-.448-3.137-1.345-.797-.896-1.196-2.083-1.196-3.56v-.114zm1.635.194c0 1.054.243 1.901.73 2.54.492.638 1.148.958 1.968.958.827 0 1.483-.323 1.969-.967.487-.651.73-1.559.73-2.725 0-1.043-.249-1.886-.747-2.531-.493-.65-1.149-.976-1.969-.976-.803 0-1.45.32-1.942.958-.493.639-.739 1.553-.739 2.743zm10.6-4.861l.053 1.196c.726-.915 1.675-1.372 2.847-1.372 2.01 0 3.024 1.134 3.041 3.402V244h-1.626v-6.293c-.006-.686-.164-1.192-.474-1.52-.305-.329-.783-.493-1.433-.493-.527 0-.99.141-1.389.422a2.862 2.862 0 00-.931 1.108V244h-1.626v-9.51h1.538zm21.076 9.51h-8.385v-1.169l4.43-4.922c.656-.744 1.107-1.347 1.353-1.81a3.03 3.03 0 00.378-1.451c0-.668-.202-1.215-.606-1.643-.404-.428-.943-.642-1.617-.642-.809 0-1.439.232-1.89.695-.445.457-.668 1.095-.668 1.916h-1.626c0-1.178.378-2.13 1.134-2.857.762-.726 1.778-1.09 3.05-1.09 1.189 0 2.13.314 2.821.941.691.621 1.037 1.45 1.037 2.487 0 1.26-.803 2.76-2.408 4.5l-3.428 3.718h6.425V244zM145.637 13h-1.09V5.775l-2.186.803v-.984l3.106-1.166h.17V13zm8.349-6.305c0 .426-.113.805-.34 1.137a2.264 2.264 0 01-.908.78c.446.19.797.47 1.055.837.262.367.393.783.393 1.248 0 .739-.25 1.326-.75 1.764-.497.437-1.151.656-1.963.656-.821 0-1.479-.219-1.975-.656-.492-.441-.738-1.03-.738-1.764 0-.46.125-.877.375-1.248a2.368 2.368 0 011.049-.844 2.238 2.238 0 01-.897-.779 2.007 2.007 0 01-.328-1.13c0-.72.23-1.29.691-1.712.461-.421 1.069-.632 1.823-.632.75 0 1.355.21 1.816.632.465.422.697.993.697 1.711zm-.884 3.979c0-.477-.153-.865-.457-1.166-.301-.301-.696-.451-1.184-.451s-.881.148-1.178.445c-.293.297-.439.688-.439 1.172s.142.865.427 1.142c.29.278.69.416 1.202.416.507 0 .906-.138 1.195-.416.289-.28.434-.662.434-1.142zm-1.629-5.432c-.426 0-.772.133-1.037.399-.262.261-.393.619-.393 1.072 0 .433.129.785.387 1.055.261.265.609.398 1.043.398.433 0 .779-.133 1.037-.398.261-.27.392-.622.392-1.055 0-.434-.134-.787-.404-1.06-.269-.274-.611-.41-1.025-.41zm6.445 4.576h-2.859v-.884h2.859v.884zM164.457 13h-5.59v-.78l2.953-3.28c.438-.497.739-.899.903-1.208.168-.312.252-.634.252-.966 0-.446-.135-.81-.405-1.096-.269-.285-.629-.428-1.078-.428-.539 0-.959.154-1.26.463-.296.305-.445.73-.445 1.277h-1.084c0-.785.252-1.42.756-1.904.508-.484 1.186-.726 2.033-.726.793 0 1.42.209 1.881.627.461.414.691.966.691 1.658 0 .84-.535 1.84-1.605 3l-2.285 2.478h4.283V13zm5.725-2.865h1.183v.885h-1.183V13h-1.09v-1.98h-3.885v-.64l3.82-5.911h1.155v5.666zm-3.744 0h2.654V5.95l-.129.235-2.525 3.949zM288.664 91h-5.59v-.78l2.953-3.28c.438-.497.739-.899.903-1.208.168-.312.252-.634.252-.966 0-.446-.135-.81-.405-1.096-.269-.285-.629-.428-1.078-.428-.539 0-.959.154-1.26.463-.296.305-.445.73-.445 1.277h-1.084c0-.785.252-1.42.756-1.904.508-.484 1.186-.726 2.033-.726.793 0 1.42.209 1.881.626.461.415.691.967.691 1.659 0 .84-.535 1.84-1.605 3l-2.285 2.478h4.283V91zm1.647-4.277l.433-4.254h4.371v1.002h-3.451l-.258 2.326c.418-.246.893-.37 1.424-.37.777 0 1.395.258 1.852.774.457.512.685 1.205.685 2.08 0 .88-.238 1.572-.715 2.08-.472.504-1.134.756-1.986.756-.754 0-1.369-.209-1.846-.627-.476-.418-.748-.996-.814-1.734h1.025c.067.488.24.857.522 1.107.281.246.652.37 1.113.37.504 0 .898-.172 1.184-.516.289-.344.433-.819.433-1.424 0-.57-.156-1.027-.469-1.371-.308-.348-.72-.522-1.236-.522-.473 0-.844.104-1.113.31l-.287.235-.867-.222zm8.607 1.095h-2.859v-.884h2.859v.884zm2.525-1.611h.815c.512-.008.914-.142 1.207-.404.293-.262.439-.615.439-1.06 0-1-.498-1.5-1.494-1.5-.469 0-.844.134-1.125.404-.277.265-.416.619-.416 1.06h-1.084c0-.676.246-1.236.738-1.682.497-.449 1.125-.673 1.887-.673.805 0 1.436.212 1.893.638.457.426.685 1.018.685 1.776 0 .37-.121.73-.363 1.078a2.152 2.152 0 01-.979.779c.469.148.831.395 1.084.738.258.344.387.764.387 1.26 0 .766-.25 1.373-.75 1.822-.5.45-1.15.674-1.951.674-.801 0-1.453-.217-1.957-.65-.5-.434-.75-1.006-.75-1.717h1.09c0 .45.146.809.439 1.078.293.27.686.404 1.178.404.523 0 .924-.136 1.201-.41.278-.273.416-.666.416-1.178 0-.496-.152-.876-.457-1.142-.305-.266-.744-.402-1.318-.41h-.815v-.885zm9.739 1.928h1.183v.884h-1.183V91h-1.09v-1.98h-3.885v-.64l3.82-5.911h1.155v5.666zm-3.744 0h2.654V83.95l-.129.235-2.525 3.949zM284.65 217.207h.815c.512-.008.914-.143 1.207-.404.293-.262.439-.615.439-1.061 0-1-.498-1.5-1.494-1.5-.469 0-.844.135-1.125.404-.277.266-.416.62-.416 1.061h-1.084c0-.676.246-1.236.738-1.682.497-.449 1.125-.673 1.887-.673.805 0 1.436.212 1.893.638.457.426.685 1.018.685 1.776 0 .371-.121.73-.363 1.078a2.16 2.16 0 01-.978.779c.468.148.83.395 1.084.738.257.344.386.764.386 1.26 0 .766-.25 1.373-.75 1.822-.5.45-1.15.674-1.951.674-.801 0-1.453-.217-1.957-.65-.5-.434-.75-1.006-.75-1.717h1.09c0 .449.146.809.439 1.078.293.27.686.404 1.178.404.523 0 .924-.136 1.201-.41.278-.273.416-.666.416-1.177 0-.497-.152-.877-.457-1.143-.304-.266-.744-.402-1.318-.41h-.815v-.885zm5.661.516l.433-4.254h4.371v1.002h-3.451l-.258 2.326a2.755 2.755 0 011.424-.369c.777 0 1.395.258 1.852.773.457.512.685 1.205.685 2.08 0 .879-.238 1.573-.715 2.08-.472.504-1.134.756-1.986.756-.754 0-1.369-.209-1.846-.627-.476-.418-.748-.996-.814-1.734h1.025c.067.488.24.857.522 1.107.281.246.652.369 1.113.369.504 0 .898-.171 1.184-.515.289-.344.433-.819.433-1.424 0-.57-.156-1.027-.469-1.371-.308-.348-.72-.522-1.236-.522-.473 0-.844.104-1.113.311l-.287.234-.867-.222zm8.607 1.095h-2.859v-.884h2.859v.884zm5.525.317h1.184v.885h-1.184V222h-1.089v-1.98h-3.885v-.639l3.82-5.912h1.154v5.666zm-3.744 0h2.655v-4.184l-.129.235-2.526 3.949zm10.483 0h1.183v.885h-1.183V222h-1.09v-1.98h-3.885v-.639l3.82-5.912h1.155v5.666zm-3.744 0h2.654v-4.184l-.129.235-2.525 3.949zm-160.788 85h1.184v.885h-1.184V307h-1.089v-1.98h-3.885v-.639l3.82-5.912h1.154v5.666zm-3.744 0h2.655v-4.184l-.129.235-2.526 3.949zm6.405-1.412l.433-4.254h4.371v1.002h-3.451l-.258 2.326a2.755 2.755 0 011.424-.369c.777 0 1.395.258 1.852.773.457.512.685 1.205.685 2.08 0 .879-.238 1.573-.715 2.08-.472.504-1.134.756-1.986.756-.754 0-1.369-.209-1.846-.627-.476-.418-.748-.996-.814-1.734h1.025c.067.488.24.857.522 1.107.281.246.652.369 1.113.369.504 0 .898-.171 1.184-.515.289-.344.433-.819.433-1.424 0-.57-.156-1.027-.469-1.371-.308-.348-.72-.522-1.236-.522-.473 0-.844.104-1.113.311l-.287.234-.867-.222zm8.607 1.095h-2.859v-.884h2.859v.884zm1.447-1.095l.434-4.254h4.371v1.002h-3.451l-.258 2.326a2.755 2.755 0 011.424-.369c.777 0 1.394.258 1.851.773.457.512.686 1.205.686 2.08 0 .879-.238 1.573-.715 2.08-.473.504-1.135.756-1.986.756-.754 0-1.369-.209-1.846-.627-.477-.418-.748-.996-.814-1.734h1.025c.066.488.24.857.521 1.107.282.246.653.369 1.114.369.504 0 .898-.171 1.183-.515.289-.344.434-.819.434-1.424 0-.57-.156-1.027-.469-1.371-.308-.348-.721-.522-1.236-.522-.473 0-.844.104-1.113.311l-.288.234-.867-.222zm10.817 1.412h1.183v.885h-1.183V307h-1.09v-1.98h-3.885v-.639l3.82-5.912h1.155v5.666zm-3.744 0h2.654v-4.184l-.129.235-2.525 3.949zM1.572 217.723l.434-4.254h4.371v1.002H2.926l-.258 2.326a2.754 2.754 0 011.424-.369c.777 0 1.394.258 1.851.773.457.512.686 1.205.686 2.08 0 .879-.238 1.573-.715 2.08-.473.504-1.135.756-1.986.756-.754 0-1.37-.209-1.846-.627-.477-.418-.748-.996-.814-1.734h1.025c.066.488.24.857.521 1.107.282.246.653.369 1.114.369.504 0 .898-.171 1.183-.515.29-.344.434-.819.434-1.424 0-.57-.156-1.027-.469-1.371-.308-.348-.72-.522-1.236-.522-.473 0-.844.104-1.113.311l-.288.234-.867-.222zm6.739 0l.433-4.254h4.371v1.002h-3.45l-.259 2.326a2.754 2.754 0 011.424-.369c.777 0 1.395.258 1.852.773.457.512.685 1.205.685 2.08 0 .879-.238 1.573-.715 2.08-.472.504-1.134.756-1.986.756-.754 0-1.37-.209-1.846-.627-.476-.418-.748-.996-.814-1.734H9.03c.067.488.24.857.522 1.107.281.246.652.369 1.113.369.504 0 .899-.171 1.184-.515.289-.344.433-.819.433-1.424 0-.57-.156-1.027-.468-1.371-.31-.348-.721-.522-1.237-.522-.473 0-.844.104-1.113.311l-.287.234-.867-.222zm8.607 1.095h-2.86v-.884h2.86v.884zm5.203-5.355v.92h-.2c-.843.015-1.515.265-2.015.75-.5.484-.789 1.166-.867 2.045.45-.516 1.063-.774 1.84-.774.742 0 1.334.262 1.775.785.446.524.668 1.2.668 2.028 0 .879-.24 1.582-.72 2.109-.477.528-1.118.791-1.922.791-.817 0-1.479-.312-1.987-.937-.508-.629-.761-1.438-.761-2.426v-.416c0-1.57.334-2.77 1.002-3.598.671-.832 1.67-1.258 2.994-1.277h.193zm-1.424 3.844c-.37 0-.713.111-1.025.334-.313.222-.53.502-.65.838v.398c0 .703.158 1.269.474 1.699.317.43.711.645 1.184.645.488 0 .87-.18 1.148-.539.281-.36.422-.83.422-1.412 0-.586-.143-1.059-.428-1.418a1.35 1.35 0 00-1.125-.545zm8.485 1.828h1.183v.885h-1.183V222h-1.09v-1.98h-3.885v-.639l3.82-5.912h1.155v5.666zm-3.744 0h2.654v-4.184l-.13.235-2.524 3.949zM10.32 82.463v.92h-.199c-.844.015-1.516.265-2.016.75-.5.484-.789 1.166-.867 2.045.45-.516 1.063-.774 1.84-.774.742 0 1.334.262 1.776.785.445.524.668 1.2.668 2.028 0 .879-.24 1.582-.721 2.11-.477.526-1.117.79-1.922.79-.816 0-1.479-.312-1.986-.937-.508-.63-.762-1.438-.762-2.426v-.416c0-1.57.334-2.77 1.002-3.598.672-.832 1.67-1.258 2.994-1.277h.193zm-1.424 3.844a1.73 1.73 0 00-1.025.334 1.74 1.74 0 00-.65.837v.399c0 .703.158 1.27.474 1.7.317.429.711.644 1.184.644.488 0 .871-.18 1.148-.54.282-.359.422-.83.422-1.412 0-.585-.142-1.058-.428-1.417a1.351 1.351 0 00-1.125-.545zm4.407.416l.433-4.254h4.371v1.002h-3.45l-.259 2.326c.418-.246.893-.37 1.424-.37.778 0 1.395.258 1.852.774.457.512.685 1.205.685 2.08 0 .88-.238 1.572-.715 2.08-.472.504-1.134.756-1.986.756-.754 0-1.369-.209-1.845-.627-.477-.418-.748-.996-.815-1.734h1.025c.067.488.24.857.522 1.107.281.246.652.37 1.113.37.504 0 .899-.172 1.184-.516.289-.344.433-.819.433-1.424 0-.57-.156-1.027-.468-1.371-.309-.348-.721-.522-1.237-.522-.472 0-.843.104-1.113.31l-.287.235-.867-.222zm9.457-.3h2.379v1.026h-2.38v2.695h-1.09V87.45h-2.378v-1.025h2.379v-2.49h1.09v2.49z" fill="#8794BA"/></svg>