<svg width="462" height="305" fill="none" xmlns="http://www.w3.org/2000/svg"><path fill="#fff" d="M0 45h66v52H0zm66 0h66v52H66z"/><path d="M99.117 75h-1.09v-7.225l-2.186.803v-.984l3.106-1.166h.17V75z" fill="#172755"/><path fill="#fff" d="M132 45h66v52h-66z"/><path d="M167.144 75h-5.59v-.78l2.953-3.28c.438-.497.739-.899.903-1.208.168-.312.252-.634.252-.966 0-.446-.135-.811-.405-1.096-.269-.285-.629-.428-1.078-.428-.539 0-.959.154-1.26.463-.297.305-.445.73-.445 1.277h-1.084c0-.785.252-1.42.756-1.904.508-.484 1.185-.727 2.033-.727.793 0 1.42.21 1.881.627.461.415.691.967.691 1.659 0 .84-.535 1.84-1.605 3l-2.285 2.478h4.283V75z" fill="#172755"/><path fill="#fff" d="M198 45h66v52h-66z"/><path d="M229.13 70.207h.815c.511-.008.914-.143 1.207-.404.293-.262.439-.615.439-1.06 0-1-.498-1.5-1.494-1.5-.469 0-.844.134-1.125.404-.277.265-.416.619-.416 1.06h-1.084c0-.676.246-1.236.738-1.682.496-.449 1.125-.674 1.887-.674.805 0 1.436.213 1.893.64.457.425.685 1.017.685 1.775 0 .37-.121.73-.363 1.078a2.157 2.157 0 01-.979.779c.469.148.831.394 1.084.738.258.344.387.764.387 1.26 0 .766-.25 1.373-.75 1.822-.5.45-1.15.674-1.951.674-.801 0-1.453-.217-1.957-.65-.5-.434-.75-1.006-.75-1.717h1.09c0 .45.146.809.439 1.078.293.27.686.404 1.178.404.523 0 .924-.136 1.201-.41.277-.273.416-.666.416-1.178 0-.496-.152-.877-.457-1.142-.305-.266-.744-.402-1.318-.41h-.815v-.885z" fill="#172755"/><path fill="#fff" d="M264 45h66v52h-66z"/><path d="M298.13 72.135h1.184v.884h-1.184V75h-1.09v-1.98h-3.884v-.64l3.82-5.911h1.154v5.666zm-3.744 0h2.654V67.95l-.128.235-2.526 3.949z" fill="#172755"/><path fill="#fff" d="M330 45h66v52h-66z"/><path d="M360.052 70.723l.434-4.254h4.371v1.002h-3.451l-.258 2.326c.418-.246.892-.37 1.424-.37.777 0 1.394.258 1.851.774.457.512.686 1.205.686 2.08 0 .88-.238 1.572-.715 2.08-.473.504-1.135.756-1.986.756-.754 0-1.369-.209-1.846-.627-.477-.418-.748-.996-.815-1.734h1.026c.066.488.24.857.521 1.107.282.246.653.37 1.114.37.504 0 .898-.172 1.183-.516.289-.344.434-.819.434-1.424 0-.57-.156-1.027-.469-1.371-.309-.348-.721-.522-1.236-.522-.473 0-.844.104-1.114.31l-.287.235-.867-.222z" fill="#172755"/><path fill="#fff" d="M396 45h66v52h-66z"/><path d="M429.808 66.463v.92h-.199c-.844.015-1.516.265-2.016.75-.5.484-.789 1.166-.867 2.045.449-.516 1.063-.774 1.84-.774.742 0 1.334.262 1.775.785.446.524.668 1.2.668 2.028 0 .879-.24 1.582-.72 2.11-.477.526-1.118.79-1.922.79-.817 0-1.479-.312-1.987-.937-.508-.63-.761-1.438-.761-2.426v-.416c0-1.57.334-2.77 1.002-3.598.671-.832 1.669-1.258 2.994-1.277h.193zm-1.424 3.844c-.371 0-.713.11-1.025.334a1.744 1.744 0 00-.651.837v.399c0 .703.159 1.27.475 1.7.316.429.711.644 1.184.644.488 0 .871-.18 1.148-.54.281-.359.422-.83.422-1.412 0-.585-.143-1.058-.428-1.418a1.35 1.35 0 00-1.125-.544z" fill="#172755"/><path fill="#fff" d="M0 97h66v52H0z"/><path d="M35.062 119.078L31.529 127h-1.137l3.521-7.641h-4.617v-.89h5.766v.609z" fill="#172755"/><path fill="#fff" d="M66 97h66v52H66z"/><circle cx="98.5" cy="122.5" r="19.5" fill="#0088F0"/><path d="M100.728 120.695c0 .426-.113.805-.34 1.137a2.268 2.268 0 01-.908.779c.445.192.797.471 1.055.838.261.367.392.783.392 1.248 0 .739-.25 1.326-.75 1.764-.496.437-1.15.656-1.963.656-.82 0-1.478-.219-1.974-.656-.492-.441-.739-1.029-.739-1.764 0-.461.125-.877.375-1.248a2.376 2.376 0 011.05-.844 2.232 2.232 0 01-.897-.779 2.01 2.01 0 01-.328-1.131c0-.718.23-1.289.691-1.711.461-.422 1.068-.632 1.822-.632.75 0 1.356.21 1.817.632.465.422.697.993.697 1.711zm-.885 3.979c0-.477-.152-.865-.457-1.166-.3-.301-.695-.451-1.183-.451-.489 0-.881.148-1.178.445-.293.297-.44.687-.44 1.172 0 .484.143.865.428 1.142.29.278.69.416 1.201.416.508 0 .907-.138 1.196-.416.289-.281.433-.662.433-1.142zm-1.629-5.432c-.425 0-.771.133-1.037.399-.262.261-.392.619-.392 1.072 0 .433.129.785.386 1.055.262.265.61.398 1.043.398.434 0 .78-.133 1.037-.398.262-.27.393-.622.393-1.055 0-.434-.135-.787-.404-1.061-.27-.273-.612-.41-1.026-.41z" fill="#EEEEF7"/><path fill="#fff" d="M132 97h66v52h-66z"/><circle cx="164.5" cy="122.5" r="19.5" fill="#0088F0"/><path d="M165.708 123.25c-.226.27-.498.486-.814.65a2.185 2.185 0 01-1.031.246c-.492 0-.922-.121-1.289-.363a2.366 2.366 0 01-.844-1.019 3.512 3.512 0 01-.299-1.459c0-.571.108-1.084.322-1.541.219-.457.528-.807.926-1.049.399-.242.863-.363 1.395-.363.843 0 1.507.316 1.992.949.488.629.732 1.488.732 2.578v.316c0 1.66-.328 2.873-.984 3.639-.656.762-1.647 1.152-2.971 1.172h-.211v-.914h.229c.894-.016 1.582-.248 2.062-.697.481-.454.742-1.168.785-2.145zm-1.669 0c.363 0 .697-.111 1.001-.334.309-.223.534-.498.674-.826v-.434c0-.711-.154-1.289-.463-1.734-.308-.445-.699-.668-1.171-.668-.477 0-.86.183-1.149.551-.289.363-.434.843-.434 1.441 0 .582.139 1.063.417 1.441.281.375.656.563 1.125.563z" fill="#EEEEF7"/><path fill="#fff" d="M198 97h66v52h-66z"/><circle cx="230.5" cy="122.5" r="19.5" fill="#0088F0"/><path d="M227.247 127h-1.089v-7.225l-2.186.803v-.984l3.106-1.166h.169V127zm8.526-3.639c0 1.27-.217 2.213-.651 2.83-.433.618-1.111.926-2.033.926-.91 0-1.584-.301-2.021-.902-.438-.606-.664-1.508-.68-2.707v-1.447c0-1.254.217-2.186.651-2.795.433-.61 1.113-.914 2.039-.914.918 0 1.593.294 2.027.884.434.586.656 1.492.668 2.719v1.406zm-1.084-1.482c0-.918-.129-1.586-.387-2.004-.258-.422-.666-.633-1.224-.633-.555 0-.959.209-1.213.627-.254.418-.385 1.061-.393 1.928v1.734c0 .922.133 1.604.399 2.045.269.438.675.656 1.218.656.535 0 .932-.207 1.19-.621.261-.414.398-1.066.41-1.957v-1.775z" fill="#EEEEF7"/><path fill="#fff" d="M264 97h66v52h-66z"/><path d="M293.247 127h-1.089v-7.225l-2.186.803v-.984l3.106-1.166h.169V127zm6.739 0h-1.09v-7.225l-2.186.803v-.984l3.106-1.166h.17V127z" fill="#172755"/><path fill="#fff" d="M330 97h66v52h-66z"/><path d="M359.247 127h-1.089v-7.225l-2.186.803v-.984l3.106-1.166h.169V127zm8.766 0h-5.59v-.779l2.953-3.282c.438-.496.739-.898.903-1.207.168-.312.252-.634.252-.966 0-.446-.135-.811-.405-1.096-.269-.285-.629-.428-1.078-.428-.539 0-.959.154-1.259.463-.297.305-.446.731-.446 1.277h-1.084c0-.785.252-1.42.756-1.904.508-.484 1.186-.726 2.033-.726.793 0 1.42.209 1.881.626.461.415.692.967.692 1.659 0 .84-.536 1.84-1.606 3l-2.285 2.478h4.283V127z" fill="#172755"/><path fill="#fff" d="M396 97h66v52h-66z"/><path d="M425.247 127h-1.089v-7.225l-2.186.803v-.984l3.106-1.166h.169V127zm4.752-4.793h.815c.512-.008.914-.143 1.207-.404.293-.262.439-.616.439-1.061 0-1-.498-1.5-1.494-1.5-.469 0-.844.135-1.125.404-.277.266-.416.62-.416 1.061h-1.084c0-.676.246-1.236.739-1.682.496-.449 1.125-.673 1.886-.673.805 0 1.436.212 1.893.638.457.426.685 1.018.685 1.776 0 .371-.121.73-.363 1.078a2.16 2.16 0 01-.978.779c.468.148.83.395 1.084.738.257.344.386.764.386 1.26 0 .766-.25 1.373-.75 1.822-.5.45-1.15.674-1.951.674-.801 0-1.453-.217-1.957-.65-.5-.434-.75-1.006-.75-1.717h1.09c0 .449.146.809.439 1.078.293.27.686.404 1.178.404.524 0 .924-.136 1.201-.41.278-.273.416-.666.416-1.177 0-.497-.152-.877-.457-1.143-.304-.266-.744-.402-1.318-.41h-.815v-.885z" fill="#172755"/><path fill="#fff" d="M0 149h66v52H0z"/><path d="M29.247 179h-1.09v-7.225l-2.185.803v-.984l3.106-1.166h.17V179zM37 176.135h1.184v.885H37V179h-1.09v-1.98h-3.884v-.639l3.82-5.912H37v5.666zm-3.744 0h2.655v-4.184l-.13.235-2.525 3.949z" fill="#172755"/><path fill="#fff" d="M66 149h66v52H66z"/><path d="M95.248 179h-1.09v-7.225l-2.186.803v-.984l3.106-1.166h.17V179zm3.673-4.277l.434-4.254h4.371v1.002h-3.451l-.258 2.326a2.755 2.755 0 011.424-.369c.777 0 1.394.258 1.851.773.457.512.686 1.205.686 2.08 0 .879-.238 1.572-.715 2.08-.473.504-1.135.756-1.986.756-.754 0-1.37-.209-1.846-.627-.477-.418-.748-.996-.814-1.734h1.025c.066.488.24.857.522 1.107.281.246.652.369 1.113.369.504 0 .898-.171 1.183-.515.289-.344.434-.819.434-1.424 0-.57-.156-1.027-.469-1.371-.308-.348-.72-.522-1.236-.522-.473 0-.844.104-1.113.311l-.287.234-.868-.222z" fill="#172755"/><path fill="#fff" d="M132 149h66v52h-66z"/><path d="M161.247 179h-1.089v-7.225l-2.186.803v-.984l3.106-1.166h.169V179zm7.43-8.537v.92h-.199c-.844.015-1.516.265-2.016.75-.5.484-.789 1.166-.867 2.045.449-.516 1.063-.774 1.84-.774.742 0 1.334.262 1.775.785.446.524.668 1.2.668 2.028 0 .879-.24 1.582-.72 2.109-.477.527-1.118.791-1.922.791-.817 0-1.479-.312-1.987-.937-.507-.629-.761-1.438-.761-2.426v-.416c0-1.57.334-2.77 1.002-3.598.672-.832 1.67-1.258 2.994-1.277h.193zm-1.424 3.844c-.371 0-.713.111-1.025.334a1.735 1.735 0 00-.65.837v.399c0 .703.158 1.269.474 1.699.317.43.711.645 1.184.645.488 0 .871-.18 1.148-.539.281-.36.422-.83.422-1.412 0-.586-.142-1.059-.428-1.418a1.349 1.349 0 00-1.125-.545z" fill="#172755"/><path fill="#fff" d="M198 149h66v52h-66z"/><path d="M227.247 179h-1.089v-7.225l-2.186.803v-.984l3.106-1.166h.169V179zm8.684-7.922L232.398 179h-1.137l3.522-7.641h-4.618v-.89h5.766v.609z" fill="#172755"/><path fill="#fff" d="M264 149h66v52h-66z"/><circle cx="296.5" cy="174.5" r="19.5" fill="#EF2A82"/><path d="M293.247 179h-1.089v-7.225l-2.186.803v-.984l3.106-1.166h.169V179zm8.35-6.305c0 .426-.113.805-.34 1.137a2.26 2.26 0 01-.908.779c.445.192.797.471 1.055.838.261.367.392.783.392 1.248 0 .739-.25 1.326-.75 1.764-.496.437-1.15.656-1.963.656-.82 0-1.478-.219-1.974-.656-.492-.441-.738-1.029-.738-1.764 0-.461.125-.877.375-1.248a2.37 2.37 0 011.048-.844 2.231 2.231 0 01-.896-.779 2.007 2.007 0 01-.328-1.131c0-.718.23-1.289.691-1.711.461-.422 1.069-.632 1.822-.632.75 0 1.356.21 1.817.632.465.422.697.993.697 1.711zm-.885 3.979c0-.477-.152-.865-.457-1.166-.3-.301-.695-.451-1.183-.451-.489 0-.881.148-1.178.445-.293.297-.439.687-.439 1.172 0 .484.142.865.427 1.142.289.278.69.416 1.201.416.508 0 .907-.138 1.196-.416.289-.281.433-.662.433-1.142zm-1.629-5.432c-.425 0-.771.133-1.037.399-.261.261-.392.619-.392 1.072 0 .433.129.785.386 1.055.262.265.61.398 1.043.398.434 0 .78-.133 1.038-.398.261-.27.392-.622.392-1.055 0-.434-.135-.787-.404-1.061-.27-.273-.612-.41-1.026-.41z" fill="#EEEEF7"/><path fill="#fff" d="M330 149h66v52h-66z"/><path d="M359.247 179h-1.089v-7.225l-2.186.803v-.984l3.106-1.166h.169V179zm7.331-3.75c-.227.27-.498.486-.815.65a2.183 2.183 0 01-1.031.246c-.492 0-.922-.121-1.289-.363a2.373 2.373 0 01-.844-1.019 3.512 3.512 0 01-.299-1.459c0-.571.108-1.084.322-1.541.219-.457.528-.807.926-1.049.399-.242.864-.363 1.395-.363.844 0 1.508.316 1.992.949.488.629.732 1.488.732 2.578v.316c0 1.66-.328 2.873-.984 3.639-.656.762-1.646 1.152-2.971 1.172h-.211v-.914h.229c.894-.016 1.582-.248 2.062-.697.481-.454.743-1.168.786-2.145zm-1.67 0a1.66 1.66 0 001.002-.334c.308-.223.533-.498.673-.826v-.434c0-.711-.154-1.289-.462-1.734-.309-.445-.7-.668-1.172-.668-.477 0-.86.183-1.149.551-.289.363-.433.843-.433 1.441 0 .582.138 1.063.416 1.441.281.375.656.563 1.125.563z" fill="#172755"/><path fill="#fff" d="M396 149h66v52h-66z"/><path d="M427.275 179h-5.59v-.779l2.953-3.282c.438-.496.738-.898.902-1.207.168-.312.252-.634.252-.966 0-.446-.134-.811-.404-1.096-.269-.285-.629-.428-1.078-.428-.539 0-.959.154-1.26.463-.297.305-.445.731-.445 1.277h-1.084c0-.785.252-1.42.756-1.904.508-.484 1.185-.726 2.033-.726.793 0 1.42.209 1.881.626.461.415.691.967.691 1.659 0 .84-.535 1.84-1.605 3l-2.285 2.478h4.283V179zm6.498-3.639c0 1.27-.217 2.213-.651 2.83-.433.618-1.111.926-2.033.926-.91 0-1.584-.301-2.021-.902-.438-.606-.664-1.508-.68-2.707v-1.447c0-1.254.217-2.186.651-2.795.433-.61 1.113-.914 2.039-.914.918 0 1.593.294 2.027.884.434.586.656 1.492.668 2.719v1.406zm-1.084-1.482c0-.918-.129-1.586-.387-2.004-.258-.422-.666-.633-1.224-.633-.555 0-.959.209-1.213.627-.254.418-.385 1.061-.393 1.928v1.734c0 .922.133 1.604.399 2.045.269.438.675.656 1.218.656.535 0 .932-.207 1.19-.621.261-.414.398-1.066.41-1.957v-1.775z" fill="#172755"/><path fill="#fff" d="M0 201h66v52H0z"/><path d="M31.275 231h-5.59v-.779l2.953-3.282c.438-.496.738-.898.902-1.207.168-.312.252-.634.252-.966 0-.446-.134-.811-.404-1.096-.27-.285-.629-.428-1.078-.428-.54 0-.959.154-1.26.463-.297.305-.445.731-.445 1.277H25.52c0-.785.252-1.42.756-1.904.508-.484 1.185-.726 2.033-.726.793 0 1.42.209 1.88.626.462.415.692.967.692 1.659 0 .84-.535 1.84-1.605 3l-2.285 2.478h4.283V231zm4.71 0h-1.09v-7.225l-2.185.803v-.984l3.106-1.166h.17V231z" fill="#172755"/><path fill="#fff" d="M66 201h66v52H66z"/><path d="M97.275 231h-5.59v-.779l2.953-3.282c.438-.496.738-.898.902-1.207.168-.312.252-.634.252-.966 0-.446-.134-.811-.404-1.096-.27-.285-.629-.428-1.078-.428-.54 0-.959.154-1.26.463-.297.305-.445.731-.445 1.277H91.52c0-.785.252-1.42.756-1.904.508-.484 1.185-.726 2.033-.726.793 0 1.42.209 1.88.626.462.415.692.967.692 1.659 0 .84-.535 1.84-1.605 3l-2.285 2.478h4.283V231zm6.738 0h-5.59v-.779l2.953-3.282c.438-.496.739-.898.903-1.207.168-.312.252-.634.252-.966 0-.446-.135-.811-.405-1.096-.269-.285-.629-.428-1.078-.428-.539 0-.959.154-1.26.463-.296.305-.445.731-.445 1.277H98.26c0-.785.252-1.42.756-1.904.508-.484 1.186-.726 2.033-.726.793 0 1.42.209 1.881.626.461.415.692.967.692 1.659 0 .84-.536 1.84-1.606 3l-2.285 2.478h4.283V231z" fill="#172755"/><path fill="#fff" d="M132 201h66v52h-66z"/><path d="M163.275 231h-5.59v-.779l2.953-3.282c.438-.496.738-.898.902-1.207.168-.312.252-.634.252-.966 0-.446-.134-.811-.404-1.096-.269-.285-.629-.428-1.078-.428-.539 0-.959.154-1.26.463-.297.305-.445.731-.445 1.277h-1.084c0-.785.252-1.42.756-1.904.508-.484 1.185-.726 2.033-.726.793 0 1.42.209 1.881.626.461.415.691.967.691 1.659 0 .84-.535 1.84-1.605 3l-2.285 2.478h4.283V231zm2.724-4.793h.815c.512-.008.914-.143 1.207-.404.293-.262.439-.616.439-1.061 0-1-.498-1.5-1.494-1.5-.469 0-.844.135-1.125.404-.277.266-.416.62-.416 1.061h-1.084c0-.676.246-1.236.739-1.682.496-.449 1.125-.673 1.886-.673.805 0 1.436.212 1.893.638.457.426.685 1.018.685 1.776 0 .371-.121.73-.363 1.078a2.16 2.16 0 01-.978.779c.468.148.83.395 1.084.738.257.344.386.764.386 1.26 0 .766-.25 1.373-.75 1.822-.5.45-1.15.674-1.951.674-.801 0-1.453-.217-1.957-.65-.5-.434-.75-1.006-.75-1.717h1.09c0 .449.146.809.439 1.078.293.27.686.404 1.178.404.524 0 .924-.136 1.201-.41.278-.273.416-.666.416-1.177 0-.497-.152-.877-.457-1.143-.304-.266-.744-.402-1.318-.41h-.815v-.885z" fill="#172755"/><path fill="#fff" d="M198 201h66v52h-66z"/><path d="M229.275 231h-5.59v-.779l2.953-3.282c.438-.496.738-.898.902-1.207.168-.312.252-.634.252-.966 0-.446-.134-.811-.404-1.096-.269-.285-.629-.428-1.078-.428-.539 0-.959.154-1.26.463-.297.305-.445.731-.445 1.277h-1.084c0-.785.252-1.42.756-1.904.508-.484 1.185-.726 2.033-.726.793 0 1.42.209 1.881.626.461.415.691.967.691 1.659 0 .84-.535 1.84-1.605 3l-2.285 2.478h4.283V231zm5.724-2.865h1.184v.885h-1.184V231h-1.089v-1.98h-3.885v-.639l3.82-5.912h1.154v5.666zm-3.744 0h2.655v-4.184l-.129.235-2.526 3.949z" fill="#172755"/><path fill="#fff" d="M264 201h66v52h-66z"/><path d="M295.275 231h-5.59v-.779l2.953-3.282c.438-.496.738-.898.902-1.207.168-.312.252-.634.252-.966 0-.446-.134-.811-.404-1.096-.269-.285-.629-.428-1.078-.428-.539 0-.959.154-1.26.463-.297.305-.445.731-.445 1.277h-1.084c0-.785.252-1.42.756-1.904.508-.484 1.185-.726 2.033-.726.793 0 1.42.209 1.881.626.461.415.691.967.691 1.659 0 .84-.535 1.84-1.605 3l-2.285 2.478h4.283V231zm1.646-4.277l.434-4.254h4.371v1.002h-3.451l-.258 2.326a2.755 2.755 0 011.424-.369c.777 0 1.394.258 1.851.773.457.512.686 1.205.686 2.08 0 .879-.238 1.572-.715 2.08-.473.504-1.135.756-1.986.756-.754 0-1.369-.209-1.846-.627-.476-.418-.748-.996-.814-1.734h1.025c.066.488.24.857.522 1.107.281.246.652.369 1.113.369.504 0 .898-.171 1.183-.515.289-.344.434-.819.434-1.424 0-.57-.156-1.027-.469-1.371-.308-.348-.72-.522-1.236-.522-.473 0-.844.104-1.113.311l-.287.234-.868-.222z" fill="#172755"/><path fill="#fff" d="M330 201h66v52h-66z"/><path d="M361.275 231h-5.59v-.779l2.953-3.282c.438-.496.738-.898.902-1.207.168-.312.252-.634.252-.966 0-.446-.134-.811-.404-1.096-.269-.285-.629-.428-1.078-.428-.539 0-.959.154-1.26.463-.297.305-.445.731-.445 1.277h-1.084c0-.785.252-1.42.756-1.904.508-.484 1.185-.726 2.033-.726.793 0 1.42.209 1.881.626.461.415.691.967.691 1.659 0 .84-.535 1.84-1.605 3l-2.285 2.478h4.283V231zm5.402-8.537v.92h-.199c-.844.015-1.516.265-2.016.75-.5.484-.789 1.166-.867 2.045.449-.516 1.063-.774 1.84-.774.742 0 1.334.262 1.775.785.446.524.668 1.2.668 2.028 0 .879-.24 1.582-.72 2.109-.477.527-1.118.791-1.922.791-.817 0-1.479-.312-1.987-.937-.507-.629-.761-1.438-.761-2.426v-.416c0-1.57.334-2.77 1.002-3.598.672-.832 1.67-1.258 2.994-1.277h.193zm-1.424 3.844c-.371 0-.713.111-1.025.334a1.735 1.735 0 00-.65.837v.399c0 .703.158 1.269.474 1.699.317.43.711.645 1.184.645.488 0 .871-.18 1.148-.539.281-.36.422-.83.422-1.412 0-.586-.142-1.059-.428-1.418a1.349 1.349 0 00-1.125-.545z" fill="#172755"/><path fill="#fff" d="M396 201h66v52h-66z"/><path d="M427.275 231h-5.59v-.779l2.953-3.282c.438-.496.738-.898.902-1.207.168-.312.252-.634.252-.966 0-.446-.134-.811-.404-1.096-.269-.285-.629-.428-1.078-.428-.539 0-.959.154-1.26.463-.297.305-.445.731-.445 1.277h-1.084c0-.785.252-1.42.756-1.904.508-.484 1.185-.726 2.033-.726.793 0 1.42.209 1.881.626.461.415.691.967.691 1.659 0 .84-.535 1.84-1.605 3l-2.285 2.478h4.283V231zm6.656-7.922L430.398 231h-1.137l3.522-7.641h-4.618v-.89h5.766v.609z" fill="#172755"/><path fill="#fff" d="M0 253h66v52H0z"/><path d="M31.275 283h-5.59v-.779l2.953-3.282c.438-.496.738-.898.902-1.207.168-.312.252-.634.252-.966 0-.446-.134-.811-.404-1.096-.27-.285-.629-.428-1.078-.428-.54 0-.959.154-1.26.463-.297.305-.445.731-.445 1.277H25.52c0-.785.252-1.42.756-1.904.508-.484 1.185-.726 2.033-.726.793 0 1.42.209 1.88.627.462.414.692.966.692 1.658 0 .84-.535 1.84-1.605 3l-2.285 2.478h4.283V283zm6.322-6.305c0 .426-.113.805-.34 1.137a2.267 2.267 0 01-.908.779 2.43 2.43 0 011.055.838c.261.367.392.783.392 1.248 0 .739-.25 1.326-.75 1.764-.496.437-1.15.656-1.963.656-.82 0-1.478-.219-1.974-.656-.492-.441-.739-1.029-.739-1.764 0-.461.126-.877.376-1.248a2.376 2.376 0 011.048-.844 2.231 2.231 0 01-.896-.779 2.009 2.009 0 01-.328-1.131c0-.718.23-1.289.691-1.711.461-.422 1.069-.632 1.822-.632.75 0 1.356.21 1.817.632.465.422.697.993.697 1.711zm-.885 3.979c0-.477-.152-.865-.457-1.166-.3-.301-.695-.451-1.183-.451-.489 0-.881.148-1.178.445-.293.297-.44.687-.44 1.172 0 .484.143.865.428 1.142.29.278.69.416 1.201.416.508 0 .907-.138 1.196-.416.289-.281.433-.662.433-1.142zm-1.629-5.432c-.425 0-.771.133-1.037.399-.261.261-.392.619-.392 1.072 0 .433.129.785.386 1.055.262.265.61.398 1.043.398.434 0 .78-.133 1.038-.398.261-.27.392-.622.392-1.055 0-.434-.135-.787-.404-1.061-.27-.273-.611-.41-1.026-.41z" fill="#172755"/><path fill="#fff" d="M66 253h66v52H66z"/><path d="M97.275 283h-5.59v-.779l2.953-3.282c.438-.496.738-.898.902-1.207.168-.312.252-.634.252-.966 0-.446-.134-.811-.404-1.096-.27-.285-.629-.428-1.078-.428-.54 0-.959.154-1.26.463-.297.305-.445.731-.445 1.277H91.52c0-.785.252-1.42.756-1.904.508-.484 1.185-.726 2.033-.726.793 0 1.42.209 1.88.627.462.414.692.966.692 1.658 0 .84-.535 1.84-1.605 3l-2.285 2.478h4.283V283zm5.303-3.75c-.227.27-.498.486-.815.65a2.183 2.183 0 01-1.031.246c-.492 0-.922-.121-1.29-.363a2.372 2.372 0 01-.843-1.019 3.507 3.507 0 01-.299-1.459c0-.571.108-1.084.323-1.541.218-.457.527-.807.925-1.049.399-.242.864-.363 1.395-.363.844 0 1.508.316 1.992.949.488.629.732 1.488.732 2.578v.316c0 1.66-.328 2.873-.984 3.639-.656.762-1.646 1.152-2.97 1.172H99.5v-.914h.229c.894-.016 1.582-.248 2.062-.697.481-.454.743-1.168.786-2.145zm-1.67 0a1.66 1.66 0 001.002-.334c.308-.223.533-.498.673-.826v-.434c0-.711-.154-1.289-.462-1.734-.309-.445-.7-.668-1.172-.668-.477 0-.86.184-1.149.551-.289.363-.433.843-.433 1.441 0 .582.138 1.063.416 1.442a1.34 1.34 0 001.125.562z" fill="#172755"/><path fill="#fff" d="M132 253h66v52h-66z"/><path d="M159.261 278.207h.815c.511-.008.914-.143 1.207-.404.293-.262.439-.615.439-1.061 0-1-.498-1.5-1.494-1.5-.469 0-.844.135-1.125.404-.277.266-.416.62-.416 1.061h-1.084c0-.676.246-1.236.738-1.682.496-.449 1.125-.673 1.887-.673.805 0 1.436.212 1.893.638.457.426.685 1.018.685 1.776 0 .371-.121.73-.363 1.078a2.162 2.162 0 01-.979.779c.469.148.83.395 1.084.738.258.344.387.764.387 1.26 0 .766-.25 1.373-.75 1.822-.5.45-1.15.674-1.951.674-.801 0-1.453-.217-1.957-.65-.5-.434-.75-1.006-.75-1.717h1.09c0 .449.146.809.439 1.078.293.27.686.404 1.178.404.523 0 .924-.136 1.201-.41.277-.273.416-.666.416-1.177 0-.497-.152-.877-.457-1.143-.305-.266-.744-.402-1.318-.41h-.815v-.885zm10.512 1.154c0 1.27-.217 2.213-.651 2.83-.433.618-1.111.926-2.033.926-.91 0-1.584-.301-2.021-.902-.438-.606-.664-1.508-.68-2.707v-1.447c0-1.254.217-2.186.651-2.795.433-.61 1.113-.914 2.039-.914.918 0 1.593.294 2.027.884.434.586.656 1.493.668 2.719v1.406zm-1.084-1.482c0-.918-.129-1.586-.387-2.004-.258-.422-.666-.633-1.224-.633-.555 0-.959.209-1.213.627-.254.418-.385 1.061-.393 1.928v1.734c0 .922.133 1.604.399 2.045.269.438.675.656 1.218.656.535 0 .932-.207 1.19-.621.261-.414.398-1.066.41-1.957v-1.775z" fill="#172755"/><path fill="#fff" d="M198 253h66v52h-66z"/><path d="M225.261 278.207h.815c.511-.008.914-.143 1.207-.404.293-.262.439-.615.439-1.061 0-1-.498-1.5-1.494-1.5-.469 0-.844.135-1.125.404-.277.266-.416.62-.416 1.061h-1.084c0-.676.246-1.236.738-1.682.496-.449 1.125-.673 1.887-.673.805 0 1.436.212 1.893.638.457.426.685 1.018.685 1.776 0 .371-.121.73-.363 1.078a2.162 2.162 0 01-.979.779c.469.148.83.395 1.084.738.258.344.387.764.387 1.26 0 .766-.25 1.373-.75 1.822-.5.45-1.15.674-1.951.674-.801 0-1.453-.217-1.957-.65-.5-.434-.75-1.006-.75-1.717h1.09c0 .449.146.809.439 1.078.293.27.686.404 1.178.404.523 0 .924-.136 1.201-.41.277-.273.416-.666.416-1.177 0-.497-.152-.877-.457-1.143-.305-.266-.744-.402-1.318-.41h-.815v-.885zm8.725 4.793h-1.09v-7.225l-2.186.803v-.984l3.106-1.166h.17V283z" fill="#172755"/><path fill="#fff" d="M264 253h66v52h-66zm66 0h66v52h-66zm66 0h66v52h-66z"/><path d="M19.803 4.469l2.789 6.96 2.789-6.96h1.459V13h-1.125V9.678l.105-3.586L23.02 13h-.862l-2.795-6.89.112 3.568V13H18.35V4.469h1.453zm15.586 4.54c0 .837-.141 1.567-.422 2.192-.282.621-.68 1.096-1.195 1.424-.516.328-1.118.492-1.805.492-.672 0-1.268-.164-1.787-.492-.52-.332-.924-.803-1.213-1.412-.285-.613-.432-1.322-.44-2.127V8.47c0-.82.143-1.545.428-2.174.285-.629.688-1.11 1.207-1.442.524-.335 1.121-.503 1.793-.503.684 0 1.285.166 1.805.498.523.328.925.806 1.207 1.435.281.625.422 1.354.422 2.186v.539zm-1.12-.55c0-1.012-.203-1.787-.609-2.326-.406-.543-.974-.815-1.705-.815-.71 0-1.271.272-1.682.815-.406.539-.615 1.289-.627 2.25v.627c0 .98.206 1.752.616 2.314.414.559.982.838 1.705.838.726 0 1.289-.264 1.687-.79.399-.532.604-1.292.615-2.28v-.633zM43.633 13h-1.131l-4.295-6.574V13h-1.13V4.469h1.13l4.307 6.603V4.47h1.119V13zm49.371-7.605h-2.742V13h-1.12V5.395h-2.736v-.926h6.598v.926zm7.271-.926v5.8c-.004.805-.257 1.463-.761 1.975-.5.512-1.18.799-2.04.861l-.298.012c-.934 0-1.678-.252-2.233-.756-.554-.504-.836-1.197-.843-2.08V4.47h1.113v5.777c0 .617.17 1.098.51 1.441.34.34.824.51 1.453.51.636 0 1.123-.17 1.459-.51.34-.34.51-.818.51-1.435V4.469h1.13zm6.598 4.588h-3.697v3.023h4.295V13h-5.42V4.469h5.361v.926h-4.236v2.742h3.697v.92zm46.283 1.253l.164 1.125.241-1.013 1.687-5.953h.949l1.647 5.953.234 1.031.182-1.148 1.324-5.836h1.131L158.646 13h-1.025l-1.758-6.217-.134-.65-.135.65L153.771 13h-1.025l-2.062-8.531h1.125l1.347 5.841zm13.635-1.253h-3.697v3.023h4.295V13h-5.42V4.469h5.361v.926h-4.236v2.742h3.697v.92zM168.789 13V4.469h2.408c.742 0 1.399.164 1.969.492.57.328 1.01.795 1.318 1.4.313.606.471 1.301.475 2.086v.545c0 .805-.156 1.51-.469 2.115a3.251 3.251 0 01-1.33 1.395c-.574.324-1.244.49-2.01.498h-2.361zm1.125-7.605v6.685h1.184c.867 0 1.541-.27 2.021-.809.485-.539.727-1.306.727-2.302V8.47c0-.97-.229-1.721-.686-2.256-.453-.54-1.098-.813-1.933-.82h-1.313zm54.223 0h-2.742V13h-1.12V5.395h-2.736v-.926h6.598v.926zM231.959 13h-1.131V9.057h-4.301V13h-1.125V4.469h1.125v3.668h4.301V4.469h1.131V13zm8.004-8.531v5.8c-.004.805-.258 1.463-.762 1.975-.5.512-1.18.799-2.039.861l-.299.012c-.933 0-1.677-.252-2.232-.756-.555-.504-.836-1.197-.844-2.08V4.47h1.113v5.777c0 .617.17 1.098.51 1.441.34.34.824.51 1.453.51.637 0 1.123-.17 1.459-.51.34-.34.51-.818.51-1.435V4.469h1.131zm52.084 4.763h-3.58V13h-1.125V4.469h5.285v.926h-4.16v2.918h3.58v.92zm5.057.317H295.1V13h-1.131V4.469h2.824c.961 0 1.699.218 2.215.656.519.438.779 1.074.779 1.91 0 .531-.144.994-.433 1.389-.286.394-.684.69-1.196.885l2.004 3.62V13h-1.207l-1.851-3.451zm-2.004-.92h1.728c.559 0 1.002-.145 1.33-.434.332-.289.498-.675.498-1.16 0-.527-.158-.931-.474-1.213-.313-.281-.766-.424-1.36-.427H295.1v3.234zM302.576 13h-1.125V4.469h1.125V13zm51.252-3.803c-.965-.277-1.668-.617-2.109-1.02a1.966 1.966 0 01-.657-1.5c0-.671.268-1.226.803-1.663.539-.442 1.239-.662 2.098-.662.586 0 1.107.113 1.564.34.461.226.817.538 1.067.937.254.398.381.834.381 1.307h-1.131c0-.516-.164-.92-.492-1.213-.329-.297-.791-.446-1.389-.446-.555 0-.988.123-1.301.37-.308.242-.463.58-.463 1.013 0 .348.147.643.44.885.297.238.799.457 1.506.656.71.2 1.265.42 1.664.662.402.239.699.518.89.838.196.32.293.697.293 1.131 0 .691-.269 1.246-.808 1.664-.539.414-1.26.621-2.163.621a4.04 4.04 0 01-1.64-.334c-.508-.226-.901-.535-1.178-.926a2.266 2.266 0 01-.41-1.33h1.131c0 .516.189.924.568 1.225.383.297.893.445 1.529.445.594 0 1.049-.12 1.366-.363.316-.242.474-.572.474-.99 0-.418-.146-.74-.439-.967-.293-.23-.824-.457-1.594-.68zm9.322 1.576h-3.574L358.773 13h-1.16l3.258-8.531h.984L365.119 13h-1.154l-.815-2.227zm-3.234-.925h2.9l-1.453-3.99-1.447 3.99zM371.4 5.395h-2.742V13h-1.119V5.395h-2.736v-.926h6.597v.926zm47.373 3.802c-.964-.277-1.668-.617-2.109-1.02a1.968 1.968 0 01-.656-1.5c0-.671.267-1.226.803-1.663.539-.442 1.238-.662 2.097-.662.586 0 1.108.113 1.565.34.461.226.816.538 1.066.937.254.398.381.834.381 1.307h-1.131c0-.516-.164-.92-.492-1.213-.328-.297-.791-.446-1.389-.446-.554 0-.988.123-1.301.37-.308.242-.462.58-.462 1.013 0 .348.146.643.439.885.297.238.799.457 1.506.656.711.2 1.265.42 1.664.662.402.239.699.518.891.838.195.32.293.697.293 1.131 0 .691-.27 1.246-.809 1.664-.539.414-1.26.621-2.162.621a4.042 4.042 0 01-1.641-.334c-.508-.226-.9-.535-1.178-.926a2.266 2.266 0 01-.41-1.33h1.131c0 .516.19.924.569 1.225.382.297.892.445 1.529.445.594 0 1.049-.12 1.365-.363.316-.242.475-.572.475-.99 0-.418-.147-.74-.44-.967-.293-.23-.824-.457-1.594-.68zm10.618-4.728v5.8c-.004.805-.258 1.463-.762 1.975-.5.512-1.18.799-2.039.861l-.299.012c-.934 0-1.678-.252-2.232-.756-.555-.504-.836-1.197-.844-2.08V4.47h1.113v5.777c0 .617.17 1.098.51 1.441.34.34.824.51 1.453.51.637 0 1.123-.17 1.459-.51.34-.34.51-.818.51-1.435V4.469h1.131zM437.723 13h-1.131l-4.295-6.574V13h-1.131V4.469h1.131l4.307 6.603V4.47h1.119V13z" fill="#8794BA"/></svg>