<svg width="61" height="60" fill="currentColor" xmlns="http://www.w3.org/2000/svg"><g clip-path="url(#clip0_335_18)" fill="#EF2A82"><path d="M48.118 6.71a28.709 28.709 0 00-17.207-5.675c-5.693 0-11.349 1.638-15.558 4.45v-4.45a1.035 1.035 0 00-2.069 0v6.507a1.033 1.033 0 001.696.796c3.945-3.277 9.9-5.235 15.93-5.235a26.66 26.66 0 0115.977 5.271 1.032 1.032 0 001.447-.216c.34-.46.244-1.107-.216-1.447zm11.718 5.704h-6.508a1.033 1.033 0 00-.794 1.697c3.277 3.944 5.234 9.9 5.234 15.93 0 5.797-1.822 11.32-5.27 15.976a1.034 1.034 0 101.662 1.231 28.71 28.71 0 005.676-17.208c0-5.692-1.639-11.349-4.45-15.557h4.45a1.035 1.035 0 000-2.07zM47.863 51.522a1.034 1.034 0 00-1.1.141c-3.946 3.277-9.902 5.235-15.932 5.235a26.655 26.655 0 01-15.976-5.271 1.034 1.034 0 10-1.232 1.662 28.71 28.71 0 0017.207 5.677c5.693 0 11.349-1.639 15.558-4.45v4.45a1.035 1.035 0 002.069 0v-6.508c0-.402-.232-.767-.594-.936zM9.209 45.89c-3.278-3.945-5.235-9.9-5.235-15.93a26.66 26.66 0 015.27-15.976 1.034 1.034 0 10-1.663-1.232A28.71 28.71 0 001.905 29.96c0 5.692 1.639 11.348 4.45 15.557h-4.45a1.035 1.035 0 000 2.07h6.508a1.034 1.034 0 00.796-1.696zm22.696-26.237a1.034 1.034 0 00-1.034-1.032h-.002a1.034 1.034 0 00-1.033 1.036l.025 10.345a1.034 1.034 0 001.034 1.032h.003a1.034 1.034 0 001.032-1.036l-.025-10.345z"/><path d="M30.895 28.965h-6.231a1.035 1.035 0 000 2.07h6.231a1.035 1.035 0 000-2.07z"/><path d="M30.87 8.276C18.893 8.276 9.147 18.02 9.147 30s9.746 21.724 21.725 21.724c11.979 0 21.724-9.745 21.724-21.724 0-11.98-9.745-21.724-21.724-21.724zm0 41.38c-10.838 0-19.655-8.818-19.655-19.656s8.817-19.655 19.656-19.655c10.838 0 19.655 8.817 19.655 19.655 0 10.838-8.817 19.655-19.655 19.655z"/><path d="M16.388 28.965h-2.069a1.035 1.035 0 000 2.07h2.069a1.035 1.035 0 000-2.07zm31.034 0h-2.069a1.035 1.035 0 000 2.07h2.07a1.035 1.035 0 000-2.07zM30.87 43.448c-.57 0-1.034.464-1.034 1.035v2.069a1.035 1.035 0 002.07 0v-2.07c0-.57-.464-1.034-1.035-1.034zm0-31.034c-.57 0-1.034.463-1.034 1.034v2.07a1.035 1.035 0 002.07 0v-2.07c0-.57-.464-1.034-1.035-1.034zm-9.613 27.2a1.033 1.033 0 00-1.463 0l-1.359 1.358a1.035 1.035 0 001.463 1.462l1.36-1.358a1.035 1.035 0 000-1.462zm22.048-22.048a1.033 1.033 0 00-1.463 0l-1.358 1.358a1.033 1.033 0 101.463 1.463l1.358-1.359a1.033 1.033 0 000-1.462zm0 23.406l-1.358-1.359a1.033 1.033 0 10-1.463 1.463l1.358 1.358a1.032 1.032 0 001.463 0 1.033 1.033 0 000-1.462zM21.257 18.924l-1.36-1.358a1.033 1.033 0 10-1.462 1.462l1.36 1.359a1.032 1.032 0 001.462 0 1.033 1.033 0 000-1.463z"/></g><defs><clipPath id="clip0_335_18"><path transform="translate(.87)" d="M0 0h60v60H0z"/></clipPath></defs></svg>