<svg width="61" height="60" fill="currentColor" xmlns="http://www.w3.org/2000/svg"><g clip-path="url(#clip0_335_64)" fill="#EF2A82"><path d="M19.934 23.391a.998.998 0 00-.824-.543l-8.412-.56a.982.982 0 00-.998.632l-6.065 15.5a.999.999 0 001.531 1.164l5.034-3.775 2.93.586a1 1 0 001.13-.624c1.575-4.122 3.47-7.956 5.63-11.393a1 1 0 00.044-.986zM12.7 34.268l-2.546-.509a1.007 1.007 0 00-.796.181l-2.579 1.934 4.517-11.543 6.037.402c-1.74 2.945-3.293 6.142-4.633 9.535zm25.884 15.906l-.561-8.413a1.001 1.001 0 00-1.53-.781c-3.438 2.16-7.27 4.055-11.393 5.63a.998.998 0 00-.624 1.129l.586 2.93-3.775 5.033a1 1 0 001.165 1.534l15.499-6.064a1 1 0 00.633-.998zm-13.588 3.917l1.933-2.579a1 1 0 00.18-.796l-.509-2.545a67.635 67.635 0 009.536-4.633l.403 6.036-11.543 4.517zM29.868 30h-6.737c-.363 0-.697.198-.874.515l-8.456 15.194a1 1 0 001.39 1.341l15.195-9.195a1 1 0 00.482-.855v-6a1 1 0 00-1-1zm-1 6.437L17.382 43.39 23.718 32h5.15v4.436z"/><path d="M60.82.964a1.001 1.001 0 00-.914-.914c-.332-.026-33.26-2.325-47.513 35.006a1 1 0 00.227 1.064l4.755 4.755c.223.223.535.325.848.283.31-.045.582-.233.735-.508L23.72 32h5.148v4.45l-8.702 5.493a1.003 1.003 0 00-.173 1.553l4.755 4.754a.999.999 0 001.064.227C63.146 34.223 60.848 1.295 60.82.964zm-5.245 17.74c-3.51 8.682-11.539 20.484-29.872 27.672l-3.41-3.41 8.11-5.119c.29-.184.465-.503.465-.846v-6a1 1 0 00-1-1H23.13a1 1 0 00-.876.518l-4.407 8.002-3.352-3.354C27.006 3.247 53.676 1.942 58.86 2.015c.037 2.332-.177 8.997-3.285 16.69zM18 44.164a.997.997 0 00-.903-.392 1 1 0 00-.392-.901c-1.507-1.14-3.453-1.52-5.34-1.041a6.726 6.726 0 00-4.493 3.75L.961 58.584a.998.998 0 001.324 1.324l13.006-5.912a6.723 6.723 0 003.748-4.492c.48-1.885.1-3.832-1.04-5.34zm-.899 4.85a4.737 4.737 0 01-2.637 3.163l-10.58 4.809 4.809-10.58a4.734 4.734 0 014.276-2.779c.623 0 1.232.134 1.787.392l-.952 1.685a1 1 0 001.362 1.363l1.685-.953c.41.882.503 1.901.25 2.9z"/><path d="M60.82.965a1.001 1.001 0 00-.914-.914c-.39-.031-9.66-.733-20.56 4.289a1 1 0 00-.29 1.614l15.86 15.86a1 1 0 001.615-.289c5.023-10.901 4.321-20.171 4.29-20.56zm-5.522 18.401L41.504 5.571c7.98-3.368 14.968-3.6 17.357-3.56.04 2.39-.185 9.357-3.563 17.355zm-10.267-3.527c-3.363-3.363-8.833-3.363-12.196 0-3.363 3.362-3.363 8.833 0 12.196a8.594 8.594 0 006.098 2.522 8.6 8.6 0 006.098-2.522c3.363-3.363 3.363-8.834 0-12.196zM43.617 26.62a6.632 6.632 0 01-9.368 0 6.632 6.632 0 010-9.368 6.605 6.605 0 014.684-1.937c1.696 0 3.392.646 4.684 1.937a6.632 6.632 0 010 9.368z"/><path d="M40.92 23.925a2.813 2.813 0 01-3.976 0 2.816 2.816 0 010-3.977 2.815 2.815 0 013.977 0 .999.999 0 101.413-1.414 4.817 4.817 0 00-6.804 0 4.817 4.817 0 000 6.805 4.798 4.798 0 003.403 1.407 4.792 4.792 0 003.401-1.407.999.999 0 10-1.413-1.414z"/></g><defs><clipPath id="clip0_335_64"><path transform="translate(.87)" d="M0 0h60v60H0z"/></clipPath></defs></svg>