<svg width="61" height="60" fill="none" xmlns="http://www.w3.org/2000/svg"><g clip-path="url(#clip0_535_2472)" fill="#EF2A82"><path d="M33.5 41h-6a1 1 0 000 2h6a1 1 0 000-2zM56.499 1H4.501A4.006 4.006 0 00.5 5.001V38a1 1 0 001 1h58a1 1 0 001-1V5.001A4.006 4.006 0 0056.499 1zM58.5 37h-56V5.001C2.5 3.897 3.398 3 4.501 3h51.998c1.103 0 2.001.897 2.001 2.001V37z"/><path d="M59.5 37h-58a1 1 0 00-1 1v4.999a4.006 4.006 0 004.001 4h51.998a4.006 4.006 0 004.001-4V38a1 1 0 00-1-1zm-1 5.999A2.003 2.003 0 0156.499 45H4.501A2.003 2.003 0 012.5 42.999V39h56v3.999z"/><path d="M55.5 5h-50a1 1 0 00-1 1v32a1 1 0 001 1h50a1 1 0 001-1V6a1 1 0 00-1-1zm-1 32h-48V7h48v30zm-11 16h-26c-1.654 0-3 1.346-3 3s1.346 3 3 3h26c1.654 0 3-1.346 3-3s-1.346-3-3-3zm0 4h-26a1.001 1.001 0 010-2h26a1.001 1.001 0 010 2z"/><path d="M41.5 53c-3.318 0-5-2.355-5-7a1 1 0 00-1-1h-10a1 1 0 00-1 1c0 4.645-1.682 7-5 7a1 1 0 000 2h22a1 1 0 000-2zm-17.13 0c1.232-1.364 1.957-3.395 2.103-6h8.055c.145 2.605.87 4.636 2.102 6H24.37zm23.914-22.536L45.87 28.05l1.343-1.343a1.001 1.001 0 00-.42-1.665l-9.999-3a.998.998 0 00-1.245 1.245l3 10a.999.999 0 001.665.42l1.414-1.415 2.414 2.415a.998.998 0 001.414 0l2.828-2.83a.999.999 0 000-1.413zm-3.535 2.122l-2.198-2.199a1.304 1.304 0 00-1.846-.001l-.722.722-1.985-6.617 6.617 1.985-.774.774c-.213.214-.33.498-.33.8 0 .303.118.589.332.801l2.32 2.32-1.414 1.415zM42.5 9h-28a1 1 0 00-1 1v5a1 1 0 001 1h28a1 1 0 001-1v-5a1 1 0 00-1-1zm-1 5h-26v-3h26v3zm-15 6h-8a1 1 0 00-1 1v4a1 1 0 001 1h8a1 1 0 001-1v-4a1 1 0 00-1-1zm-1 4h-6v-2h6v2z"/><path d="M42.5 9h-28a1 1 0 00-1 1v19a1 1 0 001 1h23.806a1 1 0 00.958-1.288l-1.266-4.221 4.215 1.265a.997.997 0 001.287-.958V10a1 1 0 00-1-1zm-1 14.454l-4.707-1.412a.998.998 0 00-1.245 1.246L36.962 28H15.5V11h26v12.454z"/></g><defs><clipPath id="clip0_535_2472"><path fill="#fff" transform="translate(.5)" d="M0 0h60v60H0z"/></clipPath></defs></svg>