<svg width="462" height="305" viewBox="0 0 462 305" fill="none" xmlns="http://www.w3.org/2000/svg">
<rect y="45" width="66" height="52" fill="white"/>
<rect x="66" y="45" width="66" height="52" fill="white"/>
<path d="M99.1166 75H98.0268V67.7754L95.8412 68.5781V67.5937L98.9467 66.4277H99.1166V75Z" fill="#172755"/>
<rect x="132" y="45" width="66" height="52" fill="white"/>
<path d="M167.144 75H161.554V74.2207L164.507 70.9394C164.945 70.4433 165.246 70.041 165.41 69.7324C165.578 69.4199 165.662 69.0976 165.662 68.7656C165.662 68.3203 165.527 67.955 165.257 67.6699C164.988 67.3847 164.628 67.2422 164.179 67.2422C163.64 67.2422 163.22 67.3965 162.919 67.705C162.622 68.0097 162.474 68.4355 162.474 68.9824H161.39C161.39 68.1972 161.642 67.5625 162.146 67.0781C162.654 66.5937 163.331 66.3515 164.179 66.3515C164.972 66.3515 165.599 66.5605 166.06 66.9785C166.521 67.3925 166.751 67.9453 166.751 68.6367C166.751 69.4765 166.216 70.4765 165.146 71.6367L162.861 74.1152H167.144V75Z" fill="#172755"/>
<rect x="198" y="45" width="66" height="52" fill="white"/>
<path d="M229.13 70.207H229.945C230.456 70.1992 230.859 70.0644 231.152 69.8027C231.445 69.541 231.591 69.1875 231.591 68.7422C231.591 67.7422 231.093 67.2422 230.097 67.2422C229.628 67.2422 229.253 67.3769 228.972 67.6465C228.695 67.9121 228.556 68.2656 228.556 68.707H227.472C227.472 68.0312 227.718 67.4707 228.21 67.0254C228.706 66.5761 229.335 66.3515 230.097 66.3515C230.902 66.3515 231.533 66.5644 231.99 66.9902C232.447 67.416 232.675 68.0078 232.675 68.7656C232.675 69.1367 232.554 69.4961 232.312 69.8437C232.074 70.1914 231.747 70.4511 231.333 70.623C231.802 70.7715 232.164 71.0175 232.417 71.3613C232.675 71.705 232.804 72.125 232.804 72.6211C232.804 73.3867 232.554 73.9941 232.054 74.4433C231.554 74.8925 230.904 75.1172 230.103 75.1172C229.302 75.1172 228.65 74.9004 228.146 74.4668C227.646 74.0332 227.396 73.4609 227.396 72.75H228.486C228.486 73.1992 228.632 73.5586 228.925 73.8281C229.218 74.0976 229.611 74.2324 230.103 74.2324C230.626 74.2324 231.027 74.0957 231.304 73.8222C231.581 73.5488 231.72 73.1562 231.72 72.6445C231.72 72.1484 231.568 71.7675 231.263 71.5019C230.958 71.2363 230.519 71.0996 229.945 71.0918H229.13V70.207Z" fill="#172755"/>
<rect x="264" y="45" width="66" height="52" fill="white"/>
<path d="M298.13 72.1347H299.314V73.0195H298.13V75H297.04V73.0195H293.156V72.3808L296.976 66.4687H298.13V72.1347ZM294.386 72.1347H297.04V67.9511L296.912 68.1855L294.386 72.1347Z" fill="#172755"/>
<rect x="330" y="45" width="66" height="52" fill="white"/>
<path d="M360.052 70.7226L360.486 66.4687H364.857V67.4707H361.406L361.148 69.7968C361.566 69.5508 362.04 69.4277 362.572 69.4277C363.349 69.4277 363.966 69.6855 364.423 70.2011C364.88 70.7129 365.109 71.4062 365.109 72.2812C365.109 73.1601 364.871 73.8535 364.394 74.3613C363.921 74.8652 363.259 75.1172 362.408 75.1172C361.654 75.1172 361.039 74.9082 360.562 74.4902C360.085 74.0722 359.814 73.4941 359.747 72.7558H360.773C360.839 73.2441 361.013 73.6133 361.294 73.8633C361.576 74.1093 361.947 74.2324 362.408 74.2324C362.912 74.2324 363.306 74.0605 363.591 73.7168C363.88 73.373 364.025 72.8984 364.025 72.2929C364.025 71.7226 363.869 71.2656 363.556 70.9218C363.247 70.5742 362.835 70.4004 362.32 70.4004C361.847 70.4004 361.476 70.5039 361.206 70.7109L360.919 70.9453L360.052 70.7226Z" fill="#172755"/>
<rect x="396" y="45" width="66" height="52" fill="white"/>
<path d="M429.808 66.4629V67.3828H429.609C428.765 67.3984 428.093 67.6484 427.593 68.1328C427.093 68.6172 426.804 69.2988 426.726 70.1777C427.175 69.6621 427.789 69.4043 428.566 69.4043C429.308 69.4043 429.9 69.666 430.341 70.1894C430.787 70.7129 431.009 71.3886 431.009 72.2168C431.009 73.0957 430.769 73.7988 430.289 74.3261C429.812 74.8535 429.171 75.1172 428.367 75.1172C427.55 75.1172 426.888 74.8047 426.38 74.1797C425.872 73.5508 425.619 72.7422 425.619 71.7539V71.3379C425.619 69.7675 425.953 68.5683 426.621 67.7402C427.292 66.9082 428.29 66.4824 429.615 66.4629H429.808ZM428.384 70.3066C428.013 70.3066 427.671 70.4179 427.359 70.6406C427.046 70.8633 426.83 71.1425 426.708 71.4785V71.8769C426.708 72.58 426.867 73.1465 427.183 73.5761C427.499 74.0058 427.894 74.2207 428.367 74.2207C428.855 74.2207 429.238 74.041 429.515 73.6816C429.796 73.3222 429.937 72.8515 429.937 72.2695C429.937 71.6836 429.794 71.2109 429.509 70.8515C429.228 70.4883 428.853 70.3066 428.384 70.3066Z" fill="#172755"/>
<rect y="97" width="66" height="52" fill="white"/>
<path d="M35.0619 119.078L31.5287 127H30.392L33.9135 119.359H29.2963V118.469H35.0619V119.078Z" fill="#172755"/>
<rect x="66" y="97" width="66" height="52" fill="white"/>
<circle cx="98.5" cy="122.5" r="19.5" fill="#0088F0"/>
<path d="M100.728 120.695C100.728 121.121 100.615 121.5 100.388 121.832C100.165 122.164 99.8627 122.424 99.4799 122.611C99.9252 122.803 100.277 123.082 100.535 123.449C100.796 123.816 100.927 124.232 100.927 124.697C100.927 125.436 100.677 126.023 100.177 126.461C99.6811 126.898 99.0268 127.117 98.2143 127.117C97.394 127.117 96.7358 126.898 96.2397 126.461C95.7475 126.02 95.5014 125.432 95.5014 124.697C95.5014 124.236 95.6264 123.82 95.8764 123.449C96.1303 123.078 96.4799 122.797 96.9252 122.605C96.5463 122.418 96.2475 122.158 96.0287 121.826C95.81 121.494 95.7006 121.117 95.7006 120.695C95.7006 119.977 95.9311 119.406 96.392 118.984C96.853 118.562 97.4604 118.352 98.2143 118.352C98.9643 118.352 99.5698 118.562 100.031 118.984C100.496 119.406 100.728 119.977 100.728 120.695ZM99.8432 124.674C99.8432 124.197 99.6908 123.809 99.3862 123.508C99.0854 123.207 98.6908 123.057 98.2026 123.057C97.7143 123.057 97.3217 123.205 97.0248 123.502C96.7319 123.799 96.5854 124.189 96.5854 124.674C96.5854 125.158 96.728 125.539 97.0131 125.816C97.3022 126.094 97.7026 126.232 98.2143 126.232C98.7221 126.232 99.1205 126.094 99.4096 125.816C99.6987 125.535 99.8432 125.154 99.8432 124.674ZM98.2143 119.242C97.7885 119.242 97.4428 119.375 97.1772 119.641C96.9155 119.902 96.7846 120.26 96.7846 120.713C96.7846 121.146 96.9135 121.498 97.1713 121.768C97.433 122.033 97.7807 122.166 98.2143 122.166C98.6479 122.166 98.9936 122.033 99.2514 121.768C99.5131 121.498 99.644 121.146 99.644 120.713C99.644 120.279 99.5092 119.926 99.2397 119.652C98.9701 119.379 98.6283 119.242 98.2143 119.242Z" fill="#EEEEF7"/>
<rect x="132" y="97" width="66" height="52" fill="white"/>
<circle cx="164.5" cy="122.5" r="19.5" fill="#0088F0"/>
<path d="M165.708 123.25C165.482 123.52 165.21 123.736 164.894 123.9C164.581 124.064 164.238 124.146 163.863 124.146C163.371 124.146 162.941 124.025 162.574 123.783C162.21 123.541 161.929 123.201 161.73 122.764C161.531 122.322 161.431 121.836 161.431 121.305C161.431 120.734 161.539 120.221 161.753 119.764C161.972 119.307 162.281 118.957 162.679 118.715C163.078 118.473 163.542 118.352 164.074 118.352C164.917 118.352 165.581 118.668 166.066 119.301C166.554 119.93 166.798 120.789 166.798 121.879V122.195C166.798 123.855 166.47 125.068 165.814 125.834C165.158 126.596 164.167 126.986 162.843 127.006H162.632V126.092H162.861C163.755 126.076 164.443 125.844 164.923 125.395C165.404 124.941 165.665 124.227 165.708 123.25ZM164.039 123.25C164.402 123.25 164.736 123.139 165.04 122.916C165.349 122.693 165.574 122.418 165.714 122.09V121.656C165.714 120.945 165.56 120.367 165.251 119.922C164.943 119.477 164.552 119.254 164.08 119.254C163.603 119.254 163.22 119.437 162.931 119.805C162.642 120.168 162.497 120.648 162.497 121.246C162.497 121.828 162.636 122.309 162.914 122.687C163.195 123.062 163.57 123.25 164.039 123.25Z" fill="#EEEEF7"/>
<rect x="198" y="97" width="66" height="52" fill="white"/>
<circle cx="230.5" cy="122.5" r="19.5" fill="#0088F0"/>
<path d="M227.247 127H226.158V119.775L223.972 120.578V119.594L227.078 118.428H227.247V127ZM235.773 123.361C235.773 124.631 235.556 125.574 235.122 126.191C234.689 126.809 234.011 127.117 233.089 127.117C232.179 127.117 231.505 126.816 231.068 126.215C230.63 125.609 230.404 124.707 230.388 123.508V122.061C230.388 120.807 230.605 119.875 231.039 119.266C231.472 118.656 232.152 118.352 233.078 118.352C233.996 118.352 234.671 118.646 235.105 119.236C235.539 119.822 235.761 120.728 235.773 121.955V123.361ZM234.689 121.879C234.689 120.961 234.56 120.293 234.302 119.875C234.044 119.453 233.636 119.242 233.078 119.242C232.523 119.242 232.119 119.451 231.865 119.869C231.611 120.287 231.48 120.93 231.472 121.797V123.531C231.472 124.453 231.605 125.135 231.871 125.576C232.14 126.014 232.546 126.232 233.089 126.232C233.624 126.232 234.021 126.025 234.279 125.611C234.54 125.197 234.677 124.545 234.689 123.654V121.879Z" fill="#EEEEF7"/>
<rect x="264" y="97" width="66" height="52" fill="white"/>
<path d="M293.247 127H292.158V119.775L289.972 120.578V119.594L293.078 118.428H293.247V127ZM299.986 127H298.896V119.775L296.71 120.578V119.594L299.816 118.428H299.986V127Z" fill="#172755"/>
<rect x="330" y="97" width="66" height="52" fill="white"/>
<path d="M359.247 127H358.158V119.775L355.972 120.578V119.594L359.078 118.428H359.247V127ZM368.013 127H362.423V126.221L365.376 122.939C365.814 122.443 366.115 122.041 366.279 121.732C366.447 121.42 366.531 121.098 366.531 120.766C366.531 120.32 366.396 119.955 366.126 119.67C365.857 119.385 365.497 119.242 365.048 119.242C364.509 119.242 364.089 119.396 363.789 119.705C363.492 120.01 363.343 120.436 363.343 120.982H362.259C362.259 120.197 362.511 119.562 363.015 119.078C363.523 118.594 364.201 118.352 365.048 118.352C365.841 118.352 366.468 118.561 366.929 118.978C367.39 119.393 367.621 119.945 367.621 120.637C367.621 121.477 367.085 122.477 366.015 123.637L363.73 126.115H368.013V127Z" fill="#172755"/>
<rect x="396" y="97" width="66" height="52" fill="white"/>
<path d="M425.247 127H424.158V119.775L421.972 120.578V119.594L425.078 118.428H425.247V127ZM429.999 122.207H430.814C431.326 122.199 431.728 122.064 432.021 121.803C432.314 121.541 432.46 121.187 432.46 120.742C432.46 119.742 431.962 119.242 430.966 119.242C430.497 119.242 430.122 119.377 429.841 119.646C429.564 119.912 429.425 120.266 429.425 120.707H428.341C428.341 120.031 428.587 119.471 429.08 119.025C429.576 118.576 430.205 118.352 430.966 118.352C431.771 118.352 432.402 118.564 432.859 118.99C433.316 119.416 433.544 120.008 433.544 120.766C433.544 121.137 433.423 121.496 433.181 121.844C432.943 122.191 432.617 122.451 432.203 122.623C432.671 122.771 433.033 123.018 433.287 123.361C433.544 123.705 433.673 124.125 433.673 124.621C433.673 125.387 433.423 125.994 432.923 126.443C432.423 126.893 431.773 127.117 430.972 127.117C430.171 127.117 429.519 126.9 429.015 126.467C428.515 126.033 428.265 125.461 428.265 124.75H429.355C429.355 125.199 429.501 125.559 429.794 125.828C430.087 126.098 430.48 126.232 430.972 126.232C431.496 126.232 431.896 126.096 432.173 125.822C432.451 125.549 432.589 125.156 432.589 124.645C432.589 124.148 432.437 123.768 432.132 123.502C431.828 123.236 431.388 123.1 430.814 123.092H429.999V122.207Z" fill="#172755"/>
<rect y="149" width="66" height="52" fill="white"/>
<path d="M29.2475 179H28.1576V171.775L25.9721 172.578V171.594L29.0776 170.428H29.2475V179ZM36.9994 176.135H38.183V177.02H36.9994V179H35.9096V177.02H32.0248V176.381L35.8451 170.469H36.9994V176.135ZM33.2553 176.135H35.9096V171.951L35.7807 172.186L33.2553 176.135Z" fill="#172755"/>
<rect x="66" y="149" width="66" height="52" fill="white"/>
<path d="M95.2475 179H94.1576V171.775L91.9721 172.578V171.594L95.0776 170.428H95.2475V179ZM98.9213 174.723L99.3549 170.469H103.726V171.471H100.275L100.017 173.797C100.435 173.551 100.91 173.428 101.441 173.428C102.218 173.428 102.835 173.686 103.292 174.201C103.749 174.713 103.978 175.406 103.978 176.281C103.978 177.16 103.74 177.853 103.263 178.361C102.79 178.865 102.128 179.117 101.277 179.117C100.523 179.117 99.9076 178.908 99.4311 178.49C98.9545 178.072 98.683 177.494 98.6166 176.756H99.642C99.7084 177.244 99.8823 177.613 100.164 177.863C100.445 178.109 100.816 178.232 101.277 178.232C101.781 178.232 102.175 178.061 102.46 177.717C102.749 177.373 102.894 176.898 102.894 176.293C102.894 175.723 102.738 175.266 102.425 174.922C102.117 174.574 101.705 174.4 101.189 174.4C100.716 174.4 100.345 174.504 100.076 174.711L99.7885 174.945L98.9213 174.723Z" fill="#172755"/>
<rect x="132" y="149" width="66" height="52" fill="white"/>
<path d="M161.247 179H160.158V171.775L157.972 172.578V171.594L161.078 170.428H161.247V179ZM168.677 170.463V171.383H168.478C167.634 171.398 166.962 171.648 166.462 172.133C165.962 172.617 165.673 173.299 165.595 174.178C166.044 173.662 166.658 173.404 167.435 173.404C168.177 173.404 168.769 173.666 169.21 174.189C169.656 174.713 169.878 175.389 169.878 176.217C169.878 177.096 169.638 177.799 169.158 178.326C168.681 178.853 168.04 179.117 167.236 179.117C166.419 179.117 165.757 178.805 165.249 178.18C164.742 177.551 164.488 176.742 164.488 175.754V175.338C164.488 173.768 164.822 172.568 165.49 171.74C166.162 170.908 167.16 170.482 168.484 170.463H168.677ZM167.253 174.307C166.882 174.307 166.54 174.418 166.228 174.641C165.915 174.863 165.699 175.143 165.578 175.478V175.877C165.578 176.58 165.736 177.146 166.052 177.576C166.369 178.006 166.763 178.221 167.236 178.221C167.724 178.221 168.107 178.041 168.384 177.682C168.665 177.322 168.806 176.852 168.806 176.27C168.806 175.684 168.664 175.211 168.378 174.852C168.097 174.488 167.722 174.307 167.253 174.307Z" fill="#172755"/>
<rect x="198" y="149" width="66" height="52" fill="white"/>
<path d="M227.247 179H226.158V171.775L223.972 172.578V171.594L227.078 170.428H227.247V179ZM235.931 171.078L232.398 179H231.261L234.783 171.359H230.165V170.469H235.931V171.078Z" fill="#172755"/>
<rect x="264" y="149" width="66" height="52" fill="white"/>
<circle cx="296.5" cy="174.5" r="19.5" fill="#EF2A82"/>
<path d="M293.247 179H292.158V171.775L289.972 172.578V171.594L293.078 170.428H293.247V179ZM301.597 172.695C301.597 173.121 301.484 173.5 301.257 173.832C301.035 174.164 300.732 174.424 300.349 174.611C300.794 174.803 301.146 175.082 301.404 175.449C301.665 175.816 301.796 176.232 301.796 176.697C301.796 177.436 301.546 178.023 301.046 178.461C300.55 178.898 299.896 179.117 299.083 179.117C298.263 179.117 297.605 178.898 297.109 178.461C296.617 178.02 296.371 177.432 296.371 176.697C296.371 176.236 296.496 175.82 296.746 175.449C296.999 175.078 297.349 174.797 297.794 174.605C297.415 174.418 297.117 174.158 296.898 173.826C296.679 173.494 296.57 173.117 296.57 172.695C296.57 171.977 296.8 171.406 297.261 170.984C297.722 170.562 298.33 170.352 299.083 170.352C299.833 170.352 300.439 170.562 300.9 170.984C301.365 171.406 301.597 171.977 301.597 172.695ZM300.712 176.674C300.712 176.197 300.56 175.809 300.255 175.508C299.955 175.207 299.56 175.057 299.072 175.057C298.583 175.057 298.191 175.205 297.894 175.502C297.601 175.799 297.455 176.189 297.455 176.674C297.455 177.158 297.597 177.539 297.882 177.816C298.171 178.094 298.572 178.232 299.083 178.232C299.591 178.232 299.99 178.094 300.279 177.816C300.568 177.535 300.712 177.154 300.712 176.674ZM299.083 171.242C298.658 171.242 298.312 171.375 298.046 171.641C297.785 171.902 297.654 172.26 297.654 172.713C297.654 173.146 297.783 173.498 298.04 173.768C298.302 174.033 298.65 174.166 299.083 174.166C299.517 174.166 299.863 174.033 300.121 173.768C300.382 173.498 300.513 173.146 300.513 172.713C300.513 172.279 300.378 171.926 300.109 171.652C299.839 171.379 299.497 171.242 299.083 171.242Z" fill="#EEEEF7"/>
<rect x="330" y="149" width="66" height="52" fill="white"/>
<path d="M359.247 179H358.158V171.775L355.972 172.578V171.594L359.078 170.428H359.247V179ZM366.578 175.25C366.351 175.52 366.08 175.736 365.763 175.9C365.451 176.064 365.107 176.146 364.732 176.146C364.24 176.146 363.81 176.025 363.443 175.783C363.08 175.541 362.798 175.201 362.599 174.764C362.4 174.322 362.3 173.836 362.3 173.305C362.3 172.734 362.408 172.221 362.622 171.764C362.841 171.307 363.15 170.957 363.548 170.715C363.947 170.473 364.412 170.352 364.943 170.352C365.787 170.352 366.451 170.668 366.935 171.301C367.423 171.93 367.667 172.789 367.667 173.879V174.195C367.667 175.855 367.339 177.068 366.683 177.834C366.027 178.596 365.037 178.986 363.712 179.006H363.501V178.092H363.73C364.624 178.076 365.312 177.844 365.792 177.395C366.273 176.941 366.535 176.227 366.578 175.25ZM364.908 175.25C365.271 175.25 365.605 175.139 365.91 174.916C366.218 174.693 366.443 174.418 366.583 174.09V173.656C366.583 172.945 366.429 172.367 366.121 171.922C365.812 171.477 365.421 171.254 364.949 171.254C364.472 171.254 364.089 171.437 363.8 171.805C363.511 172.168 363.367 172.648 363.367 173.246C363.367 173.828 363.505 174.309 363.783 174.687C364.064 175.062 364.439 175.25 364.908 175.25Z" fill="#172755"/>
<rect x="396" y="149" width="66" height="52" fill="white"/>
<path d="M427.275 179H421.685V178.221L424.638 174.939C425.076 174.443 425.376 174.041 425.54 173.732C425.708 173.42 425.792 173.098 425.792 172.766C425.792 172.32 425.658 171.955 425.388 171.67C425.119 171.385 424.759 171.242 424.31 171.242C423.771 171.242 423.351 171.396 423.05 171.705C422.753 172.01 422.605 172.436 422.605 172.982H421.521C421.521 172.197 421.773 171.562 422.277 171.078C422.785 170.594 423.462 170.352 424.31 170.352C425.103 170.352 425.73 170.561 426.191 170.978C426.652 171.393 426.882 171.945 426.882 172.637C426.882 173.477 426.347 174.477 425.277 175.637L422.992 178.115H427.275V179ZM433.773 175.361C433.773 176.631 433.556 177.574 433.122 178.191C432.689 178.809 432.011 179.117 431.089 179.117C430.179 179.117 429.505 178.816 429.068 178.215C428.63 177.609 428.404 176.707 428.388 175.508V174.061C428.388 172.807 428.605 171.875 429.039 171.266C429.472 170.656 430.152 170.352 431.078 170.352C431.996 170.352 432.671 170.646 433.105 171.236C433.539 171.822 433.761 172.728 433.773 173.955V175.361ZM432.689 173.879C432.689 172.961 432.56 172.293 432.302 171.875C432.044 171.453 431.636 171.242 431.078 171.242C430.523 171.242 430.119 171.451 429.865 171.869C429.611 172.287 429.48 172.93 429.472 173.797V175.531C429.472 176.453 429.605 177.135 429.871 177.576C430.14 178.014 430.546 178.232 431.089 178.232C431.624 178.232 432.021 178.025 432.279 177.611C432.54 177.197 432.677 176.545 432.689 175.654V173.879Z" fill="#172755"/>
<rect y="201" width="66" height="52" fill="white"/>
<path d="M31.2748 231H25.685V230.221L28.6381 226.939C29.0756 226.443 29.3764 226.041 29.5405 225.732C29.7084 225.42 29.7924 225.098 29.7924 224.766C29.7924 224.32 29.6576 223.955 29.3881 223.67C29.1186 223.385 28.7592 223.242 28.31 223.242C27.7709 223.242 27.351 223.396 27.0502 223.705C26.7533 224.01 26.6049 224.436 26.6049 224.982H25.5209C25.5209 224.197 25.7729 223.562 26.2768 223.078C26.7846 222.594 27.4623 222.352 28.31 222.352C29.103 222.352 29.7299 222.561 30.1908 222.978C30.6518 223.393 30.8823 223.945 30.8823 224.637C30.8823 225.477 30.3471 226.477 29.2768 227.637L26.9916 230.115H31.2748V231ZM35.9858 231H34.8959V223.775L32.7104 224.578V223.594L35.8158 222.428H35.9858V231Z" fill="#172755"/>
<rect x="66" y="201" width="66" height="52" fill="white"/>
<path d="M97.2748 231H91.685V230.221L94.6381 226.939C95.0756 226.443 95.3764 226.041 95.5405 225.732C95.7084 225.42 95.7924 225.098 95.7924 224.766C95.7924 224.32 95.6576 223.955 95.3881 223.67C95.1186 223.385 94.7592 223.242 94.31 223.242C93.7709 223.242 93.351 223.396 93.0502 223.705C92.7533 224.01 92.6049 224.436 92.6049 224.982H91.5209C91.5209 224.197 91.7729 223.562 92.2768 223.078C92.7846 222.594 93.4623 222.352 94.31 222.352C95.103 222.352 95.7299 222.561 96.1908 222.978C96.6518 223.393 96.8823 223.945 96.8823 224.637C96.8823 225.477 96.3471 226.477 95.2768 227.637L92.9916 230.115H97.2748V231ZM104.013 231H98.4233V230.221L101.376 226.939C101.814 226.443 102.115 226.041 102.279 225.732C102.447 225.42 102.531 225.098 102.531 224.766C102.531 224.32 102.396 223.955 102.126 223.67C101.857 223.385 101.497 223.242 101.048 223.242C100.509 223.242 100.089 223.396 99.7885 223.705C99.4916 224.01 99.3432 224.436 99.3432 224.982H98.2592C98.2592 224.197 98.5112 223.562 99.0151 223.078C99.5229 222.594 100.201 222.352 101.048 222.352C101.841 222.352 102.468 222.561 102.929 222.978C103.39 223.393 103.621 223.945 103.621 224.637C103.621 225.477 103.085 226.477 102.015 227.637L99.7299 230.115H104.013V231Z" fill="#172755"/>
<rect x="132" y="201" width="66" height="52" fill="white"/>
<path d="M163.275 231H157.685V230.221L160.638 226.939C161.076 226.443 161.376 226.041 161.54 225.732C161.708 225.42 161.792 225.098 161.792 224.766C161.792 224.32 161.658 223.955 161.388 223.67C161.119 223.385 160.759 223.242 160.31 223.242C159.771 223.242 159.351 223.396 159.05 223.705C158.753 224.01 158.605 224.436 158.605 224.982H157.521C157.521 224.197 157.773 223.562 158.277 223.078C158.785 222.594 159.462 222.352 160.31 222.352C161.103 222.352 161.73 222.561 162.191 222.978C162.652 223.393 162.882 223.945 162.882 224.637C162.882 225.477 162.347 226.477 161.277 227.637L158.992 230.115H163.275V231ZM165.999 226.207H166.814C167.326 226.199 167.728 226.064 168.021 225.803C168.314 225.541 168.46 225.187 168.46 224.742C168.46 223.742 167.962 223.242 166.966 223.242C166.497 223.242 166.122 223.377 165.841 223.646C165.564 223.912 165.425 224.266 165.425 224.707H164.341C164.341 224.031 164.587 223.471 165.08 223.025C165.576 222.576 166.205 222.352 166.966 222.352C167.771 222.352 168.402 222.564 168.859 222.99C169.316 223.416 169.544 224.008 169.544 224.766C169.544 225.137 169.423 225.496 169.181 225.844C168.943 226.191 168.617 226.451 168.203 226.623C168.671 226.771 169.033 227.018 169.287 227.361C169.544 227.705 169.673 228.125 169.673 228.621C169.673 229.387 169.423 229.994 168.923 230.443C168.423 230.893 167.773 231.117 166.972 231.117C166.171 231.117 165.519 230.9 165.015 230.467C164.515 230.033 164.265 229.461 164.265 228.75H165.355C165.355 229.199 165.501 229.559 165.794 229.828C166.087 230.098 166.48 230.232 166.972 230.232C167.496 230.232 167.896 230.096 168.173 229.822C168.451 229.549 168.589 229.156 168.589 228.645C168.589 228.148 168.437 227.768 168.132 227.502C167.828 227.236 167.388 227.1 166.814 227.092H165.999V226.207Z" fill="#172755"/>
<rect x="198" y="201" width="66" height="52" fill="white"/>
<path d="M229.275 231H223.685V230.221L226.638 226.939C227.076 226.443 227.376 226.041 227.54 225.732C227.708 225.42 227.792 225.098 227.792 224.766C227.792 224.32 227.658 223.955 227.388 223.67C227.119 223.385 226.759 223.242 226.31 223.242C225.771 223.242 225.351 223.396 225.05 223.705C224.753 224.01 224.605 224.436 224.605 224.982H223.521C223.521 224.197 223.773 223.562 224.277 223.078C224.785 222.594 225.462 222.352 226.31 222.352C227.103 222.352 227.73 222.561 228.191 222.978C228.652 223.393 228.882 223.945 228.882 224.637C228.882 225.477 228.347 226.477 227.277 227.637L224.992 230.115H229.275V231ZM234.999 228.135H236.183V229.02H234.999V231H233.91V229.02H230.025V228.381L233.845 222.469H234.999V228.135ZM231.255 228.135H233.91V223.951L233.781 224.186L231.255 228.135Z" fill="#172755"/>
<rect x="264" y="201" width="66" height="52" fill="white"/>
<path d="M295.275 231H289.685V230.221L292.638 226.939C293.076 226.443 293.376 226.041 293.54 225.732C293.708 225.42 293.792 225.098 293.792 224.766C293.792 224.32 293.658 223.955 293.388 223.67C293.119 223.385 292.759 223.242 292.31 223.242C291.771 223.242 291.351 223.396 291.05 223.705C290.753 224.01 290.605 224.436 290.605 224.982H289.521C289.521 224.197 289.773 223.562 290.277 223.078C290.785 222.594 291.462 222.352 292.31 222.352C293.103 222.352 293.73 222.561 294.191 222.978C294.652 223.393 294.882 223.945 294.882 224.637C294.882 225.477 294.347 226.477 293.277 227.637L290.992 230.115H295.275V231ZM296.921 226.723L297.355 222.469H301.726V223.471H298.275L298.017 225.797C298.435 225.551 298.91 225.428 299.441 225.428C300.218 225.428 300.835 225.686 301.292 226.201C301.749 226.713 301.978 227.406 301.978 228.281C301.978 229.16 301.74 229.853 301.263 230.361C300.79 230.865 300.128 231.117 299.277 231.117C298.523 231.117 297.908 230.908 297.431 230.49C296.955 230.072 296.683 229.494 296.617 228.756H297.642C297.708 229.244 297.882 229.613 298.164 229.863C298.445 230.109 298.816 230.232 299.277 230.232C299.781 230.232 300.175 230.061 300.46 229.717C300.749 229.373 300.894 228.898 300.894 228.293C300.894 227.723 300.738 227.266 300.425 226.922C300.117 226.574 299.705 226.4 299.189 226.4C298.716 226.4 298.345 226.504 298.076 226.711L297.789 226.945L296.921 226.723Z" fill="#172755"/>
<rect x="330" y="201" width="66" height="52" fill="white"/>
<path d="M361.275 231H355.685V230.221L358.638 226.939C359.076 226.443 359.376 226.041 359.54 225.732C359.708 225.42 359.792 225.098 359.792 224.766C359.792 224.32 359.658 223.955 359.388 223.67C359.119 223.385 358.759 223.242 358.31 223.242C357.771 223.242 357.351 223.396 357.05 223.705C356.753 224.01 356.605 224.436 356.605 224.982H355.521C355.521 224.197 355.773 223.562 356.277 223.078C356.785 222.594 357.462 222.352 358.31 222.352C359.103 222.352 359.73 222.561 360.191 222.978C360.652 223.393 360.882 223.945 360.882 224.637C360.882 225.477 360.347 226.477 359.277 227.637L356.992 230.115H361.275V231ZM366.677 222.463V223.383H366.478C365.634 223.398 364.962 223.648 364.462 224.133C363.962 224.617 363.673 225.299 363.595 226.178C364.044 225.662 364.658 225.404 365.435 225.404C366.177 225.404 366.769 225.666 367.21 226.189C367.656 226.713 367.878 227.389 367.878 228.217C367.878 229.096 367.638 229.799 367.158 230.326C366.681 230.853 366.04 231.117 365.236 231.117C364.419 231.117 363.757 230.805 363.249 230.18C362.742 229.551 362.488 228.742 362.488 227.754V227.338C362.488 225.768 362.822 224.568 363.49 223.74C364.162 222.908 365.16 222.482 366.484 222.463H366.677ZM365.253 226.307C364.882 226.307 364.54 226.418 364.228 226.641C363.915 226.863 363.699 227.143 363.578 227.478V227.877C363.578 228.58 363.736 229.146 364.052 229.576C364.369 230.006 364.763 230.221 365.236 230.221C365.724 230.221 366.107 230.041 366.384 229.682C366.665 229.322 366.806 228.852 366.806 228.27C366.806 227.684 366.664 227.211 366.378 226.852C366.097 226.488 365.722 226.307 365.253 226.307Z" fill="#172755"/>
<rect x="396" y="201" width="66" height="52" fill="white"/>
<path d="M427.275 231H421.685V230.221L424.638 226.939C425.076 226.443 425.376 226.041 425.54 225.732C425.708 225.42 425.792 225.098 425.792 224.766C425.792 224.32 425.658 223.955 425.388 223.67C425.119 223.385 424.759 223.242 424.31 223.242C423.771 223.242 423.351 223.396 423.05 223.705C422.753 224.01 422.605 224.436 422.605 224.982H421.521C421.521 224.197 421.773 223.562 422.277 223.078C422.785 222.594 423.462 222.352 424.31 222.352C425.103 222.352 425.73 222.561 426.191 222.978C426.652 223.393 426.882 223.945 426.882 224.637C426.882 225.477 426.347 226.477 425.277 227.637L422.992 230.115H427.275V231ZM433.931 223.078L430.398 231H429.261L432.783 223.359H428.165V222.469H433.931V223.078Z" fill="#172755"/>
<rect y="253" width="66" height="52" fill="white"/>
<path d="M31.2748 283H25.685V282.221L28.6381 278.939C29.0756 278.443 29.3764 278.041 29.5405 277.732C29.7084 277.42 29.7924 277.098 29.7924 276.766C29.7924 276.32 29.6576 275.955 29.3881 275.67C29.1186 275.385 28.7592 275.242 28.31 275.242C27.7709 275.242 27.351 275.396 27.0502 275.705C26.7533 276.01 26.6049 276.436 26.6049 276.982H25.5209C25.5209 276.197 25.7729 275.562 26.2768 275.078C26.7846 274.594 27.4623 274.352 28.31 274.352C29.103 274.352 29.7299 274.561 30.1908 274.979C30.6518 275.393 30.8823 275.945 30.8823 276.637C30.8823 277.477 30.3471 278.477 29.2768 279.637L26.9916 282.115H31.2748V283ZM37.5971 276.695C37.5971 277.121 37.4838 277.5 37.2573 277.832C37.0346 278.164 36.7319 278.424 36.3491 278.611C36.7944 278.803 37.1459 279.082 37.4037 279.449C37.6655 279.816 37.7963 280.232 37.7963 280.697C37.7963 281.436 37.5463 282.023 37.0463 282.461C36.5502 282.898 35.8959 283.117 35.0834 283.117C34.2631 283.117 33.6049 282.898 33.1088 282.461C32.6166 282.02 32.3705 281.432 32.3705 280.697C32.3705 280.236 32.4955 279.82 32.7455 279.449C32.9994 279.078 33.3491 278.797 33.7944 278.605C33.4155 278.418 33.1166 278.158 32.8979 277.826C32.6791 277.494 32.5698 277.117 32.5698 276.695C32.5698 275.977 32.8002 275.406 33.2612 274.984C33.7221 274.562 34.3295 274.352 35.0834 274.352C35.8334 274.352 36.4389 274.562 36.8998 274.984C37.3647 275.406 37.5971 275.977 37.5971 276.695ZM36.7123 280.674C36.7123 280.197 36.56 279.809 36.2553 279.508C35.9545 279.207 35.56 279.057 35.0717 279.057C34.5834 279.057 34.1908 279.205 33.894 279.502C33.601 279.799 33.4545 280.189 33.4545 280.674C33.4545 281.158 33.5971 281.539 33.8823 281.816C34.1713 282.094 34.5717 282.232 35.0834 282.232C35.5912 282.232 35.9897 282.094 36.2787 281.816C36.5678 281.535 36.7123 281.154 36.7123 280.674ZM35.0834 275.242C34.6576 275.242 34.3119 275.375 34.0463 275.641C33.7846 275.902 33.6537 276.26 33.6537 276.713C33.6537 277.146 33.7826 277.498 34.0405 277.768C34.3022 278.033 34.6498 278.166 35.0834 278.166C35.517 278.166 35.8627 278.033 36.1205 277.768C36.3823 277.498 36.5131 277.146 36.5131 276.713C36.5131 276.279 36.3783 275.926 36.1088 275.652C35.8393 275.379 35.4975 275.242 35.0834 275.242Z" fill="#172755"/>
<rect x="66" y="253" width="66" height="52" fill="white"/>
<path d="M97.2748 283H91.685V282.221L94.6381 278.939C95.0756 278.443 95.3764 278.041 95.5405 277.732C95.7084 277.42 95.7924 277.098 95.7924 276.766C95.7924 276.32 95.6576 275.955 95.3881 275.67C95.1186 275.385 94.7592 275.242 94.31 275.242C93.7709 275.242 93.351 275.396 93.0502 275.705C92.7533 276.01 92.6049 276.436 92.6049 276.982H91.5209C91.5209 276.197 91.7729 275.562 92.2768 275.078C92.7846 274.594 93.4623 274.352 94.31 274.352C95.103 274.352 95.7299 274.561 96.1908 274.979C96.6518 275.393 96.8823 275.945 96.8823 276.637C96.8823 277.477 96.3471 278.477 95.2768 279.637L92.9916 282.115H97.2748V283ZM102.578 279.25C102.351 279.52 102.08 279.736 101.763 279.9C101.451 280.064 101.107 280.146 100.732 280.146C100.24 280.146 99.81 280.025 99.4428 279.783C99.0795 279.541 98.7983 279.201 98.5991 278.764C98.3998 278.322 98.3002 277.836 98.3002 277.305C98.3002 276.734 98.4076 276.221 98.6225 275.764C98.8412 275.307 99.1498 274.957 99.5483 274.715C99.9467 274.473 100.412 274.352 100.943 274.352C101.787 274.352 102.451 274.668 102.935 275.301C103.423 275.93 103.667 276.789 103.667 277.879V278.195C103.667 279.855 103.339 281.068 102.683 281.834C102.027 282.596 101.037 282.986 99.7123 283.006H99.5014V282.092H99.7299C100.624 282.076 101.312 281.844 101.792 281.395C102.273 280.941 102.535 280.227 102.578 279.25ZM100.908 279.25C101.271 279.25 101.605 279.139 101.91 278.916C102.218 278.693 102.443 278.418 102.583 278.09V277.656C102.583 276.945 102.429 276.367 102.121 275.922C101.812 275.477 101.421 275.254 100.949 275.254C100.472 275.254 100.089 275.438 99.8002 275.805C99.5112 276.168 99.3666 276.648 99.3666 277.246C99.3666 277.828 99.5053 278.309 99.7826 278.688C100.064 279.062 100.439 279.25 100.908 279.25Z" fill="#172755"/>
<rect x="132" y="253" width="66" height="52" fill="white"/>
<path d="M159.261 278.207H160.076C160.587 278.199 160.99 278.064 161.283 277.803C161.576 277.541 161.722 277.188 161.722 276.742C161.722 275.742 161.224 275.242 160.228 275.242C159.759 275.242 159.384 275.377 159.103 275.646C158.826 275.912 158.687 276.266 158.687 276.707H157.603C157.603 276.031 157.849 275.471 158.341 275.025C158.837 274.576 159.466 274.352 160.228 274.352C161.033 274.352 161.664 274.564 162.121 274.99C162.578 275.416 162.806 276.008 162.806 276.766C162.806 277.137 162.685 277.496 162.443 277.844C162.205 278.191 161.878 278.451 161.464 278.623C161.933 278.771 162.294 279.018 162.548 279.361C162.806 279.705 162.935 280.125 162.935 280.621C162.935 281.387 162.685 281.994 162.185 282.443C161.685 282.893 161.035 283.117 160.234 283.117C159.433 283.117 158.781 282.9 158.277 282.467C157.777 282.033 157.527 281.461 157.527 280.75H158.617C158.617 281.199 158.763 281.559 159.056 281.828C159.349 282.098 159.742 282.232 160.234 282.232C160.757 282.232 161.158 282.096 161.435 281.822C161.712 281.549 161.851 281.156 161.851 280.645C161.851 280.148 161.699 279.768 161.394 279.502C161.089 279.236 160.65 279.1 160.076 279.092H159.261V278.207ZM169.773 279.361C169.773 280.631 169.556 281.574 169.122 282.191C168.689 282.809 168.011 283.117 167.089 283.117C166.179 283.117 165.505 282.816 165.068 282.215C164.63 281.609 164.404 280.707 164.388 279.508V278.061C164.388 276.807 164.605 275.875 165.039 275.266C165.472 274.656 166.152 274.352 167.078 274.352C167.996 274.352 168.671 274.646 169.105 275.236C169.539 275.822 169.761 276.729 169.773 277.955V279.361ZM168.689 277.879C168.689 276.961 168.56 276.293 168.302 275.875C168.044 275.453 167.636 275.242 167.078 275.242C166.523 275.242 166.119 275.451 165.865 275.869C165.611 276.287 165.48 276.93 165.472 277.797V279.531C165.472 280.453 165.605 281.135 165.871 281.576C166.14 282.014 166.546 282.232 167.089 282.232C167.624 282.232 168.021 282.025 168.279 281.611C168.54 281.197 168.677 280.545 168.689 279.654V277.879Z" fill="#172755"/>
<rect x="198" y="253" width="66" height="52" fill="white"/>
<path d="M225.261 278.207H226.076C226.587 278.199 226.99 278.064 227.283 277.803C227.576 277.541 227.722 277.188 227.722 276.742C227.722 275.742 227.224 275.242 226.228 275.242C225.759 275.242 225.384 275.377 225.103 275.646C224.826 275.912 224.687 276.266 224.687 276.707H223.603C223.603 276.031 223.849 275.471 224.341 275.025C224.837 274.576 225.466 274.352 226.228 274.352C227.033 274.352 227.664 274.564 228.121 274.99C228.578 275.416 228.806 276.008 228.806 276.766C228.806 277.137 228.685 277.496 228.443 277.844C228.205 278.191 227.878 278.451 227.464 278.623C227.933 278.771 228.294 279.018 228.548 279.361C228.806 279.705 228.935 280.125 228.935 280.621C228.935 281.387 228.685 281.994 228.185 282.443C227.685 282.893 227.035 283.117 226.234 283.117C225.433 283.117 224.781 282.9 224.277 282.467C223.777 282.033 223.527 281.461 223.527 280.75H224.617C224.617 281.199 224.763 281.559 225.056 281.828C225.349 282.098 225.742 282.232 226.234 282.232C226.757 282.232 227.158 282.096 227.435 281.822C227.712 281.549 227.851 281.156 227.851 280.645C227.851 280.148 227.699 279.768 227.394 279.502C227.089 279.236 226.65 279.1 226.076 279.092H225.261V278.207ZM233.986 283H232.896V275.775L230.71 276.578V275.594L233.816 274.428H233.986V283Z" fill="#172755"/>
<rect x="264" y="253" width="66" height="52" fill="white"/>
<rect x="330" y="253" width="66" height="52" fill="white"/>
<rect x="396" y="253" width="66" height="52" fill="white"/>
<path d="M19.8027 4.46875L22.5918 11.4297L25.3809 4.46875H26.8398V13H25.7148V9.67773L25.8203 6.0918L23.0195 13H22.1582L19.3633 6.10938L19.4746 9.67773V13H18.3496V4.46875H19.8027ZM35.3887 9.00977C35.3887 9.8457 35.248 10.5762 34.9668 11.2012C34.6855 11.8223 34.2871 12.2969 33.7715 12.625C33.2559 12.9531 32.6543 13.1172 31.9668 13.1172C31.2949 13.1172 30.6992 12.9531 30.1797 12.625C29.6602 12.293 29.2559 11.8223 28.9668 11.2129C28.6816 10.5996 28.5352 9.89062 28.5273 9.08594V8.4707C28.5273 7.65039 28.6699 6.92578 28.9551 6.29688C29.2402 5.66797 29.6426 5.1875 30.1621 4.85547C30.6855 4.51953 31.2832 4.35156 31.9551 4.35156C32.6387 4.35156 33.2402 4.51758 33.7598 4.84961C34.2832 5.17773 34.6855 5.65625 34.9668 6.28516C35.248 6.91016 35.3887 7.63867 35.3887 8.4707V9.00977ZM34.2695 8.45898C34.2695 7.44727 34.0664 6.67188 33.6602 6.13281C33.2539 5.58984 32.6855 5.31836 31.9551 5.31836C31.2441 5.31836 30.6836 5.58984 30.2734 6.13281C29.8672 6.67188 29.6582 7.42188 29.6465 8.38281V9.00977C29.6465 9.99023 29.8516 10.7617 30.2617 11.3242C30.6758 11.8828 31.2441 12.1621 31.9668 12.1621C32.6934 12.1621 33.2559 11.8984 33.6543 11.3711C34.0527 10.8398 34.2578 10.0801 34.2695 9.0918V8.45898ZM43.6328 13H42.502L38.207 6.42578V13H37.0762V4.46875H38.207L42.5137 11.0723V4.46875H43.6328V13Z" fill="#8794BA"/>
<path d="M93.0039 5.39453H90.2617V13H89.1426V5.39453H86.4062V4.46875H93.0039V5.39453ZM100.275 4.46875V10.2695C100.271 11.0742 100.018 11.7324 99.5137 12.2441C99.0137 12.7559 98.334 13.043 97.4746 13.1055L97.1758 13.1172C96.2422 13.1172 95.498 12.8652 94.9434 12.3613C94.3887 11.8574 94.1074 11.1641 94.0996 10.2812V4.46875H95.2129V10.2461C95.2129 10.8633 95.3828 11.3438 95.7227 11.6875C96.0625 12.0273 96.5469 12.1973 97.1758 12.1973C97.8125 12.1973 98.2988 12.0273 98.6348 11.6875C98.9746 11.3477 99.1445 10.8691 99.1445 10.252V4.46875H100.275ZM106.873 9.05664H103.176V12.0801H107.471V13H102.051V4.46875H107.412V5.39453H103.176V8.13672H106.873V9.05664Z" fill="#8794BA"/>
<path d="M153.156 10.3105L153.32 11.4355L153.561 10.4219L155.248 4.46875H156.197L157.844 10.4219L158.078 11.4531L158.26 10.3047L159.584 4.46875H160.715L158.646 13H157.621L155.863 6.7832L155.729 6.13281L155.594 6.7832L153.771 13H152.746L150.684 4.46875H151.809L153.156 10.3105ZM166.791 9.05664H163.094V12.0801H167.389V13H161.969V4.46875H167.33V5.39453H163.094V8.13672H166.791V9.05664ZM168.789 13V4.46875H171.197C171.939 4.46875 172.596 4.63281 173.166 4.96094C173.736 5.28906 174.176 5.75586 174.484 6.36133C174.797 6.9668 174.955 7.66211 174.959 8.44727V8.99219C174.959 9.79688 174.803 10.502 174.49 11.1074C174.182 11.7129 173.738 12.1777 173.16 12.502C172.586 12.8262 171.916 12.9922 171.15 13H168.789ZM169.914 5.39453V12.0801H171.098C171.965 12.0801 172.639 11.8105 173.119 11.2715C173.604 10.7324 173.846 9.96484 173.846 8.96875V8.4707C173.846 7.50195 173.617 6.75 173.16 6.21484C172.707 5.67578 172.062 5.40234 171.227 5.39453H169.914Z" fill="#8794BA"/>
<path d="M224.137 5.39453H221.395V13H220.275V5.39453H217.539V4.46875H224.137V5.39453ZM231.959 13H230.828V9.05664H226.527V13H225.402V4.46875H226.527V8.13672H230.828V4.46875H231.959V13ZM239.963 4.46875V10.2695C239.959 11.0742 239.705 11.7324 239.201 12.2441C238.701 12.7559 238.021 13.043 237.162 13.1055L236.863 13.1172C235.93 13.1172 235.186 12.8652 234.631 12.3613C234.076 11.8574 233.795 11.1641 233.787 10.2812V4.46875H234.9V10.2461C234.9 10.8633 235.07 11.3438 235.41 11.6875C235.75 12.0273 236.234 12.1973 236.863 12.1973C237.5 12.1973 237.986 12.0273 238.322 11.6875C238.662 11.3477 238.832 10.8691 238.832 10.252V4.46875H239.963Z" fill="#8794BA"/>
<path d="M292.047 9.23242H288.467V13H287.342V4.46875H292.627V5.39453H288.467V8.3125H292.047V9.23242ZM297.104 9.54883H295.1V13H293.969V4.46875H296.793C297.754 4.46875 298.492 4.6875 299.008 5.125C299.527 5.5625 299.787 6.19922 299.787 7.03516C299.787 7.56641 299.643 8.0293 299.354 8.42383C299.068 8.81836 298.67 9.11328 298.158 9.30859L300.162 12.9297V13H298.955L297.104 9.54883ZM295.1 8.62891H296.828C297.387 8.62891 297.83 8.48438 298.158 8.19531C298.49 7.90625 298.656 7.51953 298.656 7.03516C298.656 6.50781 298.498 6.10352 298.182 5.82227C297.869 5.54102 297.416 5.39844 296.822 5.39453H295.1V8.62891ZM302.576 13H301.451V4.46875H302.576V13Z" fill="#8794BA"/>
<path d="M353.828 9.19727C352.863 8.91992 352.16 8.58008 351.719 8.17773C351.281 7.77148 351.062 7.27148 351.062 6.67773C351.062 6.00586 351.33 5.45117 351.865 5.01367C352.404 4.57227 353.104 4.35156 353.963 4.35156C354.549 4.35156 355.07 4.46484 355.527 4.69141C355.988 4.91797 356.344 5.23047 356.594 5.62891C356.848 6.02734 356.975 6.46289 356.975 6.93555H355.844C355.844 6.41992 355.68 6.01562 355.352 5.72266C355.023 5.42578 354.561 5.27734 353.963 5.27734C353.408 5.27734 352.975 5.40039 352.662 5.64648C352.354 5.88867 352.199 6.22656 352.199 6.66016C352.199 7.00781 352.346 7.30273 352.639 7.54492C352.936 7.7832 353.438 8.00195 354.145 8.20117C354.855 8.40039 355.41 8.62109 355.809 8.86328C356.211 9.10156 356.508 9.38086 356.699 9.70117C356.895 10.0215 356.992 10.3984 356.992 10.832C356.992 11.5234 356.723 12.0781 356.184 12.4961C355.645 12.9102 354.924 13.1172 354.021 13.1172C353.436 13.1172 352.889 13.0059 352.381 12.7832C351.873 12.5566 351.48 12.248 351.203 11.8574C350.93 11.4668 350.793 11.0234 350.793 10.5273H351.924C351.924 11.043 352.113 11.4512 352.492 11.752C352.875 12.0488 353.385 12.1973 354.021 12.1973C354.615 12.1973 355.07 12.0762 355.387 11.834C355.703 11.5918 355.861 11.2617 355.861 10.8438C355.861 10.4258 355.715 10.1035 355.422 9.87695C355.129 9.64648 354.598 9.41992 353.828 9.19727ZM363.15 10.7734H359.576L358.773 13H357.613L360.871 4.46875H361.855L365.119 13H363.965L363.15 10.7734ZM359.916 9.84766H362.816L361.363 5.85742L359.916 9.84766ZM371.4 5.39453H368.658V13H367.539V5.39453H364.803V4.46875H371.4V5.39453Z" fill="#8794BA"/>
<path d="M418.773 9.19727C417.809 8.91992 417.105 8.58008 416.664 8.17773C416.227 7.77148 416.008 7.27148 416.008 6.67773C416.008 6.00586 416.275 5.45117 416.811 5.01367C417.35 4.57227 418.049 4.35156 418.908 4.35156C419.494 4.35156 420.016 4.46484 420.473 4.69141C420.934 4.91797 421.289 5.23047 421.539 5.62891C421.793 6.02734 421.92 6.46289 421.92 6.93555H420.789C420.789 6.41992 420.625 6.01562 420.297 5.72266C419.969 5.42578 419.506 5.27734 418.908 5.27734C418.354 5.27734 417.92 5.40039 417.607 5.64648C417.299 5.88867 417.145 6.22656 417.145 6.66016C417.145 7.00781 417.291 7.30273 417.584 7.54492C417.881 7.7832 418.383 8.00195 419.09 8.20117C419.801 8.40039 420.355 8.62109 420.754 8.86328C421.156 9.10156 421.453 9.38086 421.645 9.70117C421.84 10.0215 421.938 10.3984 421.938 10.832C421.938 11.5234 421.668 12.0781 421.129 12.4961C420.59 12.9102 419.869 13.1172 418.967 13.1172C418.381 13.1172 417.834 13.0059 417.326 12.7832C416.818 12.5566 416.426 12.248 416.148 11.8574C415.875 11.4668 415.738 11.0234 415.738 10.5273H416.869C416.869 11.043 417.059 11.4512 417.438 11.752C417.82 12.0488 418.33 12.1973 418.967 12.1973C419.561 12.1973 420.016 12.0762 420.332 11.834C420.648 11.5918 420.807 11.2617 420.807 10.8438C420.807 10.4258 420.66 10.1035 420.367 9.87695C420.074 9.64648 419.543 9.41992 418.773 9.19727ZM429.391 4.46875V10.2695C429.387 11.0742 429.133 11.7324 428.629 12.2441C428.129 12.7559 427.449 13.043 426.59 13.1055L426.291 13.1172C425.357 13.1172 424.613 12.8652 424.059 12.3613C423.504 11.8574 423.223 11.1641 423.215 10.2812V4.46875H424.328V10.2461C424.328 10.8633 424.498 11.3438 424.838 11.6875C425.178 12.0273 425.662 12.1973 426.291 12.1973C426.928 12.1973 427.414 12.0273 427.75 11.6875C428.09 11.3477 428.26 10.8691 428.26 10.252V4.46875H429.391ZM437.723 13H436.592L432.297 6.42578V13H431.166V4.46875H432.297L436.604 11.0723V4.46875H437.723V13Z" fill="#8794BA"/>
</svg>
