<svg width="464" height="311" viewBox="0 0 464 311" fill="none" xmlns="http://www.w3.org/2000/svg">
<path d="M47.0148 89.0774L156 26.1547L264.985 89.0774V214.923L156 277.845L47.0148 214.923V89.0774Z" stroke="#EEEEF7" stroke-width="2"/>
<path d="M85.1199 111.077L156 70.1547L226.88 111.077V192.923L156 233.845L85.1199 192.923V111.077Z" stroke="#EEEEF7" stroke-width="2"/>
<path d="M98.4132 119.015L156.363 71.2916L238.08 103.394L243.931 201.403L156.346 253.468L92.0769 186.278L98.4132 119.015Z" stroke="#0088F0" stroke-width="4"/>
<path d="M72.5214 104.392L155.362 58.6373L201.24 126.966L231.442 196H156.274L103.79 181.338L72.5214 104.392Z" stroke="#EF2A82" stroke-width="4"/>
<path d="M131.885 138.077L156 124.155L180.115 138.077V165.923L156 179.845L131.885 165.923V138.077Z" stroke="#EEEEF7" stroke-width="2"/>
<path d="M396.508 85.2517H399.184C400.866 85.226 402.188 84.7832 403.15 83.9233C404.113 83.0633 404.594 81.9018 404.594 80.4386C404.594 77.1529 402.958 75.51 399.685 75.51C398.145 75.51 396.913 75.9528 395.989 76.8384C395.077 77.7112 394.622 78.8728 394.622 80.3231H391.06C391.06 78.1027 391.869 76.2609 393.486 74.7977C395.116 73.3217 397.182 72.5837 399.685 72.5837C402.329 72.5837 404.402 73.2832 405.903 74.6822C407.405 76.0812 408.156 78.0257 408.156 80.5156C408.156 81.7349 407.758 82.9157 406.962 84.058C406.179 85.2003 405.108 86.0538 403.747 86.6186C405.287 87.1063 406.475 87.9149 407.309 89.0444C408.156 90.1738 408.58 91.5536 408.58 93.1836C408.58 95.6992 407.758 97.695 406.115 99.171C404.472 100.647 402.335 101.385 399.704 101.385C397.073 101.385 394.93 100.673 393.274 99.248C391.631 97.8234 390.81 95.9431 390.81 93.6071H394.391C394.391 95.0831 394.872 96.264 395.835 97.1496C396.797 98.0352 398.087 98.478 399.704 98.478C401.424 98.478 402.74 98.0287 403.651 97.1303C404.562 96.2319 405.018 94.942 405.018 93.2606C405.018 91.6306 404.517 90.3792 403.516 89.5064C402.515 88.6336 401.071 88.1844 399.184 88.1588H396.508V85.2517ZM428.506 91.5857H432.395V94.4927H428.506V101H424.925V94.4927H412.16V92.3943L424.713 72.9687H428.506V91.5857ZM416.203 91.5857H424.925V77.8396L424.501 78.6097L416.203 91.5857ZM435.302 78.3594C435.302 76.678 435.834 75.2919 436.9 74.2009C437.978 73.1099 439.357 72.5645 441.039 72.5645C442.746 72.5645 444.126 73.1163 445.178 74.2201C446.243 75.3111 446.776 76.7294 446.776 78.4749V79.8418C446.776 81.536 446.237 82.9222 445.159 84.0003C444.093 85.0656 442.733 85.5982 441.077 85.5982C439.409 85.5982 438.029 85.0656 436.938 84.0003C435.847 82.9222 435.302 81.4911 435.302 79.707V78.3594ZM437.958 79.8418C437.958 80.8429 438.241 81.6708 438.806 82.3253C439.37 82.9671 440.128 83.2879 441.077 83.2879C441.989 83.2879 442.72 82.9735 443.272 82.3446C443.837 81.7157 444.119 80.8557 444.119 79.7648V78.3594C444.119 77.3583 443.843 76.5304 443.291 75.8758C442.739 75.2213 441.989 74.894 441.039 74.894C440.089 74.894 439.338 75.2213 438.786 75.8758C438.234 76.5304 437.958 77.3839 437.958 78.4364V79.8418ZM448.951 94.127C448.951 92.4456 449.484 91.0658 450.549 89.9877C451.628 88.8968 453.007 88.3513 454.689 88.3513C456.37 88.3513 457.75 88.8903 458.828 89.9685C459.906 91.0466 460.445 92.4777 460.445 94.2617V95.6286C460.445 97.31 459.906 98.6961 458.828 99.7871C457.763 100.865 456.396 101.404 454.727 101.404C453.059 101.404 451.679 100.872 450.588 99.8064C449.497 98.7282 448.951 97.2972 448.951 95.5131V94.127ZM451.608 95.6286C451.608 96.6426 451.891 97.4768 452.455 98.1314C453.02 98.7732 453.777 99.094 454.727 99.094C455.651 99.094 456.389 98.7796 456.941 98.1507C457.493 97.5089 457.769 96.6426 457.769 95.5516V94.127C457.769 93.113 457.487 92.2852 456.922 91.6434C456.37 91.0017 455.626 90.6808 454.689 90.6808C453.777 90.6808 453.033 91.0017 452.455 91.6434C451.891 92.2723 451.608 93.1258 451.608 94.204V95.6286ZM441.886 98.8823L439.864 97.6116L453.553 75.7026L455.574 76.9732L441.886 98.8823Z" fill="#EF2A82"/>
<path d="M389.8 127.157C389.8 126.226 389.981 125.388 390.345 124.644C390.714 123.899 391.224 123.325 391.874 122.921C392.53 122.517 393.277 122.314 394.115 122.314C395.41 122.314 396.456 122.763 397.253 123.659C398.056 124.556 398.457 125.748 398.457 127.236V127.351C398.457 128.276 398.278 129.108 397.921 129.847C397.569 130.579 397.062 131.15 396.4 131.561C395.744 131.971 394.988 132.176 394.133 132.176C392.844 132.176 391.798 131.728 390.995 130.831C390.198 129.935 389.8 128.748 389.8 127.271V127.157ZM391.435 127.351C391.435 128.405 391.678 129.252 392.164 129.891C392.656 130.529 393.312 130.849 394.133 130.849C394.959 130.849 395.615 130.526 396.102 129.882C396.588 129.231 396.831 128.323 396.831 127.157C396.831 126.114 396.582 125.271 396.084 124.626C395.592 123.976 394.936 123.65 394.115 123.65C393.312 123.65 392.665 123.97 392.173 124.608C391.681 125.247 391.435 126.161 391.435 127.351ZM408.529 127.351C408.529 128.798 408.198 129.964 407.536 130.849C406.874 131.733 405.978 132.176 404.847 132.176C403.692 132.176 402.784 131.81 402.122 131.077V135.656H400.496V122.49H401.981L402.061 123.545C402.723 122.725 403.643 122.314 404.82 122.314C405.963 122.314 406.865 122.745 407.527 123.606C408.195 124.468 408.529 125.666 408.529 127.201V127.351ZM406.903 127.166C406.903 126.094 406.675 125.247 406.218 124.626C405.761 124.005 405.134 123.694 404.337 123.694C403.353 123.694 402.614 124.131 402.122 125.004V129.548C402.608 130.415 403.353 130.849 404.354 130.849C405.134 130.849 405.752 130.541 406.209 129.926C406.672 129.305 406.903 128.385 406.903 127.166ZM412.81 120.188V122.49H414.585V123.747H412.81V129.645C412.81 130.025 412.889 130.312 413.047 130.506C413.205 130.693 413.475 130.787 413.855 130.787C414.043 130.787 414.301 130.752 414.629 130.682V132C414.201 132.117 413.785 132.176 413.381 132.176C412.654 132.176 412.106 131.956 411.737 131.517C411.368 131.077 411.184 130.453 411.184 129.645V123.747H409.452V122.49H411.184V120.188H412.81ZM418.259 132H416.633V122.49H418.259V132ZM416.501 119.968C416.501 119.704 416.58 119.481 416.738 119.3C416.902 119.118 417.143 119.027 417.459 119.027C417.775 119.027 418.016 119.118 418.18 119.3C418.344 119.481 418.426 119.704 418.426 119.968C418.426 120.231 418.344 120.451 418.18 120.627C418.016 120.803 417.775 120.891 417.459 120.891C417.143 120.891 416.902 120.803 416.738 120.627C416.58 120.451 416.501 120.231 416.501 119.968ZM420.438 127.157C420.438 126.226 420.62 125.388 420.983 124.644C421.353 123.899 421.862 123.325 422.513 122.921C423.169 122.517 423.916 122.314 424.754 122.314C426.049 122.314 427.095 122.763 427.892 123.659C428.694 124.556 429.096 125.748 429.096 127.236V127.351C429.096 128.276 428.917 129.108 428.56 129.847C428.208 130.579 427.701 131.15 427.039 131.561C426.383 131.971 425.627 132.176 424.771 132.176C423.482 132.176 422.437 131.728 421.634 130.831C420.837 129.935 420.438 128.748 420.438 127.271V127.157ZM422.073 127.351C422.073 128.405 422.316 129.252 422.803 129.891C423.295 130.529 423.951 130.849 424.771 130.849C425.598 130.849 426.254 130.526 426.74 129.882C427.227 129.231 427.47 128.323 427.47 127.157C427.47 126.114 427.221 125.271 426.723 124.626C426.23 123.976 425.574 123.65 424.754 123.65C423.951 123.65 423.304 123.97 422.812 124.608C422.319 125.247 422.073 126.161 422.073 127.351ZM432.673 122.49L432.726 123.686C433.452 122.771 434.401 122.314 435.573 122.314C437.583 122.314 438.597 123.448 438.614 125.716V132H436.988V125.707C436.982 125.021 436.824 124.515 436.514 124.187C436.209 123.858 435.731 123.694 435.081 123.694C434.554 123.694 434.091 123.835 433.692 124.116C433.294 124.397 432.983 124.767 432.761 125.224V132H431.135V122.49H432.673ZM450.708 132H449.073V121.163L445.795 122.367V120.891L450.453 119.142H450.708V132Z" fill="#8794BA"/>
<path d="M409.696 213H391.33V210.439L401.033 199.658C402.47 198.028 403.458 196.706 403.997 195.692C404.549 194.665 404.825 193.607 404.825 192.516C404.825 191.052 404.383 189.852 403.497 188.915C402.611 187.979 401.431 187.51 399.955 187.51C398.183 187.51 396.804 188.017 395.815 189.031C394.84 190.032 394.352 191.431 394.352 193.228H390.79C390.79 190.648 391.618 188.562 393.274 186.971C394.943 185.379 397.169 184.584 399.955 184.584C402.56 184.584 404.62 185.27 406.134 186.644C407.649 188.004 408.406 189.82 408.406 192.092C408.406 194.852 406.648 198.137 403.131 201.949L395.623 210.093H409.696V213ZM427.119 200.679C426.375 201.564 425.483 202.277 424.443 202.816C423.417 203.355 422.287 203.624 421.055 203.624C419.438 203.624 418.026 203.226 416.819 202.431C415.626 201.635 414.702 200.518 414.047 199.081C413.393 197.63 413.065 196.032 413.065 194.287C413.065 192.413 413.418 190.725 414.124 189.223C414.843 187.722 415.857 186.573 417.166 185.777C418.475 184.982 420.003 184.584 421.748 184.584C424.52 184.584 426.702 185.623 428.294 187.703C429.898 189.769 430.7 192.593 430.7 196.174V197.213C430.7 202.668 429.622 206.653 427.466 209.169C425.31 211.672 422.056 212.955 417.705 213.019H417.012V210.016H417.763C420.702 209.965 422.961 209.201 424.54 207.725C426.118 206.236 426.978 203.887 427.119 200.679ZM421.633 200.679C422.826 200.679 423.924 200.313 424.925 199.581C425.939 198.85 426.677 197.945 427.139 196.867V195.442C427.139 193.106 426.632 191.206 425.618 189.743C424.604 188.28 423.32 187.549 421.767 187.549C420.201 187.549 418.944 188.152 417.994 189.358C417.044 190.552 416.569 192.131 416.569 194.094C416.569 196.007 417.025 197.585 417.936 198.83C418.86 200.062 420.092 200.679 421.633 200.679ZM435.302 190.359C435.302 188.678 435.834 187.292 436.9 186.201C437.978 185.11 439.357 184.564 441.039 184.564C442.746 184.564 444.126 185.116 445.178 186.22C446.243 187.311 446.776 188.729 446.776 190.475V191.842C446.776 193.536 446.237 194.922 445.159 196C444.093 197.066 442.733 197.598 441.077 197.598C439.409 197.598 438.029 197.066 436.938 196C435.847 194.922 435.302 193.491 435.302 191.707V190.359ZM437.958 191.842C437.958 192.843 438.241 193.671 438.806 194.325C439.37 194.967 440.128 195.288 441.077 195.288C441.989 195.288 442.72 194.973 443.272 194.345C443.837 193.716 444.119 192.856 444.119 191.765V190.359C444.119 189.358 443.843 188.53 443.291 187.876C442.739 187.221 441.989 186.894 441.039 186.894C440.089 186.894 439.338 187.221 438.786 187.876C438.234 188.53 437.958 189.384 437.958 190.436V191.842ZM448.951 206.127C448.951 204.446 449.484 203.066 450.549 201.988C451.628 200.897 453.007 200.351 454.689 200.351C456.37 200.351 457.75 200.89 458.828 201.968C459.906 203.047 460.445 204.478 460.445 206.262V207.629C460.445 209.31 459.906 210.696 458.828 211.787C457.763 212.865 456.396 213.404 454.727 213.404C453.059 213.404 451.679 212.872 450.588 211.806C449.497 210.728 448.951 209.297 448.951 207.513V206.127ZM451.608 207.629C451.608 208.643 451.891 209.477 452.455 210.131C453.02 210.773 453.777 211.094 454.727 211.094C455.651 211.094 456.389 210.78 456.941 210.151C457.493 209.509 457.769 208.643 457.769 207.552V206.127C457.769 205.113 457.487 204.285 456.922 203.643C456.37 203.002 455.626 202.681 454.689 202.681C453.777 202.681 453.033 203.002 452.455 203.643C451.891 204.272 451.608 205.126 451.608 206.204V207.629ZM441.886 210.882L439.864 209.612L453.553 187.703L455.574 188.973L441.886 210.882Z" fill="#0088F0"/>
<path d="M389.8 239.157C389.8 238.226 389.981 237.388 390.345 236.644C390.714 235.899 391.224 235.325 391.874 234.921C392.53 234.517 393.277 234.314 394.115 234.314C395.41 234.314 396.456 234.763 397.253 235.659C398.056 236.556 398.457 237.748 398.457 239.236V239.351C398.457 240.276 398.278 241.108 397.921 241.847C397.569 242.579 397.062 243.15 396.4 243.561C395.744 243.971 394.988 244.176 394.133 244.176C392.844 244.176 391.798 243.728 390.995 242.831C390.198 241.935 389.8 240.748 389.8 239.271V239.157ZM391.435 239.351C391.435 240.405 391.678 241.252 392.164 241.891C392.656 242.529 393.312 242.849 394.133 242.849C394.959 242.849 395.615 242.526 396.102 241.882C396.588 241.231 396.831 240.323 396.831 239.157C396.831 238.114 396.582 237.271 396.084 236.626C395.592 235.976 394.936 235.65 394.115 235.65C393.312 235.65 392.665 235.97 392.173 236.608C391.681 237.247 391.435 238.161 391.435 239.351ZM408.529 239.351C408.529 240.798 408.198 241.964 407.536 242.849C406.874 243.733 405.978 244.176 404.847 244.176C403.692 244.176 402.784 243.81 402.122 243.077V247.656H400.496V234.49H401.981L402.061 235.545C402.723 234.725 403.643 234.314 404.82 234.314C405.963 234.314 406.865 234.745 407.527 235.606C408.195 236.468 408.529 237.666 408.529 239.201V239.351ZM406.903 239.166C406.903 238.094 406.675 237.247 406.218 236.626C405.761 236.005 405.134 235.694 404.337 235.694C403.353 235.694 402.614 236.131 402.122 237.004V241.548C402.608 242.415 403.353 242.849 404.354 242.849C405.134 242.849 405.752 242.541 406.209 241.926C406.672 241.305 406.903 240.385 406.903 239.166ZM412.81 232.188V234.49H414.585V235.747H412.81V241.645C412.81 242.025 412.889 242.312 413.047 242.506C413.205 242.693 413.475 242.787 413.855 242.787C414.043 242.787 414.301 242.752 414.629 242.682V244C414.201 244.117 413.785 244.176 413.381 244.176C412.654 244.176 412.106 243.956 411.737 243.517C411.368 243.077 411.184 242.453 411.184 241.645V235.747H409.452V234.49H411.184V232.188H412.81ZM418.259 244H416.633V234.49H418.259V244ZM416.501 231.968C416.501 231.704 416.58 231.481 416.738 231.3C416.902 231.118 417.143 231.027 417.459 231.027C417.775 231.027 418.016 231.118 418.18 231.3C418.344 231.481 418.426 231.704 418.426 231.968C418.426 232.231 418.344 232.451 418.18 232.627C418.016 232.803 417.775 232.891 417.459 232.891C417.143 232.891 416.902 232.803 416.738 232.627C416.58 232.451 416.501 232.231 416.501 231.968ZM420.438 239.157C420.438 238.226 420.62 237.388 420.983 236.644C421.353 235.899 421.862 235.325 422.513 234.921C423.169 234.517 423.916 234.314 424.754 234.314C426.049 234.314 427.095 234.763 427.892 235.659C428.694 236.556 429.096 237.748 429.096 239.236V239.351C429.096 240.276 428.917 241.108 428.56 241.847C428.208 242.579 427.701 243.15 427.039 243.561C426.383 243.971 425.627 244.176 424.771 244.176C423.482 244.176 422.437 243.728 421.634 242.831C420.837 241.935 420.438 240.748 420.438 239.271V239.157ZM422.073 239.351C422.073 240.405 422.316 241.252 422.803 241.891C423.295 242.529 423.951 242.849 424.771 242.849C425.598 242.849 426.254 242.526 426.74 241.882C427.227 241.231 427.47 240.323 427.47 239.157C427.47 238.114 427.221 237.271 426.723 236.626C426.23 235.976 425.574 235.65 424.754 235.65C423.951 235.65 423.304 235.97 422.812 236.608C422.319 237.247 422.073 238.161 422.073 239.351ZM432.673 234.49L432.726 235.686C433.452 234.771 434.401 234.314 435.573 234.314C437.583 234.314 438.597 235.448 438.614 237.716V244H436.988V237.707C436.982 237.021 436.824 236.515 436.514 236.187C436.209 235.858 435.731 235.694 435.081 235.694C434.554 235.694 434.091 235.835 433.692 236.116C433.294 236.397 432.983 236.767 432.761 237.224V244H431.135V234.49H432.673ZM453.749 244H445.364V242.831L449.794 237.909C450.45 237.165 450.901 236.562 451.147 236.099C451.399 235.63 451.525 235.146 451.525 234.648C451.525 233.98 451.323 233.433 450.919 233.005C450.515 232.577 449.976 232.363 449.302 232.363C448.493 232.363 447.863 232.595 447.412 233.058C446.967 233.515 446.744 234.153 446.744 234.974H445.118C445.118 233.796 445.496 232.844 446.252 232.117C447.014 231.391 448.03 231.027 449.302 231.027C450.491 231.027 451.432 231.341 452.123 231.968C452.814 232.589 453.16 233.418 453.16 234.455C453.16 235.715 452.357 237.215 450.752 238.955L447.324 242.673H453.749V244Z" fill="#8794BA"/>
<path d="M145.637 13H144.547V5.77539L142.361 6.57812V5.59375L145.467 4.42773H145.637V13ZM153.986 6.69531C153.986 7.12109 153.873 7.5 153.646 7.83203C153.424 8.16406 153.121 8.42383 152.738 8.61133C153.184 8.80273 153.535 9.08203 153.793 9.44922C154.055 9.81641 154.186 10.2324 154.186 10.6973C154.186 11.4355 153.936 12.0234 153.436 12.4609C152.939 12.8984 152.285 13.1172 151.473 13.1172C150.652 13.1172 149.994 12.8984 149.498 12.4609C149.006 12.0195 148.76 11.4316 148.76 10.6973C148.76 10.2363 148.885 9.82031 149.135 9.44922C149.389 9.07812 149.738 8.79688 150.184 8.60547C149.805 8.41797 149.506 8.1582 149.287 7.82617C149.068 7.49414 148.959 7.11719 148.959 6.69531C148.959 5.97656 149.189 5.40625 149.65 4.98438C150.111 4.5625 150.719 4.35156 151.473 4.35156C152.223 4.35156 152.828 4.5625 153.289 4.98438C153.754 5.40625 153.986 5.97656 153.986 6.69531ZM153.102 10.6738C153.102 10.1973 152.949 9.80859 152.645 9.50781C152.344 9.20703 151.949 9.05664 151.461 9.05664C150.973 9.05664 150.58 9.20508 150.283 9.50195C149.99 9.79883 149.844 10.1895 149.844 10.6738C149.844 11.1582 149.986 11.5391 150.271 11.8164C150.561 12.0938 150.961 12.2324 151.473 12.2324C151.98 12.2324 152.379 12.0938 152.668 11.8164C152.957 11.5352 153.102 11.1543 153.102 10.6738ZM151.473 5.24219C151.047 5.24219 150.701 5.375 150.436 5.64062C150.174 5.90234 150.043 6.25977 150.043 6.71289C150.043 7.14648 150.172 7.49805 150.43 7.76758C150.691 8.0332 151.039 8.16602 151.473 8.16602C151.906 8.16602 152.252 8.0332 152.51 7.76758C152.771 7.49805 152.902 7.14648 152.902 6.71289C152.902 6.2793 152.768 5.92578 152.498 5.65234C152.229 5.37891 151.887 5.24219 151.473 5.24219ZM157.918 9.81836H155.059V8.93359H157.918V9.81836ZM164.457 13H158.867V12.2207L161.82 8.93945C162.258 8.44336 162.559 8.04102 162.723 7.73242C162.891 7.41992 162.975 7.09766 162.975 6.76562C162.975 6.32031 162.84 5.95508 162.57 5.66992C162.301 5.38477 161.941 5.24219 161.492 5.24219C160.953 5.24219 160.533 5.39648 160.232 5.70508C159.936 6.00977 159.787 6.43555 159.787 6.98242H158.703C158.703 6.19727 158.955 5.5625 159.459 5.07812C159.967 4.59375 160.645 4.35156 161.492 4.35156C162.285 4.35156 162.912 4.56055 163.373 4.97852C163.834 5.39258 164.064 5.94531 164.064 6.63672C164.064 7.47656 163.529 8.47656 162.459 9.63672L160.174 12.1152H164.457V13ZM170.182 10.1348H171.365V11.0195H170.182V13H169.092V11.0195H165.207V10.3809L169.027 4.46875H170.182V10.1348ZM166.438 10.1348H169.092V5.95117L168.963 6.18555L166.438 10.1348Z" fill="#8794BA"/>
<path d="M288.664 91H283.074V90.2207L286.027 86.9395C286.465 86.4434 286.766 86.041 286.93 85.7324C287.098 85.4199 287.182 85.0977 287.182 84.7656C287.182 84.3203 287.047 83.9551 286.777 83.6699C286.508 83.3848 286.148 83.2422 285.699 83.2422C285.16 83.2422 284.74 83.3965 284.439 83.7051C284.143 84.0098 283.994 84.4355 283.994 84.9824H282.91C282.91 84.1973 283.162 83.5625 283.666 83.0781C284.174 82.5938 284.852 82.3516 285.699 82.3516C286.492 82.3516 287.119 82.5605 287.58 82.9785C288.041 83.3926 288.271 83.9453 288.271 84.6367C288.271 85.4766 287.736 86.4766 286.666 87.6367L284.381 90.1152H288.664V91ZM290.311 86.7227L290.744 82.4688H295.115V83.4707H291.664L291.406 85.7969C291.824 85.5508 292.299 85.4277 292.83 85.4277C293.607 85.4277 294.225 85.6855 294.682 86.2012C295.139 86.7129 295.367 87.4062 295.367 88.2812C295.367 89.1602 295.129 89.8535 294.652 90.3613C294.18 90.8652 293.518 91.1172 292.666 91.1172C291.912 91.1172 291.297 90.9082 290.82 90.4902C290.344 90.0723 290.072 89.4941 290.006 88.7559H291.031C291.098 89.2441 291.271 89.6133 291.553 89.8633C291.834 90.1094 292.205 90.2324 292.666 90.2324C293.17 90.2324 293.564 90.0605 293.85 89.7168C294.139 89.373 294.283 88.8984 294.283 88.293C294.283 87.7227 294.127 87.2656 293.814 86.9219C293.506 86.5742 293.094 86.4004 292.578 86.4004C292.105 86.4004 291.734 86.5039 291.465 86.7109L291.178 86.9453L290.311 86.7227ZM298.918 87.8184H296.059V86.9336H298.918V87.8184ZM301.443 86.207H302.258C302.77 86.1992 303.172 86.0645 303.465 85.8027C303.758 85.541 303.904 85.1875 303.904 84.7422C303.904 83.7422 303.406 83.2422 302.41 83.2422C301.941 83.2422 301.566 83.377 301.285 83.6465C301.008 83.9121 300.869 84.2656 300.869 84.707H299.785C299.785 84.0312 300.031 83.4707 300.523 83.0254C301.02 82.5762 301.648 82.3516 302.41 82.3516C303.215 82.3516 303.846 82.5645 304.303 82.9902C304.76 83.416 304.988 84.0078 304.988 84.7656C304.988 85.1367 304.867 85.4961 304.625 85.8438C304.387 86.1914 304.061 86.4512 303.646 86.623C304.115 86.7715 304.477 87.0176 304.73 87.3613C304.988 87.7051 305.117 88.125 305.117 88.6211C305.117 89.3867 304.867 89.9941 304.367 90.4434C303.867 90.8926 303.217 91.1172 302.416 91.1172C301.615 91.1172 300.963 90.9004 300.459 90.4668C299.959 90.0332 299.709 89.4609 299.709 88.75H300.799C300.799 89.1992 300.945 89.5586 301.238 89.8281C301.531 90.0977 301.924 90.2324 302.416 90.2324C302.939 90.2324 303.34 90.0957 303.617 89.8223C303.895 89.5488 304.033 89.1562 304.033 88.6445C304.033 88.1484 303.881 87.7676 303.576 87.502C303.271 87.2363 302.832 87.0996 302.258 87.0918H301.443V86.207ZM311.182 88.1348H312.365V89.0195H311.182V91H310.092V89.0195H306.207V88.3809L310.027 82.4688H311.182V88.1348ZM307.438 88.1348H310.092V83.9512L309.963 84.1855L307.438 88.1348Z" fill="#8794BA"/>
<path d="M284.65 217.207H285.465C285.977 217.199 286.379 217.064 286.672 216.803C286.965 216.541 287.111 216.188 287.111 215.742C287.111 214.742 286.613 214.242 285.617 214.242C285.148 214.242 284.773 214.377 284.492 214.646C284.215 214.912 284.076 215.266 284.076 215.707H282.992C282.992 215.031 283.238 214.471 283.73 214.025C284.227 213.576 284.855 213.352 285.617 213.352C286.422 213.352 287.053 213.564 287.51 213.99C287.967 214.416 288.195 215.008 288.195 215.766C288.195 216.137 288.074 216.496 287.832 216.844C287.594 217.191 287.268 217.451 286.854 217.623C287.322 217.771 287.684 218.018 287.938 218.361C288.195 218.705 288.324 219.125 288.324 219.621C288.324 220.387 288.074 220.994 287.574 221.443C287.074 221.893 286.424 222.117 285.623 222.117C284.822 222.117 284.17 221.9 283.666 221.467C283.166 221.033 282.916 220.461 282.916 219.75H284.006C284.006 220.199 284.152 220.559 284.445 220.828C284.738 221.098 285.131 221.232 285.623 221.232C286.146 221.232 286.547 221.096 286.824 220.822C287.102 220.549 287.24 220.156 287.24 219.645C287.24 219.148 287.088 218.768 286.783 218.502C286.479 218.236 286.039 218.1 285.465 218.092H284.65V217.207ZM290.311 217.723L290.744 213.469H295.115V214.471H291.664L291.406 216.797C291.824 216.551 292.299 216.428 292.83 216.428C293.607 216.428 294.225 216.686 294.682 217.201C295.139 217.713 295.367 218.406 295.367 219.281C295.367 220.16 295.129 220.854 294.652 221.361C294.18 221.865 293.518 222.117 292.666 222.117C291.912 222.117 291.297 221.908 290.82 221.49C290.344 221.072 290.072 220.494 290.006 219.756H291.031C291.098 220.244 291.271 220.613 291.553 220.863C291.834 221.109 292.205 221.232 292.666 221.232C293.17 221.232 293.564 221.061 293.85 220.717C294.139 220.373 294.283 219.898 294.283 219.293C294.283 218.723 294.127 218.266 293.814 217.922C293.506 217.574 293.094 217.4 292.578 217.4C292.105 217.4 291.734 217.504 291.465 217.711L291.178 217.945L290.311 217.723ZM298.918 218.818H296.059V217.934H298.918V218.818ZM304.443 219.135H305.627V220.02H304.443V222H303.354V220.02H299.469V219.381L303.289 213.469H304.443V219.135ZM300.699 219.135H303.354V214.951L303.225 215.186L300.699 219.135ZM311.182 219.135H312.365V220.02H311.182V222H310.092V220.02H306.207V219.381L310.027 213.469H311.182V219.135ZM307.438 219.135H310.092V214.951L309.963 215.186L307.438 219.135Z" fill="#8794BA"/>
<path d="M146.65 304.135H147.834V305.02H146.65V307H145.561V305.02H141.676V304.381L145.496 298.469H146.65V304.135ZM142.906 304.135H145.561V299.951L145.432 300.186L142.906 304.135ZM149.311 302.723L149.744 298.469H154.115V299.471H150.664L150.406 301.797C150.824 301.551 151.299 301.428 151.83 301.428C152.607 301.428 153.225 301.686 153.682 302.201C154.139 302.713 154.367 303.406 154.367 304.281C154.367 305.16 154.129 305.854 153.652 306.361C153.18 306.865 152.518 307.117 151.666 307.117C150.912 307.117 150.297 306.908 149.82 306.49C149.344 306.072 149.072 305.494 149.006 304.756H150.031C150.098 305.244 150.271 305.613 150.553 305.863C150.834 306.109 151.205 306.232 151.666 306.232C152.17 306.232 152.564 306.061 152.85 305.717C153.139 305.373 153.283 304.898 153.283 304.293C153.283 303.723 153.127 303.266 152.814 302.922C152.506 302.574 152.094 302.4 151.578 302.4C151.105 302.4 150.734 302.504 150.465 302.711L150.178 302.945L149.311 302.723ZM157.918 303.818H155.059V302.934H157.918V303.818ZM159.365 302.723L159.799 298.469H164.17V299.471H160.719L160.461 301.797C160.879 301.551 161.354 301.428 161.885 301.428C162.662 301.428 163.279 301.686 163.736 302.201C164.193 302.713 164.422 303.406 164.422 304.281C164.422 305.16 164.184 305.854 163.707 306.361C163.234 306.865 162.572 307.117 161.721 307.117C160.967 307.117 160.352 306.908 159.875 306.49C159.398 306.072 159.127 305.494 159.061 304.756H160.086C160.152 305.244 160.326 305.613 160.607 305.863C160.889 306.109 161.26 306.232 161.721 306.232C162.225 306.232 162.619 306.061 162.904 305.717C163.193 305.373 163.338 304.898 163.338 304.293C163.338 303.723 163.182 303.266 162.869 302.922C162.561 302.574 162.148 302.4 161.633 302.4C161.16 302.4 160.789 302.504 160.52 302.711L160.232 302.945L159.365 302.723ZM170.182 304.135H171.365V305.02H170.182V307H169.092V305.02H165.207V304.381L169.027 298.469H170.182V304.135ZM166.438 304.135H169.092V299.951L168.963 300.186L166.438 304.135Z" fill="#8794BA"/>
<path d="M1.57227 217.723L2.00586 213.469H6.37695V214.471H2.92578L2.66797 216.797C3.08594 216.551 3.56055 216.428 4.0918 216.428C4.86914 216.428 5.48633 216.686 5.94336 217.201C6.40039 217.713 6.62891 218.406 6.62891 219.281C6.62891 220.16 6.39062 220.854 5.91406 221.361C5.44141 221.865 4.7793 222.117 3.92773 222.117C3.17383 222.117 2.55859 221.908 2.08203 221.49C1.60547 221.072 1.33398 220.494 1.26758 219.756H2.29297C2.35938 220.244 2.5332 220.613 2.81445 220.863C3.0957 221.109 3.4668 221.232 3.92773 221.232C4.43164 221.232 4.82617 221.061 5.11133 220.717C5.40039 220.373 5.54492 219.898 5.54492 219.293C5.54492 218.723 5.38867 218.266 5.07617 217.922C4.76758 217.574 4.35547 217.4 3.83984 217.4C3.36719 217.4 2.99609 217.504 2.72656 217.711L2.43945 217.945L1.57227 217.723ZM8.31055 217.723L8.74414 213.469H13.1152V214.471H9.66406L9.40625 216.797C9.82422 216.551 10.2988 216.428 10.8301 216.428C11.6074 216.428 12.2246 216.686 12.6816 217.201C13.1387 217.713 13.3672 218.406 13.3672 219.281C13.3672 220.16 13.1289 220.854 12.6523 221.361C12.1797 221.865 11.5176 222.117 10.666 222.117C9.91211 222.117 9.29688 221.908 8.82031 221.49C8.34375 221.072 8.07227 220.494 8.00586 219.756H9.03125C9.09766 220.244 9.27148 220.613 9.55273 220.863C9.83398 221.109 10.2051 221.232 10.666 221.232C11.1699 221.232 11.5645 221.061 11.8496 220.717C12.1387 220.373 12.2832 219.898 12.2832 219.293C12.2832 218.723 12.127 218.266 11.8145 217.922C11.5059 217.574 11.0938 217.4 10.5781 217.4C10.1055 217.4 9.73438 217.504 9.46484 217.711L9.17773 217.945L8.31055 217.723ZM16.918 218.818H14.0586V217.934H16.918V218.818ZM22.1211 213.463V214.383H21.9219C21.0781 214.398 20.4062 214.648 19.9062 215.133C19.4062 215.617 19.1172 216.299 19.0391 217.178C19.4883 216.662 20.1016 216.404 20.8789 216.404C21.6211 216.404 22.2129 216.666 22.6543 217.189C23.0996 217.713 23.3223 218.389 23.3223 219.217C23.3223 220.096 23.082 220.799 22.6016 221.326C22.125 221.854 21.4844 222.117 20.6797 222.117C19.8633 222.117 19.2012 221.805 18.6934 221.18C18.1855 220.551 17.9316 219.742 17.9316 218.754V218.338C17.9316 216.768 18.2656 215.568 18.9336 214.74C19.6055 213.908 20.6035 213.482 21.9277 213.463H22.1211ZM20.6973 217.307C20.3262 217.307 19.9844 217.418 19.6719 217.641C19.3594 217.863 19.1426 218.143 19.0215 218.479V218.877C19.0215 219.58 19.1797 220.146 19.4961 220.576C19.8125 221.006 20.207 221.221 20.6797 221.221C21.168 221.221 21.5508 221.041 21.8281 220.682C22.1094 220.322 22.25 219.852 22.25 219.27C22.25 218.684 22.1074 218.211 21.8223 217.852C21.541 217.488 21.166 217.307 20.6973 217.307ZM29.1816 219.135H30.3652V220.02H29.1816V222H28.0918V220.02H24.207V219.381L28.0273 213.469H29.1816V219.135ZM25.4375 219.135H28.0918V214.951L27.9629 215.186L25.4375 219.135Z" fill="#8794BA"/>
<path d="M10.3203 82.4629V83.3828H10.1211C9.27734 83.3984 8.60547 83.6484 8.10547 84.1328C7.60547 84.6172 7.31641 85.2988 7.23828 86.1777C7.6875 85.6621 8.30078 85.4043 9.07812 85.4043C9.82031 85.4043 10.4121 85.666 10.8535 86.1895C11.2988 86.7129 11.5215 87.3887 11.5215 88.2168C11.5215 89.0957 11.2812 89.7988 10.8008 90.3262C10.3242 90.8535 9.68359 91.1172 8.87891 91.1172C8.0625 91.1172 7.40039 90.8047 6.89258 90.1797C6.38477 89.5508 6.13086 88.7422 6.13086 87.7539V87.3379C6.13086 85.7676 6.46484 84.5684 7.13281 83.7402C7.80469 82.9082 8.80273 82.4824 10.127 82.4629H10.3203ZM8.89648 86.3066C8.52539 86.3066 8.18359 86.418 7.87109 86.6406C7.55859 86.8633 7.3418 87.1426 7.2207 87.4785V87.877C7.2207 88.5801 7.37891 89.1465 7.69531 89.5762C8.01172 90.0059 8.40625 90.2207 8.87891 90.2207C9.36719 90.2207 9.75 90.041 10.0273 89.6816C10.3086 89.3223 10.4492 88.8516 10.4492 88.2695C10.4492 87.6836 10.3066 87.2109 10.0215 86.8516C9.74023 86.4883 9.36523 86.3066 8.89648 86.3066ZM13.3027 86.7227L13.7363 82.4688H18.1074V83.4707H14.6562L14.3984 85.7969C14.8164 85.5508 15.291 85.4277 15.8223 85.4277C16.5996 85.4277 17.2168 85.6855 17.6738 86.2012C18.1309 86.7129 18.3594 87.4062 18.3594 88.2812C18.3594 89.1602 18.1211 89.8535 17.6445 90.3613C17.1719 90.8652 16.5098 91.1172 15.6582 91.1172C14.9043 91.1172 14.2891 90.9082 13.8125 90.4902C13.3359 90.0723 13.0645 89.4941 12.998 88.7559H14.0234C14.0898 89.2441 14.2637 89.6133 14.5449 89.8633C14.8262 90.1094 15.1973 90.2324 15.6582 90.2324C16.1621 90.2324 16.5566 90.0605 16.8418 89.7168C17.1309 89.373 17.2754 88.8984 17.2754 88.293C17.2754 87.7227 17.1191 87.2656 16.8066 86.9219C16.498 86.5742 16.0859 86.4004 15.5703 86.4004C15.0977 86.4004 14.7266 86.5039 14.457 86.7109L14.1699 86.9453L13.3027 86.7227ZM22.7598 86.4238H25.1387V87.4492H22.7598V90.1445H21.6699V87.4492H19.291V86.4238H21.6699V83.9336H22.7598V86.4238Z" fill="#8794BA"/>
</svg>
